<ttFont>
    <TTGlyph name=".notdef" xMin="68" yMin="0" xMax="612" yMax="1365">
      <contour>
        <pt x="68" y="0" on="1"/>
        <pt x="68" y="1365" on="1"/>
        <pt x="612" y="1365" on="1"/>
        <pt x="612" y="0" on="1"/>
      </contour>
      <contour>
        <pt x="136" y="68" on="1"/>
        <pt x="544" y="68" on="1"/>
        <pt x="544" y="1297" on="1"/>
        <pt x="136" y="1297" on="1"/>
      </contour>
    </TTGlyph>
    <TTGlyph name="A" xMin="86" yMin="0" xMax="1342" yMax="1446">
      <contour>
        <pt x="86" y="0" on="1"/>
        <pt x="625" y="1446" on="1"/>
        <pt x="802" y="1446" on="1"/>
        <pt x="1342" y="0" on="1"/>
        <pt x="1137" y="0" on="1"/>
        <pt x="1039" y="282" on="1"/>
        <pt x="394" y="282" on="1"/>
        <pt x="295" y="0" on="1"/>
      </contour>
      <contour>
        <pt x="442" y="425" on="1"/>
        <pt x="993" y="425" on="1"/>
        <pt x="719" y="1216" on="1"/>
      </contour>
    </TTGlyph>
    <TTGlyph name="AE" xMin="98" yMin="0" xMax="1559" yMax="1446">
      <contour>
        <pt x="302" y="0" on="1"/>
        <pt x="98" y="3" on="1"/>
        <pt x="492" y="1446" on="1"/>
        <pt x="1550" y="1446" on="1"/>
        <pt x="1550" y="1296" on="1"/>
        <pt x="1065" y="1296" on="1"/>
        <pt x="1065" y="814" on="1"/>
        <pt x="1489" y="814" on="1"/>
        <pt x="1489" y="664" on="1"/>
        <pt x="1065" y="664" on="1"/>
        <pt x="1065" y="150" on="1"/>
        <pt x="1559" y="150" on="1"/>
        <pt x="1559" y="0" on="1"/>
        <pt x="874" y="0" on="1"/>
        <pt x="874" y="282" on="1"/>
        <pt x="375" y="282" on="1"/>
      </contour>
      <contour>
        <pt x="411" y="417" on="1"/>
        <pt x="874" y="417" on="1"/>
        <pt x="874" y="1296" on="1"/>
        <pt x="632" y="1296" on="1"/>
      </contour>
    </TTGlyph>
    <TTGlyph name="Aacute" xMin="86" yMin="0" xMax="1342" yMax="1972">
      <component glyphName="acute" x="528" y="466" flags="0x1004"/>
      <component glyphName="A" x="0" y="0" flags="0x1204"/>
    </TTGlyph>
    <TTGlyph name="Abreve" xMin="86" yMin="0" xMax="1342" yMax="1843">
      <component glyphName="breve" x="458" y="337" flags="0x1004"/>
      <component glyphName="A" x="0" y="0" flags="0x1204"/>
    </TTGlyph>
    <TTGlyph name="Acircumflex" xMin="86" yMin="0" xMax="1342" yMax="1897">
      <component glyphName="circumflex" x="458" y="391" flags="0x1004"/>
      <component glyphName="A" x="0" y="0" flags="0x1204"/>
    </TTGlyph>
    <TTGlyph name="Adieresis" xMin="86" yMin="0" xMax="1342" yMax="1812">
      <component glyphName="dieresis" x="202" y="366" flags="0x1004"/>
      <component glyphName="A" x="0" y="0" flags="0x1204"/>
    </TTGlyph>
    <TTGlyph name="Agrave" xMin="86" yMin="0" xMax="1342" yMax="1972">
      <component glyphName="grave" x="289" y="466" flags="0x1004"/>
      <component glyphName="A" x="0" y="0" flags="0x1204"/>
    </TTGlyph>
    <TTGlyph name="Amacron" xMin="86" yMin="0" xMax="1342" yMax="1783">
      <component glyphName="uni02C9" x="458" y="277" flags="0x1004"/>
      <component glyphName="A" x="0" y="0" flags="0x1204"/>
    </TTGlyph>
    <TTGlyph name="Aogonek" xMin="86" yMin="-479" xMax="1342" yMax="1446">
      <component glyphName="ogonek" x="910" y="7" flags="0x1004"/>
      <component glyphName="A" x="0" y="0" flags="0x1004"/>
    </TTGlyph>
    <TTGlyph name="Aring" xMin="86" yMin="0" xMax="1342" yMax="1812">
      <component glyphName="ring" x="458" y="306" flags="0x1004"/>
      <component glyphName="A" x="0" y="0" flags="0x1204"/>
    </TTGlyph>
    <TTGlyph name="Atilde" xMin="86" yMin="0" xMax="1342" yMax="1874">
      <component glyphName="tilde" x="458" y="368" flags="0x1004"/>
      <component glyphName="A" x="0" y="0" flags="0x1204"/>
    </TTGlyph>
    <TTGlyph name="B" xMin="218" yMin="0" xMax="1292" yMax="1446">
      <contour>
        <pt x="218" y="0" on="1"/>
        <pt x="218" y="1446" on="1"/>
        <pt x="742" y="1446" on="1"/>
        <pt x="1078" y="1446" on="0"/>
        <pt x="1168" y="1297" on="1"/>
        <pt x="1222" y="1208" on="0"/>
        <pt x="1222" y="1049" on="1"/>
        <pt x="1217" y="834" on="0"/>
        <pt x="1040" y="773" on="1"/>
        <pt x="1164" y="745" on="0"/>
        <pt x="1292" y="553" on="0"/>
        <pt x="1292" y="411" on="1"/>
        <pt x="1292" y="196" on="0"/>
        <pt x="1050" y="0" on="0"/>
        <pt x="786" y="0" on="1"/>
      </contour>
      <contour>
        <pt x="420" y="149" on="1"/>
        <pt x="771" y="149" on="1"/>
        <pt x="941" y="149" on="0"/>
        <pt x="1094" y="259" on="0"/>
        <pt x="1094" y="433" on="1"/>
        <pt x="1094" y="696" on="0"/>
        <pt x="820" y="696" on="1"/>
        <pt x="420" y="696" on="1"/>
      </contour>
      <contour>
        <pt x="420" y="833" on="1"/>
        <pt x="791" y="833" on="1"/>
        <pt x="920" y="833" on="0"/>
        <pt x="1021" y="941" on="0"/>
        <pt x="1021" y="1127" on="0"/>
        <pt x="994" y="1221" on="0"/>
        <pt x="919" y="1277" on="0"/>
        <pt x="808" y="1295" on="0"/>
        <pt x="711" y="1295" on="1"/>
        <pt x="420" y="1295" on="1"/>
      </contour>
    </TTGlyph>
    <TTGlyph name="C" xMin="182" yMin="-22" xMax="1300" yMax="1468">
      <contour>
        <pt x="268" y="109" on="0"/>
        <pt x="182" y="330" on="0"/>
        <pt x="182" y="486" on="1"/>
        <pt x="182" y="940" on="1"/>
        <pt x="182" y="1256" on="0"/>
        <pt x="346" y="1371" on="1"/>
        <pt x="485" y="1468" on="0"/>
        <pt x="1016" y="1468" on="0"/>
        <pt x="1256" y="1321" on="0"/>
        <pt x="1286" y="1164" on="1"/>
        <pt x="1300" y="1094" on="0"/>
        <pt x="1300" y="997" on="1"/>
        <pt x="1109" y="980" on="1"/>
        <pt x="1109" y="1126" on="0"/>
        <pt x="1059" y="1229" on="0"/>
        <pt x="1010" y="1273" on="0"/>
        <pt x="898" y="1306" on="0"/>
        <pt x="660" y="1306" on="0"/>
        <pt x="592" y="1290" on="1"/>
        <pt x="524" y="1275" on="0"/>
        <pt x="476" y="1238" on="1"/>
        <pt x="384" y="1167" on="0"/>
        <pt x="384" y="977" on="1"/>
        <pt x="384" y="455" on="1"/>
        <pt x="384" y="267" on="0"/>
        <pt x="570" y="140" on="0"/>
        <pt x="977" y="140" on="0"/>
        <pt x="1033" y="188" on="1"/>
        <pt x="1089" y="236" on="0"/>
        <pt x="1102" y="328" on="1"/>
        <pt x="1109" y="378" on="0"/>
        <pt x="1109" y="448" on="1"/>
        <pt x="1300" y="448" on="1"/>
        <pt x="1300" y="230" on="0"/>
        <pt x="1237" y="142" on="1"/>
        <pt x="1121" y="-22" on="0"/>
        <pt x="796" y="-22" on="1"/>
        <pt x="523" y="-22" on="0"/>
      </contour>
    </TTGlyph>
    <TTGlyph name="Cacute" xMin="182" yMin="-22" xMax="1300" yMax="1972">
      <component glyphName="acute" x="555" y="466" flags="0x1004"/>
      <component glyphName="C" x="0" y="0" flags="0x1204"/>
    </TTGlyph>
    <TTGlyph name="Ccaron" xMin="182" yMin="-22" xMax="1300" yMax="1897">
      <component glyphName="caron" x="485" y="391" flags="0x1004"/>
      <component glyphName="C" x="0" y="0" flags="0x1204"/>
    </TTGlyph>
    <TTGlyph name="Ccedilla" xMin="182" yMin="-492" xMax="1300" yMax="1468">
      <component glyphName="cedilla" x="510" y="-6" flags="0x1004"/>
      <component glyphName="C" x="0" y="0" flags="0x1204"/>
    </TTGlyph>
    <TTGlyph name="Ccircumflex" xMin="182" yMin="-22" xMax="1300" yMax="1897">
      <component glyphName="circumflex" x="485" y="391" flags="0x1004"/>
      <component glyphName="C" x="0" y="0" flags="0x1204"/>
    </TTGlyph>
    <TTGlyph name="Cdotaccent" xMin="182" yMin="-22" xMax="1300" yMax="1837">
      <component glyphName="uni0307" x="530" y="354" flags="0x1004"/>
      <component glyphName="C" x="0" y="0" flags="0x1204"/>
    </TTGlyph>
    <TTGlyph name="D" xMin="218" yMin="0" xMax="1340" yMax="1446">
      <contour>
        <pt x="420" y="150" on="1"/>
        <pt x="774" y="150" on="1"/>
        <pt x="992" y="150" on="0"/>
        <pt x="1139" y="312" on="0"/>
        <pt x="1139" y="462" on="1"/>
        <pt x="1139" y="971" on="1"/>
        <pt x="1139" y="1192" on="0"/>
        <pt x="991" y="1258" on="1"/>
        <pt x="907" y="1296" on="0"/>
        <pt x="774" y="1295" on="1"/>
        <pt x="420" y="1295" on="1"/>
      </contour>
      <contour>
        <pt x="218" y="0" on="1"/>
        <pt x="218" y="1446" on="1"/>
        <pt x="792" y="1446" on="1"/>
        <pt x="1207" y="1446" on="0"/>
        <pt x="1310" y="1152" on="1"/>
        <pt x="1340" y="1066" on="0"/>
        <pt x="1340" y="959" on="1"/>
        <pt x="1340" y="482" on="1"/>
        <pt x="1340" y="245" on="0"/>
        <pt x="1067" y="0" on="0"/>
        <pt x="794" y="0" on="1"/>
      </contour>
    </TTGlyph>
    <TTGlyph name="Dcaron" xMin="218" yMin="0" xMax="1340" yMax="1897">
      <component glyphName="caron" x="523" y="391" flags="0x1004"/>
      <component glyphName="D" x="0" y="0" flags="0x1204"/>
    </TTGlyph>
    <TTGlyph name="Dcroat" xMin="76" yMin="0" xMax="1340" yMax="1446">
      <component glyphName="Eth" x="0" y="0" flags="0x1004"/>
    </TTGlyph>
    <TTGlyph name="Delta" xMin="191" yMin="0" xMax="1237" yMax="1446">
      <contour>
        <pt x="422" y="143" on="1"/>
        <pt x="1013" y="143" on="1"/>
        <pt x="719" y="1196" on="1"/>
      </contour>
      <contour>
        <pt x="1237" y="0" on="1"/>
        <pt x="191" y="0" on="1"/>
        <pt x="625" y="1446" on="1"/>
        <pt x="802" y="1446" on="1"/>
      </contour>
    </TTGlyph>
    <TTGlyph name="E" xMin="218" yMin="0" xMax="1133" yMax="1446">
      <contour>
        <pt x="218" y="0" on="1"/>
        <pt x="218" y="1446" on="1"/>
        <pt x="1121" y="1446" on="1"/>
        <pt x="1121" y="1296" on="1"/>
        <pt x="419" y="1296" on="1"/>
        <pt x="419" y="820" on="1"/>
        <pt x="1039" y="820" on="1"/>
        <pt x="1039" y="670" on="1"/>
        <pt x="419" y="670" on="1"/>
        <pt x="419" y="150" on="1"/>
        <pt x="1133" y="150" on="1"/>
        <pt x="1133" y="0" on="1"/>
      </contour>
    </TTGlyph>
    <TTGlyph name="Eacute" xMin="218" yMin="0" xMax="1133" yMax="1972">
      <component glyphName="acute" x="490" y="466" flags="0x1004"/>
      <component glyphName="E" x="0" y="0" flags="0x1204"/>
    </TTGlyph>
    <TTGlyph name="Ebreve" xMin="218" yMin="0" xMax="1133" yMax="1843">
      <component glyphName="breve" x="420" y="337" flags="0x1004"/>
      <component glyphName="E" x="0" y="0" flags="0x1204"/>
    </TTGlyph>
    <TTGlyph name="Ecaron" xMin="218" yMin="0" xMax="1133" yMax="1897">
      <component glyphName="caron" x="420" y="391" flags="0x1004"/>
      <component glyphName="E" x="0" y="0" flags="0x1204"/>
    </TTGlyph>
    <TTGlyph name="Ecircumflex" xMin="218" yMin="0" xMax="1133" yMax="1897">
      <component glyphName="circumflex" x="420" y="391" flags="0x1004"/>
      <component glyphName="E" x="0" y="0" flags="0x1204"/>
    </TTGlyph>
    <TTGlyph name="Edieresis" xMin="218" yMin="0" xMax="1133" yMax="1812">
      <component glyphName="dieresis" x="163" y="366" flags="0x1004"/>
      <component glyphName="E" x="0" y="0" flags="0x1204"/>
    </TTGlyph>
    <TTGlyph name="Edotaccent" xMin="218" yMin="0" xMax="1133" yMax="1837">
      <component glyphName="uni0307" x="465" y="354" flags="0x1004"/>
      <component glyphName="E" x="0" y="0" flags="0x1204"/>
    </TTGlyph>
    <TTGlyph name="Egrave" xMin="218" yMin="0" xMax="1133" yMax="1972">
      <component glyphName="grave" x="250" y="466" flags="0x1004"/>
      <component glyphName="E" x="0" y="0" flags="0x1204"/>
    </TTGlyph>
    <TTGlyph name="Emacron" xMin="218" yMin="0" xMax="1133" yMax="1783">
      <component glyphName="uni02C9" x="419" y="277" flags="0x1004"/>
      <component glyphName="E" x="0" y="0" flags="0x1204"/>
    </TTGlyph>
    <TTGlyph name="Eng" xMin="212" yMin="-373" xMax="1370" yMax="1446">
      <contour>
        <pt x="821" y="-373" on="1"/>
        <pt x="793" y="-232" on="1"/>
        <pt x="1000" y="-214" on="0"/>
        <pt x="1050" y="-184" on="1"/>
        <pt x="1130" y="-138" on="0"/>
        <pt x="1149" y="-86" on="1"/>
        <pt x="1182" y="2" on="0"/>
        <pt x="1182" y="115" on="1"/>
        <pt x="1182" y="190" on="1"/>
        <pt x="389" y="1104" on="1"/>
        <pt x="389" y="0" on="1"/>
        <pt x="212" y="0" on="1"/>
        <pt x="212" y="1446" on="1"/>
        <pt x="365" y="1446" on="1"/>
        <pt x="1193" y="470" on="1"/>
        <pt x="1193" y="1446" on="1"/>
        <pt x="1370" y="1446" on="1"/>
        <pt x="1370" y="122" on="1"/>
        <pt x="1370" y="-294" on="0"/>
        <pt x="1006" y="-358" on="1"/>
        <pt x="924" y="-372" on="0"/>
      </contour>
    </TTGlyph>
    <TTGlyph name="Eogonek" xMin="218" yMin="-470" xMax="1133" yMax="1446">
      <component glyphName="ogonek" x="476" y="16" flags="0x1004"/>
      <component glyphName="E" x="0" y="0" flags="0x1004"/>
    </TTGlyph>
    <TTGlyph name="Eth" xMin="76" yMin="0" xMax="1340" yMax="1446">
      <contour>
        <pt x="420" y="150" on="1"/>
        <pt x="774" y="150" on="1"/>
        <pt x="992" y="150" on="0"/>
        <pt x="1139" y="312" on="0"/>
        <pt x="1139" y="462" on="1"/>
        <pt x="1139" y="971" on="1"/>
        <pt x="1139" y="1192" on="0"/>
        <pt x="991" y="1258" on="1"/>
        <pt x="907" y="1296" on="0"/>
        <pt x="774" y="1295" on="1"/>
        <pt x="420" y="1295" on="1"/>
        <pt x="420" y="849" on="1"/>
        <pt x="778" y="849" on="1"/>
        <pt x="778" y="698" on="1"/>
        <pt x="420" y="698" on="1"/>
      </contour>
      <contour>
        <pt x="76" y="698" on="1"/>
        <pt x="76" y="849" on="1"/>
        <pt x="218" y="849" on="1"/>
        <pt x="218" y="1446" on="1"/>
        <pt x="792" y="1446" on="1"/>
        <pt x="1207" y="1446" on="0"/>
        <pt x="1310" y="1152" on="1"/>
        <pt x="1340" y="1066" on="0"/>
        <pt x="1340" y="959" on="1"/>
        <pt x="1340" y="482" on="1"/>
        <pt x="1340" y="245" on="0"/>
        <pt x="1067" y="0" on="0"/>
        <pt x="794" y="0" on="1"/>
        <pt x="218" y="0" on="1"/>
        <pt x="218" y="698" on="1"/>
      </contour>
    </TTGlyph>
    <TTGlyph name="Euro" xMin="1" yMin="-22" xMax="1300" yMax="1468">
      <contour>
        <pt x="268" y="109" on="0"/>
        <pt x="182" y="330" on="0"/>
        <pt x="182" y="486" on="1"/>
        <pt x="182" y="505" on="1"/>
        <pt x="1" y="505" on="1"/>
        <pt x="1" y="639" on="1"/>
        <pt x="182" y="639" on="1"/>
        <pt x="182" y="819" on="1"/>
        <pt x="1" y="819" on="1"/>
        <pt x="1" y="953" on="1"/>
        <pt x="182" y="953" on="1"/>
        <pt x="185" y="1259" on="0"/>
        <pt x="346" y="1371" on="1"/>
        <pt x="485" y="1468" on="0"/>
        <pt x="1016" y="1468" on="0"/>
        <pt x="1256" y="1321" on="0"/>
        <pt x="1286" y="1164" on="1"/>
        <pt x="1300" y="1094" on="0"/>
        <pt x="1300" y="997" on="1"/>
        <pt x="1109" y="980" on="1"/>
        <pt x="1109" y="1126" on="0"/>
        <pt x="1059" y="1229" on="0"/>
        <pt x="1010" y="1273" on="0"/>
        <pt x="898" y="1306" on="0"/>
        <pt x="660" y="1306" on="0"/>
        <pt x="592" y="1290" on="1"/>
        <pt x="524" y="1275" on="0"/>
        <pt x="476" y="1238" on="1"/>
        <pt x="384" y="1167" on="0"/>
        <pt x="384" y="977" on="1"/>
        <pt x="384" y="953" on="1"/>
        <pt x="743" y="953" on="1"/>
        <pt x="743" y="819" on="1"/>
        <pt x="384" y="819" on="1"/>
        <pt x="384" y="639" on="1"/>
        <pt x="743" y="639" on="1"/>
        <pt x="743" y="505" on="1"/>
        <pt x="384" y="505" on="1"/>
        <pt x="384" y="455" on="1"/>
        <pt x="384" y="267" on="0"/>
        <pt x="570" y="140" on="0"/>
        <pt x="977" y="140" on="0"/>
        <pt x="1033" y="188" on="1"/>
        <pt x="1089" y="236" on="0"/>
        <pt x="1102" y="328" on="1"/>
        <pt x="1109" y="378" on="0"/>
        <pt x="1109" y="448" on="1"/>
        <pt x="1300" y="448" on="1"/>
        <pt x="1300" y="230" on="0"/>
        <pt x="1237" y="142" on="1"/>
        <pt x="1121" y="-22" on="0"/>
        <pt x="796" y="-22" on="1"/>
        <pt x="523" y="-22" on="0"/>
      </contour>
    </TTGlyph>
    <TTGlyph name="F" xMin="218" yMin="0" xMax="1039" yMax="1446">
      <contour>
        <pt x="218" y="0" on="1"/>
        <pt x="218" y="1446" on="1"/>
        <pt x="1039" y="1446" on="1"/>
        <pt x="1039" y="1296" on="1"/>
        <pt x="419" y="1296" on="1"/>
        <pt x="419" y="814" on="1"/>
        <pt x="1003" y="814" on="1"/>
        <pt x="1003" y="664" on="1"/>
        <pt x="419" y="664" on="1"/>
        <pt x="419" y="0" on="1"/>
      </contour>
    </TTGlyph>
    <TTGlyph name="G" xMin="186" yMin="-22" xMax="1360" yMax="1468">
      <contour>
        <pt x="788" y="-22" on="1"/>
        <pt x="384" y="-22" on="0"/>
        <pt x="259" y="178" on="1"/>
        <pt x="186" y="295" on="0"/>
        <pt x="186" y="486" on="1"/>
        <pt x="186" y="940" on="1"/>
        <pt x="186" y="1249" on="0"/>
        <pt x="366" y="1371" on="1"/>
        <pt x="509" y="1468" on="0"/>
        <pt x="1027" y="1468" on="0"/>
        <pt x="1268" y="1351" on="0"/>
        <pt x="1344" y="1156" on="0"/>
        <pt x="1344" y="1016" on="1"/>
        <pt x="1160" y="1001" on="1"/>
        <pt x="1160" y="1142" on="0"/>
        <pt x="1105" y="1237" on="0"/>
        <pt x="1054" y="1277" on="0"/>
        <pt x="933" y="1306" on="0"/>
        <pt x="688" y="1306" on="0"/>
        <pt x="618" y="1290" on="1"/>
        <pt x="548" y="1275" on="0"/>
        <pt x="494" y="1238" on="1"/>
        <pt x="388" y="1165" on="0"/>
        <pt x="388" y="977" on="1"/>
        <pt x="388" y="455" on="1"/>
        <pt x="388" y="267" on="0"/>
        <pt x="590" y="140" on="0"/>
        <pt x="983" y="140" on="0"/>
        <pt x="1158" y="265" on="0"/>
        <pt x="1158" y="455" on="1"/>
        <pt x="1158" y="588" on="1"/>
        <pt x="815" y="588" on="1"/>
        <pt x="815" y="735" on="1"/>
        <pt x="1360" y="735" on="1"/>
        <pt x="1360" y="0" on="1"/>
        <pt x="1250" y="0" on="1"/>
        <pt x="1225" y="246" on="1"/>
        <pt x="1206" y="121" on="0"/>
        <pt x="993" y="-22" on="0"/>
      </contour>
    </TTGlyph>
    <TTGlyph name="Gbreve" xMin="186" yMin="-22" xMax="1360" yMax="1843">
      <component glyphName="breve" x="517" y="337" flags="0x1004"/>
      <component glyphName="G" x="0" y="0" flags="0x1204"/>
    </TTGlyph>
    <TTGlyph name="Gcircumflex" xMin="186" yMin="-22" xMax="1360" yMax="1897">
      <component glyphName="circumflex" x="517" y="391" flags="0x1004"/>
      <component glyphName="G" x="0" y="0" flags="0x1204"/>
    </TTGlyph>
    <TTGlyph name="Gcommaaccent" xMin="186" yMin="-756" xMax="1360" yMax="1468">
      <component glyphName="uni0326" x="388" y="-92" flags="0x1004"/>
      <component glyphName="G" x="0" y="0" flags="0x1204"/>
    </TTGlyph>
    <TTGlyph name="Gdotaccent" xMin="186" yMin="-22" xMax="1360" yMax="1837">
      <component glyphName="uni0307" x="562" y="354" flags="0x1004"/>
      <component glyphName="G" x="0" y="0" flags="0x1204"/>
    </TTGlyph>
    <TTGlyph name="H" xMin="212" yMin="0" xMax="1316" yMax="1446">
      <contour>
        <pt x="212" y="0" on="1"/>
        <pt x="212" y="1446" on="1"/>
        <pt x="413" y="1446" on="1"/>
        <pt x="413" y="807" on="1"/>
        <pt x="1115" y="807" on="1"/>
        <pt x="1115" y="1446" on="1"/>
        <pt x="1316" y="1446" on="1"/>
        <pt x="1316" y="0" on="1"/>
        <pt x="1115" y="0" on="1"/>
        <pt x="1115" y="659" on="1"/>
        <pt x="413" y="659" on="1"/>
        <pt x="413" y="0" on="1"/>
      </contour>
    </TTGlyph>
    <TTGlyph name="Hbar" xMin="144" yMin="0" xMax="1392" yMax="1446">
      <contour>
        <pt x="144" y="1060" on="1"/>
        <pt x="144" y="1184" on="1"/>
        <pt x="212" y="1184" on="1"/>
        <pt x="212" y="1446" on="1"/>
        <pt x="413" y="1446" on="1"/>
        <pt x="413" y="1184" on="1"/>
        <pt x="1115" y="1184" on="1"/>
        <pt x="1115" y="1446" on="1"/>
        <pt x="1316" y="1446" on="1"/>
        <pt x="1316" y="1184" on="1"/>
        <pt x="1392" y="1184" on="1"/>
        <pt x="1392" y="1060" on="1"/>
        <pt x="1316" y="1060" on="1"/>
        <pt x="1316" y="0" on="1"/>
        <pt x="1115" y="0" on="1"/>
        <pt x="1115" y="659" on="1"/>
        <pt x="413" y="659" on="1"/>
        <pt x="413" y="0" on="1"/>
        <pt x="212" y="0" on="1"/>
        <pt x="212" y="1060" on="1"/>
      </contour>
      <contour>
        <pt x="413" y="1060" on="1"/>
        <pt x="413" y="807" on="1"/>
        <pt x="1115" y="807" on="1"/>
        <pt x="1115" y="1060" on="1"/>
      </contour>
    </TTGlyph>
    <TTGlyph name="Hcircumflex" xMin="212" yMin="0" xMax="1316" yMax="1897">
      <component glyphName="circumflex" x="508" y="391" flags="0x1004"/>
      <component glyphName="H" x="0" y="0" flags="0x1204"/>
    </TTGlyph>
    <TTGlyph name="I" xMin="190" yMin="0" xMax="942" yMax="1446">
      <contour>
        <pt x="190" y="0" on="1"/>
        <pt x="190" y="150" on="1"/>
        <pt x="466" y="150" on="1"/>
        <pt x="466" y="1297" on="1"/>
        <pt x="190" y="1297" on="1"/>
        <pt x="190" y="1446" on="1"/>
        <pt x="942" y="1446" on="1"/>
        <pt x="942" y="1297" on="1"/>
        <pt x="667" y="1297" on="1"/>
        <pt x="667" y="150" on="1"/>
        <pt x="942" y="150" on="1"/>
        <pt x="942" y="0" on="1"/>
      </contour>
    </TTGlyph>
    <TTGlyph name="IJ" xMin="190" yMin="-17" xMax="2120" yMax="1446">
      <component glyphName="J" x="1132" y="0" flags="0x1004"/>
      <component glyphName="I" x="0" y="0" flags="0x1004"/>
    </TTGlyph>
    <TTGlyph name="Iacute" xMin="190" yMin="0" xMax="942" yMax="1972">
      <component glyphName="acute" x="380" y="466" flags="0x1004"/>
      <component glyphName="I" x="0" y="0" flags="0x1204"/>
    </TTGlyph>
    <TTGlyph name="Ibreve" xMin="190" yMin="0" xMax="942" yMax="1843">
      <component glyphName="breve" x="310" y="337" flags="0x1004"/>
      <component glyphName="I" x="0" y="0" flags="0x1204"/>
    </TTGlyph>
    <TTGlyph name="Icircumflex" xMin="190" yMin="0" xMax="942" yMax="1897">
      <component glyphName="circumflex" x="310" y="391" flags="0x1004"/>
      <component glyphName="I" x="0" y="0" flags="0x1204"/>
    </TTGlyph>
    <TTGlyph name="Idieresis" xMin="190" yMin="0" xMax="942" yMax="1812">
      <component glyphName="dieresis" x="54" y="366" flags="0x1004"/>
      <component glyphName="I" x="0" y="0" flags="0x1204"/>
    </TTGlyph>
    <TTGlyph name="Idotaccent" xMin="190" yMin="0" xMax="942" yMax="1837">
      <component glyphName="uni0307" x="356" y="354" flags="0x1004"/>
      <component glyphName="I" x="0" y="0" flags="0x1204"/>
    </TTGlyph>
    <TTGlyph name="Igrave" xMin="190" yMin="0" xMax="942" yMax="1972">
      <component glyphName="grave" x="141" y="466" flags="0x1004"/>
      <component glyphName="I" x="0" y="0" flags="0x1204"/>
    </TTGlyph>
    <TTGlyph name="Imacron" xMin="190" yMin="0" xMax="942" yMax="1783">
      <component glyphName="uni02C9" x="310" y="277" flags="0x1004"/>
      <component glyphName="I" x="0" y="0" flags="0x1204"/>
    </TTGlyph>
    <TTGlyph name="Iogonek" xMin="190" yMin="-470" xMax="942" yMax="1446">
      <component glyphName="ogonek" x="321" y="16" flags="0x1004"/>
      <component glyphName="I" x="0" y="0" flags="0x1204"/>
    </TTGlyph>
    <TTGlyph name="Itilde" xMin="190" yMin="0" xMax="942" yMax="1874">
      <component glyphName="tilde" x="310" y="368" flags="0x1004"/>
      <component glyphName="I" x="0" y="0" flags="0x1204"/>
    </TTGlyph>
    <TTGlyph name="J" xMin="102" yMin="-17" xMax="988" yMax="1446">
      <contour>
        <pt x="522" y="-17" on="1"/>
        <pt x="407" y="-17" on="0"/>
        <pt x="159" y="40" on="0"/>
        <pt x="102" y="70" on="1"/>
        <pt x="157" y="225" on="1"/>
        <pt x="208" y="201" on="0"/>
        <pt x="420" y="148" on="0"/>
        <pt x="516" y="148" on="1"/>
        <pt x="657" y="148" on="0"/>
        <pt x="787" y="292" on="0"/>
        <pt x="787" y="435" on="1"/>
        <pt x="787" y="1281" on="1"/>
        <pt x="234" y="1281" on="1"/>
        <pt x="234" y="1446" on="1"/>
        <pt x="988" y="1446" on="1"/>
        <pt x="988" y="431" on="1"/>
        <pt x="988" y="218" on="0"/>
        <pt x="759" y="-17" on="0"/>
      </contour>
    </TTGlyph>
    <TTGlyph name="Jcircumflex" xMin="102" yMin="-17" xMax="988" yMax="1897">
      <component glyphName="circumflex" x="349" y="391" flags="0x1004"/>
      <component glyphName="J" x="0" y="0" flags="0x1204"/>
    </TTGlyph>
    <TTGlyph name="K" xMin="218" yMin="0" xMax="1350" yMax="1446">
      <contour>
        <pt x="218" y="0" on="1"/>
        <pt x="218" y="1446" on="1"/>
        <pt x="419" y="1446" on="1"/>
        <pt x="419" y="657" on="1"/>
        <pt x="580" y="852" on="0"/>
        <pt x="1027" y="1358" on="0"/>
        <pt x="1103" y="1446" on="1"/>
        <pt x="1321" y="1446" on="1"/>
        <pt x="778" y="798" on="1"/>
        <pt x="1350" y="0" on="1"/>
        <pt x="1127" y="0" on="1"/>
        <pt x="637" y="690" on="1"/>
        <pt x="419" y="468" on="1"/>
        <pt x="419" y="0" on="1"/>
      </contour>
    </TTGlyph>
    <TTGlyph name="Kcommaaccent" xMin="218" yMin="-734" xMax="1350" yMax="1446">
      <component glyphName="uni0326" x="400" y="-70" flags="0x1004"/>
      <component glyphName="K" x="0" y="0" flags="0x1204"/>
    </TTGlyph>
    <TTGlyph name="L" xMin="218" yMin="0" xMax="1068" yMax="1446">
      <contour>
        <pt x="218" y="0" on="1"/>
        <pt x="218" y="1446" on="1"/>
        <pt x="419" y="1446" on="1"/>
        <pt x="419" y="155" on="1"/>
        <pt x="1068" y="155" on="1"/>
        <pt x="1068" y="0" on="1"/>
      </contour>
    </TTGlyph>
    <TTGlyph name="Lacute" xMin="218" yMin="0" xMax="1068" yMax="1972">
      <component glyphName="acute" x="457" y="466" flags="0x1004"/>
      <component glyphName="L" x="0" y="0" flags="0x1204"/>
    </TTGlyph>
    <TTGlyph name="Lcaron" xMin="218" yMin="0" xMax="1143" yMax="1468">
      <component glyphName="comma" x="694" y="1235" flags="0x1004"/>
      <component glyphName="L" x="0" y="0" flags="0x1004"/>
    </TTGlyph>
    <TTGlyph name="Lcommaaccent" xMin="218" yMin="-734" xMax="1068" yMax="1446">
      <component glyphName="uni0326" x="258" y="-70" flags="0x1004"/>
      <component glyphName="L" x="0" y="0" flags="0x1204"/>
    </TTGlyph>
    <TTGlyph name="Ldot" xMin="218" yMin="0" xMax="1068" yMax="1446">
      <component glyphName="periodcentered" x="598" y="-646" flags="0x1004"/>
      <component glyphName="L" x="0" y="0" flags="0x1204"/>
    </TTGlyph>
    <TTGlyph name="Lslash" xMin="52" yMin="0" xMax="1068" yMax="1446">
      <contour>
        <pt x="52" y="616" on="1"/>
        <pt x="52" y="740" on="1"/>
        <pt x="218" y="823" on="1"/>
        <pt x="218" y="1446" on="1"/>
        <pt x="419" y="1446" on="1"/>
        <pt x="419" y="923" on="1"/>
        <pt x="826" y="1126" on="1"/>
        <pt x="826" y="1002" on="1"/>
        <pt x="419" y="799" on="1"/>
        <pt x="419" y="155" on="1"/>
        <pt x="1068" y="155" on="1"/>
        <pt x="1068" y="0" on="1"/>
        <pt x="218" y="0" on="1"/>
        <pt x="218" y="699" on="1"/>
      </contour>
    </TTGlyph>
    <TTGlyph name="M" xMin="218" yMin="0" xMax="1560" yMax="1446">
      <contour>
        <pt x="218" y="0" on="1"/>
        <pt x="218" y="1446" on="1"/>
        <pt x="403" y="1446" on="1"/>
        <pt x="890" y="638" on="1"/>
        <pt x="1382" y="1446" on="1"/>
        <pt x="1560" y="1446" on="1"/>
        <pt x="1560" y="0" on="1"/>
        <pt x="1370" y="0" on="1"/>
        <pt x="1370" y="1121" on="1"/>
        <pt x="965" y="458" on="1"/>
        <pt x="816" y="458" on="1"/>
        <pt x="410" y="1117" on="1"/>
        <pt x="410" y="0" on="1"/>
      </contour>
    </TTGlyph>
    <TTGlyph name="N" xMin="218" yMin="0" xMax="1376" yMax="1446">
      <contour>
        <pt x="218" y="0" on="1"/>
        <pt x="218" y="1446" on="1"/>
        <pt x="371" y="1446" on="1"/>
        <pt x="1199" y="290" on="1"/>
        <pt x="1199" y="1446" on="1"/>
        <pt x="1376" y="1446" on="1"/>
        <pt x="1376" y="0" on="1"/>
        <pt x="1197" y="0" on="1"/>
        <pt x="395" y="1104" on="1"/>
        <pt x="395" y="0" on="1"/>
      </contour>
    </TTGlyph>
    <TTGlyph name="Nacute" xMin="218" yMin="0" xMax="1376" yMax="1972">
      <component glyphName="acute" x="611" y="466" flags="0x1004"/>
      <component glyphName="N" x="0" y="0" flags="0x1204"/>
    </TTGlyph>
    <TTGlyph name="Ncaron" xMin="218" yMin="0" xMax="1376" yMax="1897">
      <component glyphName="caron" x="541" y="391" flags="0x1004"/>
      <component glyphName="N" x="0" y="0" flags="0x1204"/>
    </TTGlyph>
    <TTGlyph name="Ncommaaccent" xMin="218" yMin="-734" xMax="1376" yMax="1446">
      <component glyphName="uni0326" x="412" y="-70" flags="0x1004"/>
      <component glyphName="N" x="0" y="0" flags="0x1204"/>
    </TTGlyph>
    <TTGlyph name="Ntilde" xMin="218" yMin="0" xMax="1376" yMax="1874">
      <component glyphName="tilde" x="542" y="368" flags="0x1004"/>
      <component glyphName="N" x="0" y="0" flags="0x1204"/>
    </TTGlyph>
    <TTGlyph name="O" xMin="186" yMin="-22" xMax="1360" yMax="1468">
      <contour>
        <pt x="979" y="140" on="0"/>
        <pt x="1159" y="267" on="0"/>
        <pt x="1159" y="455" on="1"/>
        <pt x="1159" y="978" on="1"/>
        <pt x="1159" y="1166" on="0"/>
        <pt x="978" y="1306" on="0"/>
        <pt x="782" y="1306" on="1"/>
        <pt x="478" y="1306" on="0"/>
        <pt x="413" y="1138" on="1"/>
        <pt x="388" y="1074" on="0"/>
        <pt x="388" y="978" on="1"/>
        <pt x="388" y="455" on="1"/>
        <pt x="388" y="268" on="0"/>
        <pt x="584" y="140" on="0"/>
      </contour>
      <contour>
        <pt x="280" y="110" on="0"/>
        <pt x="186" y="332" on="0"/>
        <pt x="186" y="486" on="1"/>
        <pt x="186" y="941" on="1"/>
        <pt x="186" y="1252" on="0"/>
        <pt x="362" y="1372" on="1"/>
        <pt x="504" y="1468" on="0"/>
        <pt x="782" y="1468" on="1"/>
        <pt x="1274" y="1468" on="0"/>
        <pt x="1345" y="1102" on="1"/>
        <pt x="1360" y="1025" on="0"/>
        <pt x="1360" y="928" on="1"/>
        <pt x="1360" y="500" on="1"/>
        <pt x="1360" y="198" on="0"/>
        <pt x="1187" y="76" on="1"/>
        <pt x="1048" y="-22" on="0"/>
        <pt x="542" y="-22" on="0"/>
      </contour>
    </TTGlyph>
    <TTGlyph name="OE" xMin="182" yMin="0" xMax="1399" yMax="1446">
      <contour>
        <pt x="775" y="0" on="1"/>
        <pt x="372" y="0" on="0"/>
        <pt x="252" y="201" on="1"/>
        <pt x="182" y="317" on="0"/>
        <pt x="183" y="510" on="1"/>
        <pt x="183" y="918" on="1"/>
        <pt x="183" y="1229" on="0"/>
        <pt x="357" y="1349" on="1"/>
        <pt x="497" y="1446" on="0"/>
        <pt x="775" y="1446" on="1"/>
        <pt x="1390" y="1446" on="1"/>
        <pt x="1390" y="1296" on="1"/>
        <pt x="976" y="1296" on="1"/>
        <pt x="976" y="814" on="1"/>
        <pt x="1329" y="814" on="1"/>
        <pt x="1329" y="664" on="1"/>
        <pt x="976" y="664" on="1"/>
        <pt x="976" y="150" on="1"/>
        <pt x="1399" y="150" on="1"/>
        <pt x="1399" y="0" on="1"/>
      </contour>
      <contour>
        <pt x="765" y="150" on="1"/>
        <pt x="775" y="150" on="1"/>
        <pt x="775" y="1295" on="1"/>
        <pt x="764" y="1295" on="1"/>
        <pt x="572" y="1295" on="0"/>
        <pt x="385" y="1139" on="0"/>
        <pt x="385" y="955" on="1"/>
        <pt x="385" y="479" on="1"/>
        <pt x="385" y="296" on="0"/>
        <pt x="569" y="150" on="0"/>
      </contour>
    </TTGlyph>
    <TTGlyph name="Oacute" xMin="186" yMin="-22" xMax="1360" yMax="1972">
      <component glyphName="acute" x="587" y="466" flags="0x1004"/>
      <component glyphName="O" x="0" y="0" flags="0x1204"/>
    </TTGlyph>
    <TTGlyph name="Obreve" xMin="186" yMin="-22" xMax="1360" yMax="1843">
      <component glyphName="breve" x="517" y="337" flags="0x1004"/>
      <component glyphName="O" x="0" y="0" flags="0x1204"/>
    </TTGlyph>
    <TTGlyph name="Ocircumflex" xMin="186" yMin="-22" xMax="1360" yMax="1897">
      <component glyphName="circumflex" x="517" y="391" flags="0x1004"/>
      <component glyphName="O" x="0" y="0" flags="0x1204"/>
    </TTGlyph>
    <TTGlyph name="Odieresis" xMin="186" yMin="-22" xMax="1360" yMax="1812">
      <component glyphName="dieresis" x="260" y="366" flags="0x1004"/>
      <component glyphName="O" x="0" y="0" flags="0x1204"/>
    </TTGlyph>
    <TTGlyph name="Ograve" xMin="186" yMin="-22" xMax="1360" yMax="1972">
      <component glyphName="grave" x="348" y="466" flags="0x1004"/>
      <component glyphName="O" x="0" y="0" flags="0x1204"/>
    </TTGlyph>
    <TTGlyph name="Ohungarumlaut" xMin="186" yMin="-22" xMax="1360" yMax="2106">
      <component glyphName="hungarumlaut" x="409" y="600" flags="0x1004"/>
      <component glyphName="O" x="0" y="0" flags="0x1204"/>
    </TTGlyph>
    <TTGlyph name="Omacron" xMin="186" yMin="-22" xMax="1360" yMax="1783">
      <component glyphName="uni02C9" x="516" y="277" flags="0x1004"/>
      <component glyphName="O" x="0" y="0" flags="0x1204"/>
    </TTGlyph>
    <TTGlyph name="Oslash" xMin="186" yMin="-195" xMax="1360" yMax="1676">
      <contour>
        <pt x="445" y="29" on="1"/>
        <pt x="288" y="92" on="0"/>
        <pt x="233" y="221" on="1"/>
        <pt x="186" y="332" on="0"/>
        <pt x="186" y="486" on="1"/>
        <pt x="186" y="941" on="1"/>
        <pt x="186" y="1252" on="0"/>
        <pt x="362" y="1372" on="1"/>
        <pt x="504" y="1468" on="0"/>
        <pt x="782" y="1468" on="1"/>
        <pt x="886" y="1468" on="0"/>
        <pt x="971" y="1452" on="1"/>
        <pt x="1054" y="1676" on="1"/>
        <pt x="1158" y="1638" on="1"/>
        <pt x="1078" y="1422" on="1"/>
        <pt x="1299" y="1338" on="0"/>
        <pt x="1345" y="1102" on="1"/>
        <pt x="1360" y="1025" on="0"/>
        <pt x="1360" y="928" on="1"/>
        <pt x="1360" y="500" on="1"/>
        <pt x="1360" y="198" on="0"/>
        <pt x="1187" y="76" on="1"/>
        <pt x="1048" y="-22" on="0"/>
        <pt x="795" y="-22" on="1"/>
        <pt x="654" y="-22" on="0"/>
        <pt x="551" y="-1" on="1"/>
        <pt x="479" y="-195" on="1"/>
        <pt x="376" y="-157" on="1"/>
      </contour>
      <contour>
        <pt x="979" y="140" on="0"/>
        <pt x="1159" y="267" on="0"/>
        <pt x="1159" y="455" on="1"/>
        <pt x="1159" y="978" on="1"/>
        <pt x="1159" y="1166" on="0"/>
        <pt x="1069" y="1236" on="1"/>
        <pt x="1048" y="1253" on="0"/>
        <pt x="1020" y="1265" on="1"/>
        <pt x="609" y="156" on="1"/>
        <pt x="683" y="140" on="0"/>
        <pt x="782" y="140" on="1"/>
      </contour>
      <contour>
        <pt x="914" y="1296" on="1"/>
        <pt x="856" y="1306" on="0"/>
        <pt x="782" y="1306" on="1"/>
        <pt x="478" y="1306" on="0"/>
        <pt x="413" y="1138" on="1"/>
        <pt x="388" y="1074" on="0"/>
        <pt x="388" y="978" on="1"/>
        <pt x="388" y="455" on="1"/>
        <pt x="388" y="256" on="0"/>
        <pt x="505" y="193" on="1"/>
      </contour>
    </TTGlyph>
    <TTGlyph name="Otilde" xMin="186" yMin="-22" xMax="1360" yMax="1874">
      <component glyphName="tilde" x="518" y="368" flags="0x1004"/>
      <component glyphName="O" x="0" y="0" flags="0x1204"/>
    </TTGlyph>
    <TTGlyph name="P" xMin="218" yMin="0" xMax="1198" yMax="1446">
      <contour>
        <pt x="218" y="0" on="1"/>
        <pt x="218" y="1446" on="1"/>
        <pt x="796" y="1446" on="1"/>
        <pt x="1198" y="1446" on="0"/>
        <pt x="1198" y="991" on="1"/>
        <pt x="1198" y="743" on="0"/>
        <pt x="989" y="529" on="0"/>
        <pt x="793" y="529" on="1"/>
        <pt x="420" y="529" on="1"/>
        <pt x="420" y="0" on="1"/>
      </contour>
      <contour>
        <pt x="420" y="682" on="1"/>
        <pt x="797" y="682" on="1"/>
        <pt x="974" y="682" on="0"/>
        <pt x="992" y="888" on="1"/>
        <pt x="996" y="926" on="0"/>
        <pt x="996" y="978" on="1"/>
        <pt x="996" y="1153" on="0"/>
        <pt x="901" y="1293" on="0"/>
        <pt x="802" y="1293" on="1"/>
        <pt x="420" y="1293" on="1"/>
      </contour>
    </TTGlyph>
    <TTGlyph name="Q" xMin="186" yMin="-384" xMax="1360" yMax="1468">
      <contour>
        <pt x="979" y="140" on="0"/>
        <pt x="1159" y="267" on="0"/>
        <pt x="1159" y="455" on="1"/>
        <pt x="1159" y="978" on="1"/>
        <pt x="1159" y="1166" on="0"/>
        <pt x="978" y="1306" on="0"/>
        <pt x="782" y="1306" on="1"/>
        <pt x="478" y="1306" on="0"/>
        <pt x="413" y="1138" on="1"/>
        <pt x="388" y="1074" on="0"/>
        <pt x="388" y="978" on="1"/>
        <pt x="388" y="455" on="1"/>
        <pt x="388" y="268" on="0"/>
        <pt x="584" y="140" on="0"/>
      </contour>
      <contour>
        <pt x="895" y="-17" on="1"/>
        <pt x="1085" y="-308" on="1"/>
        <pt x="944" y="-384" on="1"/>
        <pt x="714" y="-21" on="1"/>
        <pt x="436" y="-9" on="0"/>
        <pt x="186" y="231" on="0"/>
        <pt x="186" y="486" on="1"/>
        <pt x="186" y="941" on="1"/>
        <pt x="186" y="1252" on="0"/>
        <pt x="362" y="1372" on="1"/>
        <pt x="504" y="1468" on="0"/>
        <pt x="782" y="1468" on="1"/>
        <pt x="1274" y="1468" on="0"/>
        <pt x="1345" y="1102" on="1"/>
        <pt x="1360" y="1025" on="0"/>
        <pt x="1360" y="928" on="1"/>
        <pt x="1360" y="500" on="1"/>
        <pt x="1360" y="198" on="0"/>
        <pt x="1187" y="76" on="1"/>
        <pt x="1080" y="1" on="0"/>
      </contour>
    </TTGlyph>
    <TTGlyph name="R" xMin="218" yMin="0" xMax="1370" yMax="1446">
      <contour>
        <pt x="218" y="0" on="1"/>
        <pt x="218" y="1446" on="1"/>
        <pt x="863" y="1446" on="1"/>
        <pt x="1162" y="1446" on="0"/>
        <pt x="1238" y="1220" on="1"/>
        <pt x="1266" y="1136" on="0"/>
        <pt x="1267" y="905" on="0"/>
        <pt x="1213" y="748" on="0"/>
        <pt x="1128" y="663" on="0"/>
        <pt x="1063" y="636" on="1"/>
        <pt x="1370" y="0" on="1"/>
        <pt x="1163" y="0" on="1"/>
        <pt x="876" y="600" on="1"/>
        <pt x="420" y="599" on="1"/>
        <pt x="420" y="0" on="1"/>
      </contour>
      <contour>
        <pt x="420" y="752" on="1"/>
        <pt x="846" y="752" on="1"/>
        <pt x="974" y="752" on="0"/>
        <pt x="1065" y="890" on="0"/>
        <pt x="1065" y="1016" on="1"/>
        <pt x="1064" y="1242" on="0"/>
        <pt x="946" y="1282" on="1"/>
        <pt x="912" y="1294" on="0"/>
        <pt x="869" y="1293" on="1"/>
        <pt x="420" y="1293" on="1"/>
      </contour>
    </TTGlyph>
    <TTGlyph name="Racute" xMin="218" yMin="0" xMax="1370" yMax="1972">
      <component glyphName="acute" x="608" y="466" flags="0x1004"/>
      <component glyphName="R" x="0" y="0" flags="0x1204"/>
    </TTGlyph>
    <TTGlyph name="Rcaron" xMin="218" yMin="0" xMax="1370" yMax="1897">
      <component glyphName="caron" x="538" y="391" flags="0x1004"/>
      <component glyphName="R" x="0" y="0" flags="0x1204"/>
    </TTGlyph>
    <TTGlyph name="Rcommaaccent" xMin="218" yMin="-734" xMax="1370" yMax="1446">
      <component glyphName="uni0326" x="410" y="-70" flags="0x1004"/>
      <component glyphName="R" x="0" y="0" flags="0x1204"/>
    </TTGlyph>
    <TTGlyph name="S" xMin="144" yMin="-22" xMax="1164" yMax="1468">
      <contour>
        <pt x="1164" y="406" on="1"/>
        <pt x="1164" y="-22" on="0"/>
        <pt x="691" y="-22" on="1"/>
        <pt x="377" y="-22" on="0"/>
        <pt x="144" y="113" on="1"/>
        <pt x="215" y="267" on="1"/>
        <pt x="305" y="214" on="0"/>
        <pt x="562" y="140" on="0"/>
        <pt x="805" y="140" on="0"/>
        <pt x="867" y="171" on="1"/>
        <pt x="978" y="227" on="0"/>
        <pt x="978" y="399" on="1"/>
        <pt x="978" y="470" on="0"/>
        <pt x="971" y="494" on="1"/>
        <pt x="948" y="574" on="0"/>
        <pt x="802" y="620" on="1"/>
        <pt x="453" y="736" on="1"/>
        <pt x="284" y="791" on="0"/>
        <pt x="171" y="960" on="0"/>
        <pt x="171" y="1092" on="1"/>
        <pt x="172" y="1282" on="0"/>
        <pt x="310" y="1382" on="1"/>
        <pt x="429" y="1467" on="0"/>
        <pt x="656" y="1468" on="1"/>
        <pt x="979" y="1468" on="0"/>
        <pt x="1141" y="1367" on="1"/>
        <pt x="1092" y="1210" on="1"/>
        <pt x="914" y="1306" on="0"/>
        <pt x="691" y="1306" on="1"/>
        <pt x="536" y="1306" on="0"/>
        <pt x="374" y="1226" on="0"/>
        <pt x="368" y="1137" on="1"/>
        <pt x="366" y="1109" on="0"/>
        <pt x="366" y="1087" on="1"/>
        <pt x="366" y="1015" on="0"/>
        <pt x="427" y="937" on="0"/>
        <pt x="515" y="907" on="1"/>
        <pt x="879" y="784" on="1"/>
        <pt x="1029" y="733" on="0"/>
        <pt x="1164" y="568" on="0"/>
      </contour>
    </TTGlyph>
    <TTGlyph name="Sacute" xMin="144" yMin="-22" xMax="1164" yMax="1972">
      <component glyphName="acute" x="468" y="466" flags="0x1004"/>
      <component glyphName="S" x="0" y="0" flags="0x1204"/>
    </TTGlyph>
    <TTGlyph name="Scaron" xMin="144" yMin="-22" xMax="1164" yMax="1897">
      <component glyphName="caron" x="398" y="391" flags="0x1004"/>
      <component glyphName="S" x="0" y="0" flags="0x1204"/>
    </TTGlyph>
    <TTGlyph name="Scedilla" xMin="144" yMin="-492" xMax="1164" yMax="1468">
      <component glyphName="cedilla" x="424" y="-6" flags="0x1004"/>
      <component glyphName="S" x="0" y="0" flags="0x1204"/>
    </TTGlyph>
    <TTGlyph name="Scircumflex" xMin="144" yMin="-22" xMax="1164" yMax="1897">
      <component glyphName="circumflex" x="398" y="391" flags="0x1004"/>
      <component glyphName="S" x="0" y="0" flags="0x1204"/>
    </TTGlyph>
    <TTGlyph name="Scommaaccent" xMin="144" yMin="-756" xMax="1164" yMax="1468">
      <component glyphName="uni0326" x="270" y="-92" flags="0x1004"/>
      <component glyphName="S" x="0" y="0" flags="0x1204"/>
    </TTGlyph>
    <TTGlyph name="T" xMin="84" yMin="0" xMax="1120" yMax="1446">
      <contour>
        <pt x="501" y="0" on="1"/>
        <pt x="501" y="1281" on="1"/>
        <pt x="84" y="1281" on="1"/>
        <pt x="84" y="1446" on="1"/>
        <pt x="1120" y="1446" on="1"/>
        <pt x="1120" y="1281" on="1"/>
        <pt x="702" y="1281" on="1"/>
        <pt x="702" y="0" on="1"/>
      </contour>
    </TTGlyph>
    <TTGlyph name="Tbar" xMin="84" yMin="0" xMax="1120" yMax="1446">
      <contour>
        <pt x="232" y="688" on="1"/>
        <pt x="232" y="817" on="1"/>
        <pt x="501" y="817" on="1"/>
        <pt x="501" y="1281" on="1"/>
        <pt x="84" y="1281" on="1"/>
        <pt x="84" y="1446" on="1"/>
        <pt x="1120" y="1446" on="1"/>
        <pt x="1120" y="1281" on="1"/>
        <pt x="702" y="1281" on="1"/>
        <pt x="702" y="817" on="1"/>
        <pt x="948" y="817" on="1"/>
        <pt x="948" y="688" on="1"/>
        <pt x="702" y="688" on="1"/>
        <pt x="702" y="0" on="1"/>
        <pt x="501" y="0" on="1"/>
        <pt x="501" y="688" on="1"/>
      </contour>
    </TTGlyph>
    <TTGlyph name="Tcaron" xMin="84" yMin="0" xMax="1120" yMax="1897">
      <component glyphName="caron" x="346" y="391" flags="0x1004"/>
      <component glyphName="T" x="0" y="0" flags="0x1204"/>
    </TTGlyph>
    <TTGlyph name="Tcommaaccent" xMin="84" yMin="-470" xMax="1120" yMax="1446">
      <component glyphName="cedilla" x="372" y="16" flags="0x1004"/>
      <component glyphName="T" x="0" y="0" flags="0x1204"/>
    </TTGlyph>
    <TTGlyph name="Thorn" xMin="212" yMin="0" xMax="1192" yMax="1446">
      <contour>
        <pt x="212" y="0" on="1"/>
        <pt x="212" y="1446" on="1"/>
        <pt x="414" y="1446" on="1"/>
        <pt x="414" y="1208" on="1"/>
        <pt x="788" y="1208" on="1"/>
        <pt x="1088" y="1208" on="0"/>
        <pt x="1164" y="980" on="1"/>
        <pt x="1192" y="894" on="0"/>
        <pt x="1192" y="770" on="1"/>
        <pt x="1192" y="521" on="0"/>
        <pt x="979" y="331" on="0"/>
        <pt x="787" y="331" on="1"/>
        <pt x="414" y="331" on="1"/>
        <pt x="414" y="0" on="1"/>
      </contour>
      <contour>
        <pt x="414" y="484" on="1"/>
        <pt x="791" y="484" on="1"/>
        <pt x="917" y="484" on="0"/>
        <pt x="990" y="637" on="0"/>
        <pt x="990" y="809" on="0"/>
        <pt x="987" y="845" on="1"/>
        <pt x="979" y="944" on="0"/>
        <pt x="893" y="1055" on="0"/>
        <pt x="794" y="1055" on="1"/>
        <pt x="414" y="1055" on="1"/>
      </contour>
    </TTGlyph>
    <TTGlyph name="U" xMin="200" yMin="-22" xMax="1338" yMax="1446">
      <contour>
        <pt x="776" y="-22" on="1"/>
        <pt x="390" y="-22" on="0"/>
        <pt x="268" y="182" on="1"/>
        <pt x="200" y="296" on="0"/>
        <pt x="200" y="473" on="1"/>
        <pt x="200" y="1446" on="1"/>
        <pt x="402" y="1446" on="1"/>
        <pt x="402" y="452" on="1"/>
        <pt x="402" y="180" on="0"/>
        <pt x="662" y="146" on="1"/>
        <pt x="713" y="140" on="0"/>
        <pt x="788" y="140" on="1"/>
        <pt x="942" y="140" on="0"/>
        <pt x="1136" y="260" on="0"/>
        <pt x="1136" y="452" on="1"/>
        <pt x="1136" y="1446" on="1"/>
        <pt x="1338" y="1446" on="1"/>
        <pt x="1338" y="473" on="1"/>
        <pt x="1338" y="192" on="0"/>
        <pt x="1172" y="74" on="1"/>
        <pt x="1036" y="-22" on="0"/>
      </contour>
    </TTGlyph>
    <TTGlyph name="Uacute" xMin="200" yMin="-22" xMax="1338" yMax="1972">
      <component glyphName="acute" x="583" y="466" flags="0x1004"/>
      <component glyphName="U" x="0" y="0" flags="0x1204"/>
    </TTGlyph>
    <TTGlyph name="Ubreve" xMin="200" yMin="-22" xMax="1338" yMax="1843">
      <component glyphName="breve" x="513" y="337" flags="0x1004"/>
      <component glyphName="U" x="0" y="0" flags="0x1204"/>
    </TTGlyph>
    <TTGlyph name="Ucircumflex" xMin="200" yMin="-22" xMax="1338" yMax="1897">
      <component glyphName="circumflex" x="513" y="391" flags="0x1004"/>
      <component glyphName="U" x="0" y="0" flags="0x1204"/>
    </TTGlyph>
    <TTGlyph name="Udieresis" xMin="200" yMin="-22" xMax="1338" yMax="1812">
      <component glyphName="dieresis" x="256" y="366" flags="0x1004"/>
      <component glyphName="U" x="0" y="0" flags="0x1204"/>
    </TTGlyph>
    <TTGlyph name="Ugrave" xMin="200" yMin="-22" xMax="1338" yMax="1972">
      <component glyphName="grave" x="344" y="466" flags="0x1004"/>
      <component glyphName="U" x="0" y="0" flags="0x1204"/>
    </TTGlyph>
    <TTGlyph name="Uhungarumlaut" xMin="200" yMin="-22" xMax="1338" yMax="2106">
      <component glyphName="hungarumlaut" x="405" y="600" flags="0x1004"/>
      <component glyphName="U" x="0" y="0" flags="0x1204"/>
    </TTGlyph>
    <TTGlyph name="Umacron" xMin="200" yMin="-22" xMax="1338" yMax="1783">
      <component glyphName="uni02C9" x="512" y="277" flags="0x1004"/>
      <component glyphName="U" x="0" y="0" flags="0x1204"/>
    </TTGlyph>
    <TTGlyph name="Uogonek" xMin="200" yMin="-492" xMax="1338" yMax="1446">
      <component glyphName="ogonek" x="446" y="-6" flags="0x1004"/>
      <component glyphName="U" x="0" y="0" flags="0x1204"/>
    </TTGlyph>
    <TTGlyph name="Uring" xMin="200" yMin="-22" xMax="1338" yMax="1987">
      <component glyphName="ring" x="513" y="481" flags="0x1004"/>
      <component glyphName="U" x="0" y="0" flags="0x1204"/>
    </TTGlyph>
    <TTGlyph name="Utilde" xMin="200" yMin="-22" xMax="1338" yMax="1874">
      <component glyphName="tilde" x="514" y="368" flags="0x1004"/>
      <component glyphName="U" x="0" y="0" flags="0x1204"/>
    </TTGlyph>
    <TTGlyph name="V" xMin="86" yMin="0" xMax="1300" yMax="1446">
      <contour>
        <pt x="602" y="0" on="1"/>
        <pt x="86" y="1446" on="1"/>
        <pt x="293" y="1446" on="1"/>
        <pt x="692" y="294" on="1"/>
        <pt x="1091" y="1446" on="1"/>
        <pt x="1300" y="1446" on="1"/>
        <pt x="779" y="0" on="1"/>
      </contour>
    </TTGlyph>
    <TTGlyph name="W" xMin="112" yMin="0" xMax="1936" yMax="1446">
      <contour>
        <pt x="522" y="0" on="1"/>
        <pt x="112" y="1446" on="1"/>
        <pt x="296" y="1446" on="1"/>
        <pt x="603" y="346" on="1"/>
        <pt x="918" y="1446" on="1"/>
        <pt x="1133" y="1446" on="1"/>
        <pt x="1462" y="346" on="1"/>
        <pt x="1753" y="1446" on="1"/>
        <pt x="1936" y="1446" on="1"/>
        <pt x="1542" y="0" on="1"/>
        <pt x="1390" y="0" on="1"/>
        <pt x="1037" y="1232" on="1"/>
        <pt x="674" y="0" on="1"/>
      </contour>
    </TTGlyph>
    <TTGlyph name="Wacute" xMin="112" yMin="0" xMax="1936" yMax="1972">
      <component glyphName="acute" x="838" y="466" flags="0x1004"/>
      <component glyphName="W" x="0" y="0" flags="0x1204"/>
    </TTGlyph>
    <TTGlyph name="Wcircumflex" xMin="112" yMin="0" xMax="1936" yMax="1897">
      <component glyphName="circumflex" x="768" y="391" flags="0x1004"/>
      <component glyphName="W" x="0" y="0" flags="0x1204"/>
    </TTGlyph>
    <TTGlyph name="Wdieresis" xMin="112" yMin="0" xMax="1936" yMax="1812">
      <component glyphName="dieresis" x="512" y="366" flags="0x1004"/>
      <component glyphName="W" x="0" y="0" flags="0x1204"/>
    </TTGlyph>
    <TTGlyph name="Wgrave" xMin="112" yMin="0" xMax="1936" yMax="1972">
      <component glyphName="grave" x="599" y="466" flags="0x1004"/>
      <component glyphName="W" x="0" y="0" flags="0x1204"/>
    </TTGlyph>
    <TTGlyph name="X" xMin="94" yMin="0" xMax="1242" yMax="1446">
      <contour>
        <pt x="94" y="0" on="1"/>
        <pt x="565" y="731" on="1"/>
        <pt x="116" y="1446" on="1"/>
        <pt x="319" y="1446" on="1"/>
        <pt x="669" y="898" on="1"/>
        <pt x="1010" y="1446" on="1"/>
        <pt x="1227" y="1446" on="1"/>
        <pt x="773" y="734" on="1"/>
        <pt x="1242" y="0" on="1"/>
        <pt x="1024" y="0" on="1"/>
        <pt x="667" y="568" on="1"/>
        <pt x="306" y="0" on="1"/>
      </contour>
    </TTGlyph>
    <TTGlyph name="Y" xMin="48" yMin="0" xMax="1270" yMax="1446">
      <contour>
        <pt x="560" y="0" on="1"/>
        <pt x="560" y="568" on="1"/>
        <pt x="48" y="1446" on="1"/>
        <pt x="261" y="1446" on="1"/>
        <pt x="661" y="744" on="1"/>
        <pt x="1063" y="1446" on="1"/>
        <pt x="1270" y="1446" on="1"/>
        <pt x="761" y="568" on="1"/>
        <pt x="761" y="0" on="1"/>
      </contour>
    </TTGlyph>
    <TTGlyph name="Yacute" xMin="48" yMin="0" xMax="1270" yMax="1972">
      <component glyphName="acute" x="473" y="466" flags="0x1004"/>
      <component glyphName="Y" x="0" y="0" flags="0x1204"/>
    </TTGlyph>
    <TTGlyph name="Ycircumflex" xMin="48" yMin="0" xMax="1270" yMax="1897">
      <component glyphName="circumflex" x="403" y="391" flags="0x1004"/>
      <component glyphName="Y" x="0" y="0" flags="0x1204"/>
    </TTGlyph>
    <TTGlyph name="Ydieresis" xMin="48" yMin="0" xMax="1270" yMax="1812">
      <component glyphName="dieresis" x="146" y="366" flags="0x1004"/>
      <component glyphName="Y" x="0" y="0" flags="0x1204"/>
    </TTGlyph>
    <TTGlyph name="Ygrave" xMin="48" yMin="0" xMax="1270" yMax="1972">
      <component glyphName="grave" x="234" y="466" flags="0x1004"/>
      <component glyphName="Y" x="0" y="0" flags="0x1204"/>
    </TTGlyph>
    <TTGlyph name="Z" xMin="180" yMin="0" xMax="1096" yMax="1446">
      <contour>
        <pt x="180" y="0" on="1"/>
        <pt x="180" y="150" on="1"/>
        <pt x="862" y="1281" on="1"/>
        <pt x="211" y="1281" on="1"/>
        <pt x="211" y="1446" on="1"/>
        <pt x="1083" y="1446" on="1"/>
        <pt x="1083" y="1295" on="1"/>
        <pt x="402" y="165" on="1"/>
        <pt x="1096" y="165" on="1"/>
        <pt x="1096" y="0" on="1"/>
      </contour>
    </TTGlyph>
    <TTGlyph name="Zacute" xMin="180" yMin="0" xMax="1096" yMax="1972">
      <component glyphName="acute" x="452" y="466" flags="0x1004"/>
      <component glyphName="Z" x="0" y="0" flags="0x1204"/>
    </TTGlyph>
    <TTGlyph name="Zcaron" xMin="180" yMin="0" xMax="1096" yMax="1897">
      <component glyphName="caron" x="422" y="391" flags="0x1004"/>
      <component glyphName="Z" x="0" y="0" flags="0x1204"/>
    </TTGlyph>
    <TTGlyph name="Zdotaccent" xMin="180" yMin="0" xMax="1096" yMax="1837">
      <component glyphName="uni0307" x="428" y="354" flags="0x1004"/>
      <component glyphName="Z" x="0" y="0" flags="0x1204"/>
    </TTGlyph>
    <TTGlyph name="a" xMin="132" yMin="-22" xMax="1080" yMax="1080">
      <contour>
        <pt x="471" y="-22" on="1"/>
        <pt x="310" y="-22" on="0"/>
        <pt x="132" y="153" on="0"/>
        <pt x="132" y="283" on="1"/>
        <pt x="132" y="357" on="0"/>
        <pt x="163" y="406" on="1"/>
        <pt x="226" y="506" on="0"/>
        <pt x="539" y="597" on="1"/>
        <pt x="720" y="647" on="0"/>
        <pt x="775" y="719" on="0"/>
        <pt x="781" y="760" on="0"/>
        <pt x="781" y="850" on="0"/>
        <pt x="708" y="936" on="0"/>
        <pt x="586" y="936" on="1"/>
        <pt x="414" y="936" on="0"/>
        <pt x="375" y="870" on="1"/>
        <pt x="355" y="836" on="0"/>
        <pt x="355" y="778" on="1"/>
        <pt x="355" y="731" on="1"/>
        <pt x="174" y="731" on="1"/>
        <pt x="174" y="779" on="1"/>
        <pt x="174" y="934" on="0"/>
        <pt x="381" y="1080" on="0"/>
        <pt x="793" y="1080" on="0"/>
        <pt x="969" y="893" on="0"/>
        <pt x="969" y="720" on="1"/>
        <pt x="969" y="268" on="1"/>
        <pt x="969" y="185" on="0"/>
        <pt x="1011" y="136" on="0"/>
        <pt x="1080" y="136" on="1"/>
        <pt x="1058" y="-8" on="1"/>
        <pt x="1020" y="-8" on="1"/>
        <pt x="920" y="-8" on="0"/>
        <pt x="822" y="69" on="0"/>
        <pt x="796" y="150" on="1"/>
        <pt x="713" y="26" on="0"/>
        <pt x="596" y="-6" on="1"/>
        <pt x="540" y="-22" on="0"/>
      </contour>
      <contour>
        <pt x="423" y="427" on="0"/>
        <pt x="314" y="345" on="0"/>
        <pt x="314" y="196" on="0"/>
        <pt x="415" y="120" on="0"/>
        <pt x="558" y="120" on="0"/>
        <pt x="674" y="157" on="0"/>
        <pt x="767" y="230" on="0"/>
        <pt x="781" y="277" on="1"/>
        <pt x="781" y="583" on="1"/>
        <pt x="708" y="510" on="0"/>
      </contour>
    </TTGlyph>
    <TTGlyph name="aacute" xMin="132" yMin="-22" xMax="1080" yMax="1584">
      <component glyphName="acute" x="420" y="78" flags="0x1004"/>
      <component glyphName="a" x="0" y="0" flags="0x1204"/>
    </TTGlyph>
    <TTGlyph name="abreve" xMin="132" yMin="-22" xMax="1080" yMax="1455">
      <component glyphName="breve" x="350" y="-51" flags="0x1004"/>
      <component glyphName="a" x="0" y="0" flags="0x1204"/>
    </TTGlyph>
    <TTGlyph name="acircumflex" xMin="132" yMin="-22" xMax="1080" yMax="1509">
      <component glyphName="circumflex" x="350" y="3" flags="0x1004"/>
      <component glyphName="a" x="0" y="0" flags="0x1204"/>
    </TTGlyph>
    <TTGlyph name="acute" xMin="133" yMin="1165" xMax="478" yMax="1506">
      <contour>
        <pt x="133" y="1165" on="1"/>
        <pt x="253" y="1506" on="1"/>
        <pt x="478" y="1506" on="1"/>
        <pt x="239" y="1165" on="1"/>
      </contour>
    </TTGlyph>
    <TTGlyph name="adieresis" xMin="132" yMin="-22" xMax="1080" yMax="1424">
      <component glyphName="dieresis" x="94" y="-22" flags="0x1004"/>
      <component glyphName="a" x="0" y="0" flags="0x1204"/>
    </TTGlyph>
    <TTGlyph name="ae" xMin="131" yMin="-20" xMax="1609" yMax="1080">
      <contour>
        <pt x="785" y="759" on="1"/>
        <pt x="785" y="940" on="0"/>
        <pt x="416" y="940" on="0"/>
        <pt x="377" y="856" on="1"/>
        <pt x="353" y="806" on="0"/>
        <pt x="353" y="745" on="1"/>
        <pt x="353" y="718" on="1"/>
        <pt x="172" y="718" on="1"/>
        <pt x="172" y="746" on="1"/>
        <pt x="172" y="905" on="0"/>
        <pt x="384" y="1080" on="0"/>
        <pt x="590" y="1080" on="1"/>
        <pt x="699" y="1080" on="0"/>
        <pt x="860" y="1008" on="0"/>
        <pt x="887" y="939" on="1"/>
        <pt x="976" y="1080" on="0"/>
        <pt x="1401" y="1080" on="0"/>
        <pt x="1609" y="912" on="0"/>
        <pt x="1609" y="758" on="1"/>
        <pt x="1609" y="511" on="1"/>
        <pt x="973" y="511" on="1"/>
        <pt x="973" y="328" on="1"/>
        <pt x="973" y="222" on="0"/>
        <pt x="1079" y="121" on="0"/>
        <pt x="1299" y="121" on="0"/>
        <pt x="1352" y="141" on="0"/>
        <pt x="1368" y="151" on="1"/>
        <pt x="1425" y="187" on="0"/>
        <pt x="1433" y="318" on="1"/>
        <pt x="1603" y="318" on="1"/>
        <pt x="1587" y="125" on="0"/>
        <pt x="1408" y="-20" on="0"/>
        <pt x="1189" y="-20" on="1"/>
        <pt x="1054" y="-20" on="0"/>
        <pt x="913" y="72" on="0"/>
        <pt x="878" y="158" on="1"/>
        <pt x="731" y="-20" on="0"/>
        <pt x="469" y="-20" on="1"/>
        <pt x="308" y="-20" on="0"/>
        <pt x="131" y="153" on="0"/>
        <pt x="131" y="440" on="0"/>
        <pt x="326" y="576" on="0"/>
        <pt x="506" y="604" on="1"/>
        <pt x="685" y="632" on="0"/>
        <pt x="725" y="644" on="1"/>
        <pt x="785" y="660" on="0"/>
      </contour>
      <contour>
        <pt x="322" y="350" on="0"/>
        <pt x="312" y="309" on="0"/>
        <pt x="312" y="226" on="0"/>
        <pt x="336" y="187" on="1"/>
        <pt x="382" y="113" on="0"/>
        <pt x="504" y="113" on="1"/>
        <pt x="626" y="112" on="0"/>
        <pt x="723" y="188" on="1"/>
        <pt x="771" y="226" on="0"/>
        <pt x="785" y="273" on="1"/>
        <pt x="785" y="547" on="1"/>
        <pt x="730" y="514" on="0"/>
        <pt x="518" y="478" on="0"/>
        <pt x="437" y="455" on="0"/>
        <pt x="382" y="425" on="0"/>
        <pt x="343" y="391" on="0"/>
      </contour>
      <contour>
        <pt x="973" y="633" on="1"/>
        <pt x="1437" y="633" on="1"/>
        <pt x="1437" y="778" on="1"/>
        <pt x="1437" y="868" on="0"/>
        <pt x="1315" y="938" on="0"/>
        <pt x="1081" y="938" on="0"/>
        <pt x="973" y="856" on="0"/>
        <pt x="973" y="760" on="1"/>
      </contour>
    </TTGlyph>
    <TTGlyph name="agrave" xMin="132" yMin="-22" xMax="1080" yMax="1584">
      <component glyphName="grave" x="181" y="78" flags="0x1004"/>
      <component glyphName="a" x="0" y="0" flags="0x1204"/>
    </TTGlyph>
    <TTGlyph name="amacron" xMin="132" yMin="-22" xMax="1080" yMax="1395">
      <component glyphName="uni02C9" x="350" y="-111" flags="0x1004"/>
      <component glyphName="a" x="0" y="0" flags="0x1204"/>
    </TTGlyph>
    <TTGlyph name="ampersand" xMin="176" yMin="-24" xMax="1432" yMax="1483">
      <contour>
        <pt x="176" y="436" on="1"/>
        <pt x="176" y="594" on="0"/>
        <pt x="297" y="774" on="0"/>
        <pt x="439" y="816" on="1"/>
        <pt x="376" y="873" on="0"/>
        <pt x="344" y="911" on="1"/>
        <pt x="264" y="1005" on="0"/>
        <pt x="264" y="1142" on="1"/>
        <pt x="264" y="1483" on="0"/>
        <pt x="689" y="1483" on="1"/>
        <pt x="870" y="1483" on="0"/>
        <pt x="1022" y="1436" on="0"/>
        <pt x="1054" y="1405" on="1"/>
        <pt x="1124" y="1339" on="0"/>
        <pt x="1124" y="1205" on="1"/>
        <pt x="1124" y="1104" on="1"/>
        <pt x="958" y="1104" on="1"/>
        <pt x="958" y="1164" on="1"/>
        <pt x="958" y="1265" on="0"/>
        <pt x="850" y="1331" on="0"/>
        <pt x="628" y="1331" on="0"/>
        <pt x="526" y="1301" on="0"/>
        <pt x="454" y="1219" on="0"/>
        <pt x="454" y="1070" on="0"/>
        <pt x="506" y="982" on="0"/>
        <pt x="578" y="907" on="1"/>
        <pt x="1100" y="410" on="1"/>
        <pt x="1101" y="424" on="0"/>
        <pt x="1101" y="455" on="1"/>
        <pt x="1101" y="778" on="1"/>
        <pt x="1276" y="778" on="1"/>
        <pt x="1276" y="500" on="1"/>
        <pt x="1276" y="340" on="0"/>
        <pt x="1257" y="261" on="1"/>
        <pt x="1432" y="94" on="1"/>
        <pt x="1328" y="-19" on="1"/>
        <pt x="1186" y="114" on="1"/>
        <pt x="1066" y="-24" on="0"/>
        <pt x="712" y="-24" on="1"/>
        <pt x="176" y="-24" on="0"/>
      </contour>
      <contour>
        <pt x="378" y="284" on="0"/>
        <pt x="534" y="126" on="0"/>
        <pt x="876" y="126" on="0"/>
        <pt x="1027" y="164" on="0"/>
        <pt x="1063" y="230" on="1"/>
        <pt x="538" y="723" on="1"/>
        <pt x="391" y="683" on="0"/>
        <pt x="380" y="517" on="1"/>
        <pt x="378" y="488" on="0"/>
        <pt x="378" y="445" on="1"/>
      </contour>
    </TTGlyph>
    <TTGlyph name="aogonek" xMin="132" yMin="-486" xMax="1095" yMax="1080">
      <component glyphName="ogonek" x="692" y="0" flags="0x1004"/>
      <component glyphName="a" x="0" y="0" flags="0x1004"/>
    </TTGlyph>
    <TTGlyph name="approxequal" xMin="64" yMin="635" xMax="817" yMax="1204">
      <contour>
        <pt x="367" y="898" on="0"/>
        <pt x="573" y="781" on="0"/>
        <pt x="610" y="781" on="1"/>
        <pt x="720" y="781" on="0"/>
        <pt x="720" y="884" on="1"/>
        <pt x="817" y="884" on="1"/>
        <pt x="817" y="765" on="0"/>
        <pt x="695" y="635" on="0"/>
        <pt x="607" y="635" on="1"/>
        <pt x="520" y="635" on="0"/>
        <pt x="354" y="723" on="1"/>
        <pt x="300" y="752" on="0"/>
        <pt x="271" y="752" on="1"/>
        <pt x="161" y="752" on="0"/>
        <pt x="161" y="649" on="1"/>
        <pt x="64" y="649" on="1"/>
        <pt x="64" y="768" on="0"/>
        <pt x="186" y="898" on="0"/>
      </contour>
      <contour>
        <pt x="367" y="1204" on="0"/>
        <pt x="573" y="1087" on="0"/>
        <pt x="610" y="1087" on="1"/>
        <pt x="720" y="1087" on="0"/>
        <pt x="720" y="1190" on="1"/>
        <pt x="817" y="1190" on="1"/>
        <pt x="817" y="1071" on="0"/>
        <pt x="695" y="941" on="0"/>
        <pt x="607" y="941" on="1"/>
        <pt x="520" y="941" on="0"/>
        <pt x="354" y="1029" on="1"/>
        <pt x="300" y="1058" on="0"/>
        <pt x="271" y="1058" on="1"/>
        <pt x="161" y="1058" on="0"/>
        <pt x="161" y="955" on="1"/>
        <pt x="64" y="955" on="1"/>
        <pt x="64" y="1074" on="0"/>
        <pt x="186" y="1204" on="0"/>
      </contour>
    </TTGlyph>
    <TTGlyph name="aring" xMin="132" yMin="-22" xMax="1080" yMax="1599">
      <component glyphName="ring" x="350" y="93" flags="0x1004"/>
      <component glyphName="a" x="0" y="0" flags="0x1204"/>
    </TTGlyph>
    <TTGlyph name="asciicircum" xMin="154" yMin="626" xMax="1103" yMax="1283">
      <contour>
        <pt x="154" y="626" on="1"/>
        <pt x="513" y="1283" on="1"/>
        <pt x="735" y="1283" on="1"/>
        <pt x="1103" y="626" on="1"/>
        <pt x="910" y="626" on="1"/>
        <pt x="628" y="1161" on="1"/>
        <pt x="348" y="626" on="1"/>
      </contour>
    </TTGlyph>
    <TTGlyph name="asciitilde" xMin="64" yMin="1173" xMax="817" yMax="1466">
      <contour>
        <pt x="189" y="1173" on="0"/>
        <pt x="64" y="1330" on="0"/>
        <pt x="64" y="1452" on="1"/>
        <pt x="161" y="1452" on="1"/>
        <pt x="161" y="1398" on="0"/>
        <pt x="215" y="1319" on="0"/>
        <pt x="262" y="1319" on="1"/>
        <pt x="309" y="1320" on="0"/>
        <pt x="379" y="1370" on="1"/>
        <pt x="512" y="1466" on="0"/>
        <pt x="692" y="1466" on="0"/>
        <pt x="817" y="1309" on="0"/>
        <pt x="817" y="1187" on="1"/>
        <pt x="720" y="1187" on="1"/>
        <pt x="720" y="1241" on="0"/>
        <pt x="666" y="1320" on="0"/>
        <pt x="572" y="1320" on="0"/>
        <pt x="502" y="1270" on="1"/>
        <pt x="369" y="1174" on="0"/>
      </contour>
    </TTGlyph>
    <TTGlyph name="asterisk" xMin="99" yMin="599" xMax="925" yMax="1446">
      <contour>
        <pt x="423" y="599" on="1"/>
        <pt x="452" y="924" on="1"/>
        <pt x="179" y="750" on="1"/>
        <pt x="99" y="911" on="1"/>
        <pt x="389" y="1028" on="1"/>
        <pt x="109" y="1170" on="1"/>
        <pt x="204" y="1323" on="1"/>
        <pt x="451" y="1133" on="1"/>
        <pt x="423" y="1446" on="1"/>
        <pt x="601" y="1446" on="1"/>
        <pt x="571" y="1121" on="1"/>
        <pt x="844" y="1295" on="1"/>
        <pt x="925" y="1134" on="1"/>
        <pt x="634" y="1017" on="1"/>
        <pt x="914" y="875" on="1"/>
        <pt x="819" y="722" on="1"/>
        <pt x="572" y="912" on="1"/>
        <pt x="601" y="599" on="1"/>
      </contour>
    </TTGlyph>
    <TTGlyph name="at" xMin="362" yMin="-258" xMax="1792" yMax="1483">
      <contour>
        <pt x="1577" y="-198" on="0"/>
        <pt x="1261" y="-258" on="0"/>
        <pt x="908" y="-258" on="0"/>
        <pt x="616" y="-169" on="0"/>
        <pt x="530" y="-88" on="1"/>
        <pt x="362" y="70" on="0"/>
        <pt x="362" y="332" on="1"/>
        <pt x="362" y="895" on="1"/>
        <pt x="362" y="1232" on="0"/>
        <pt x="582" y="1374" on="1"/>
        <pt x="751" y="1482" on="0"/>
        <pt x="1062" y="1483" on="1"/>
        <pt x="1249" y="1483" on="0"/>
        <pt x="1417" y="1430" on="0"/>
        <pt x="1509" y="1389" on="0"/>
        <pt x="1573" y="1327" on="0"/>
        <pt x="1621" y="1273" on="0"/>
        <pt x="1676" y="1125" on="0"/>
        <pt x="1676" y="972" on="1"/>
        <pt x="1676" y="479" on="1"/>
        <pt x="1676" y="411" on="0"/>
        <pt x="1704" y="371" on="0"/>
        <pt x="1751" y="360" on="0"/>
        <pt x="1792" y="360" on="1"/>
        <pt x="1772" y="212" on="1"/>
        <pt x="1732" y="212" on="1"/>
        <pt x="1608" y="212" on="0"/>
        <pt x="1561" y="284" on="1"/>
        <pt x="1537" y="320" on="0"/>
        <pt x="1521" y="376" on="1"/>
        <pt x="1473" y="304" on="0"/>
        <pt x="1269" y="195" on="0"/>
        <pt x="941" y="195" on="0"/>
        <pt x="744" y="388" on="0"/>
        <pt x="744" y="533" on="1"/>
        <pt x="744" y="631" on="0"/>
        <pt x="821" y="735" on="0"/>
        <pt x="871" y="765" on="1"/>
        <pt x="978" y="829" on="0"/>
        <pt x="1496" y="955" on="0"/>
        <pt x="1497" y="955" on="1"/>
        <pt x="1497" y="1129" on="0"/>
        <pt x="1405" y="1268" on="0"/>
        <pt x="1221" y="1331" on="0"/>
        <pt x="1062" y="1331" on="1"/>
        <pt x="805" y="1331" on="0"/>
        <pt x="552" y="1145" on="0"/>
        <pt x="552" y="936" on="1"/>
        <pt x="552" y="298" on="1"/>
        <pt x="552" y="91" on="0"/>
        <pt x="843" y="-111" on="0"/>
        <pt x="1104" y="-111" on="1"/>
        <pt x="1253" y="-111" on="0"/>
        <pt x="1535" y="-54" on="0"/>
        <pt x="1621" y="-17" on="1"/>
        <pt x="1671" y="-158" on="1"/>
      </contour>
      <contour>
        <pt x="946" y="539" on="1"/>
        <pt x="946" y="343" on="0"/>
        <pt x="1156" y="343" on="1"/>
        <pt x="1256" y="343" on="0"/>
        <pt x="1474" y="445" on="0"/>
        <pt x="1497" y="522" on="1"/>
        <pt x="1497" y="825" on="1"/>
        <pt x="1484" y="819" on="0"/>
        <pt x="1104" y="721" on="0"/>
        <pt x="986" y="659" on="0"/>
        <pt x="946" y="591" on="0"/>
      </contour>
    </TTGlyph>
    <TTGlyph name="atilde" xMin="132" yMin="-22" xMax="1080" yMax="1486">
      <component glyphName="tilde" x="350" y="-20" flags="0x1004"/>
      <component glyphName="a" x="0" y="0" flags="0x1204"/>
    </TTGlyph>
    <TTGlyph name="b" xMin="186" yMin="-22" xMax="1056" yMax="1506">
      <contour>
        <pt x="374" y="1010" on="1"/>
        <pt x="498" y="1080" on="0"/>
        <pt x="848" y="1080" on="0"/>
        <pt x="1056" y="894" on="0"/>
        <pt x="1056" y="736" on="1"/>
        <pt x="1056" y="352" on="1"/>
        <pt x="1056" y="187" on="0"/>
        <pt x="828" y="-22" on="0"/>
        <pt x="626" y="-22" on="1"/>
        <pt x="498" y="-22" on="0"/>
        <pt x="349" y="71" on="1"/>
        <pt x="325" y="0" on="1"/>
        <pt x="186" y="0" on="1"/>
        <pt x="186" y="1506" on="1"/>
        <pt x="374" y="1506" on="1"/>
      </contour>
      <contour>
        <pt x="868" y="750" on="1"/>
        <pt x="868" y="936" on="0"/>
        <pt x="633" y="936" on="1"/>
        <pt x="518" y="936" on="0"/>
        <pt x="374" y="870" on="1"/>
        <pt x="374" y="188" on="1"/>
        <pt x="484" y="126" on="0"/>
        <pt x="713" y="126" on="0"/>
        <pt x="868" y="237" on="0"/>
        <pt x="868" y="332" on="1"/>
      </contour>
    </TTGlyph>
    <TTGlyph name="backslash" xMin="64" yMin="0" xMax="704" yMax="1506">
      <contour>
        <pt x="521" y="0" on="1"/>
        <pt x="64" y="1506" on="1"/>
        <pt x="251" y="1506" on="1"/>
        <pt x="704" y="0" on="1"/>
      </contour>
    </TTGlyph>
    <TTGlyph name="bar" xMin="256" yMin="-167" xMax="434" yMax="1555">
      <contour>
        <pt x="256" y="-167" on="1"/>
        <pt x="256" y="1555" on="1"/>
        <pt x="434" y="1555" on="1"/>
        <pt x="434" y="-167" on="1"/>
      </contour>
    </TTGlyph>
    <TTGlyph name="braceleft" xMin="158" yMin="-207" xMax="866" yMax="1506">
      <contour>
        <pt x="474" y="650" on="1"/>
        <pt x="578" y="599" on="0"/>
        <pt x="578" y="297" on="1"/>
        <pt x="578" y="235" on="1"/>
        <pt x="578" y="75" on="0"/>
        <pt x="602" y="24" on="0"/>
        <pt x="631" y="-18" on="0"/>
        <pt x="671" y="-34" on="0"/>
        <pt x="751" y="-56" on="0"/>
        <pt x="866" y="-56" on="1"/>
        <pt x="866" y="-207" on="1"/>
        <pt x="620" y="-206" on="0"/>
        <pt x="530" y="-152" on="1"/>
        <pt x="494" y="-130" on="0"/>
        <pt x="446" y="-95" on="0"/>
        <pt x="386" y="38" on="0"/>
        <pt x="386" y="203" on="1"/>
        <pt x="386" y="409" on="1"/>
        <pt x="386" y="442" on="0"/>
        <pt x="373" y="525" on="0"/>
        <pt x="359" y="546" on="0"/>
        <pt x="315" y="573" on="0"/>
        <pt x="268" y="574" on="0"/>
        <pt x="234" y="574" on="1"/>
        <pt x="158" y="574" on="1"/>
        <pt x="158" y="725" on="1"/>
        <pt x="256" y="725" on="1"/>
        <pt x="300" y="724" on="0"/>
        <pt x="346" y="742" on="1"/>
        <pt x="355" y="746" on="0"/>
        <pt x="386" y="808" on="0"/>
        <pt x="386" y="916" on="1"/>
        <pt x="386" y="1046" on="1"/>
        <pt x="386" y="1244" on="0"/>
        <pt x="400" y="1283" on="1"/>
        <pt x="436" y="1387" on="0"/>
        <pt x="470" y="1412" on="1"/>
        <pt x="548" y="1470" on="0"/>
        <pt x="614" y="1482" on="1"/>
        <pt x="732" y="1506" on="0"/>
        <pt x="866" y="1506" on="1"/>
        <pt x="866" y="1355" on="1"/>
        <pt x="688" y="1356" on="0"/>
        <pt x="642" y="1320" on="1"/>
        <pt x="626" y="1308" on="0"/>
        <pt x="616" y="1298" on="1"/>
        <pt x="578" y="1262" on="0"/>
        <pt x="578" y="1099" on="1"/>
        <pt x="578" y="1002" on="1"/>
        <pt x="578" y="701" on="0"/>
      </contour>
    </TTGlyph>
    <TTGlyph name="braceright" xMin="128" yMin="-207" xMax="836" yMax="1506">
      <contour>
        <pt x="520" y="649" on="1"/>
        <pt x="416" y="700" on="0"/>
        <pt x="416" y="1002" on="1"/>
        <pt x="416" y="1064" on="1"/>
        <pt x="416" y="1224" on="0"/>
        <pt x="392" y="1275" on="0"/>
        <pt x="363" y="1317" on="0"/>
        <pt x="323" y="1333" on="0"/>
        <pt x="243" y="1355" on="0"/>
        <pt x="128" y="1355" on="1"/>
        <pt x="128" y="1506" on="1"/>
        <pt x="374" y="1506" on="0"/>
        <pt x="464" y="1452" on="1"/>
        <pt x="500" y="1430" on="0"/>
        <pt x="548" y="1394" on="0"/>
        <pt x="608" y="1261" on="0"/>
        <pt x="608" y="1096" on="1"/>
        <pt x="608" y="890" on="1"/>
        <pt x="608" y="857" on="0"/>
        <pt x="621" y="774" on="0"/>
        <pt x="635" y="753" on="0"/>
        <pt x="679" y="726" on="0"/>
        <pt x="726" y="725" on="0"/>
        <pt x="760" y="725" on="1"/>
        <pt x="836" y="725" on="1"/>
        <pt x="836" y="574" on="1"/>
        <pt x="765" y="574" on="1"/>
        <pt x="726" y="574" on="0"/>
        <pt x="679" y="573" on="0"/>
        <pt x="635" y="546" on="0"/>
        <pt x="621" y="525" on="0"/>
        <pt x="608" y="442" on="0"/>
        <pt x="608" y="409" on="1"/>
        <pt x="608" y="253" on="1"/>
        <pt x="608" y="73" on="0"/>
        <pt x="588" y="-1" on="0"/>
        <pt x="564" y="-70" on="0"/>
        <pt x="528" y="-106" on="0"/>
        <pt x="477" y="-153" on="0"/>
        <pt x="406" y="-175" on="0"/>
        <pt x="279" y="-207" on="0"/>
        <pt x="128" y="-207" on="1"/>
        <pt x="128" y="-56" on="1"/>
        <pt x="243" y="-56" on="0"/>
        <pt x="323" y="-34" on="0"/>
        <pt x="363" y="-18" on="0"/>
        <pt x="416" y="59" on="0"/>
        <pt x="416" y="187" on="1"/>
        <pt x="416" y="297" on="1"/>
        <pt x="416" y="598" on="0"/>
      </contour>
    </TTGlyph>
    <TTGlyph name="bracketleft" xMin="256" yMin="-76" xMax="634" yMax="1529">
      <contour>
        <pt x="256" y="-76" on="1"/>
        <pt x="256" y="1529" on="1"/>
        <pt x="634" y="1529" on="1"/>
        <pt x="634" y="1396" on="1"/>
        <pt x="444" y="1396" on="1"/>
        <pt x="444" y="58" on="1"/>
        <pt x="634" y="58" on="1"/>
        <pt x="634" y="-76" on="1"/>
      </contour>
    </TTGlyph>
    <TTGlyph name="bracketright" xMin="195" yMin="-76" xMax="573" yMax="1529">
      <contour>
        <pt x="195" y="-76" on="1"/>
        <pt x="195" y="57" on="1"/>
        <pt x="385" y="57" on="1"/>
        <pt x="385" y="1395" on="1"/>
        <pt x="195" y="1395" on="1"/>
        <pt x="195" y="1529" on="1"/>
        <pt x="573" y="1529" on="1"/>
        <pt x="573" y="-76" on="1"/>
      </contour>
    </TTGlyph>
    <TTGlyph name="breve" xMin="30" yMin="1294" xMax="482" yMax="1506">
      <contour>
        <pt x="357" y="1294" on="0"/>
        <pt x="155" y="1294" on="0"/>
        <pt x="30" y="1417" on="0"/>
        <pt x="30" y="1506" on="1"/>
        <pt x="135" y="1506" on="1"/>
        <pt x="135" y="1456" on="0"/>
        <pt x="204" y="1390" on="0"/>
        <pt x="311" y="1390" on="0"/>
        <pt x="377" y="1454" on="0"/>
        <pt x="377" y="1506" on="1"/>
        <pt x="482" y="1506" on="1"/>
        <pt x="482" y="1417" on="0"/>
      </contour>
    </TTGlyph>
    <TTGlyph name="brokenbar" xMin="254" yMin="-167" xMax="432" yMax="1555">
      <contour>
        <pt x="254" y="-167" on="1"/>
        <pt x="254" y="513" on="1"/>
        <pt x="432" y="513" on="1"/>
        <pt x="432" y="-167" on="1"/>
      </contour>
      <contour>
        <pt x="254" y="848" on="1"/>
        <pt x="254" y="1555" on="1"/>
        <pt x="432" y="1555" on="1"/>
        <pt x="432" y="848" on="1"/>
      </contour>
    </TTGlyph>
    <TTGlyph name="bullet" xMin="180" yMin="298" xMax="795" yMax="901">
      <contour>
        <pt x="795" y="448" on="0"/>
        <pt x="651" y="298" on="0"/>
        <pt x="322" y="298" on="0"/>
        <pt x="180" y="447" on="0"/>
        <pt x="180" y="751" on="0"/>
        <pt x="323" y="901" on="0"/>
        <pt x="652" y="901" on="0"/>
        <pt x="795" y="751" on="0"/>
      </contour>
    </TTGlyph>
    <TTGlyph name="c" xMin="148" yMin="-22" xMax="992" yMax="1080">
      <contour>
        <pt x="579" y="-22" on="1"/>
        <pt x="254" y="-22" on="0"/>
        <pt x="172" y="204" on="1"/>
        <pt x="148" y="268" on="0"/>
        <pt x="148" y="344" on="1"/>
        <pt x="148" y="748" on="1"/>
        <pt x="148" y="899" on="0"/>
        <pt x="378" y="1080" on="0"/>
        <pt x="574" y="1080" on="1"/>
        <pt x="824" y="1080" on="0"/>
        <pt x="918" y="972" on="1"/>
        <pt x="992" y="888" on="0"/>
        <pt x="992" y="724" on="1"/>
        <pt x="813" y="707" on="1"/>
        <pt x="813" y="849" on="0"/>
        <pt x="712" y="936" on="0"/>
        <pt x="454" y="936" on="0"/>
        <pt x="336" y="846" on="0"/>
        <pt x="336" y="743" on="1"/>
        <pt x="336" y="328" on="1"/>
        <pt x="336" y="218" on="0"/>
        <pt x="460" y="122" on="0"/>
        <pt x="719" y="122" on="0"/>
        <pt x="806" y="190" on="0"/>
        <pt x="816" y="310" on="1"/>
        <pt x="990" y="310" on="1"/>
        <pt x="974" y="126" on="0"/>
        <pt x="794" y="-22" on="0"/>
      </contour>
    </TTGlyph>
    <TTGlyph name="cacute" xMin="148" yMin="-22" xMax="992" yMax="1584">
      <component glyphName="acute" x="384" y="78" flags="0x1004"/>
      <component glyphName="c" x="0" y="0" flags="0x1204"/>
    </TTGlyph>
    <TTGlyph name="caron" xMin="-30" yMin="1240" xMax="542" yMax="1506">
      <contour>
        <pt x="175" y="1240" on="1"/>
        <pt x="-30" y="1506" on="1"/>
        <pt x="125" y="1506" on="1"/>
        <pt x="249" y="1332" on="1"/>
        <pt x="381" y="1506" on="1"/>
        <pt x="542" y="1506" on="1"/>
        <pt x="325" y="1240" on="1"/>
      </contour>
    </TTGlyph>
    <TTGlyph name="ccaron" xMin="148" yMin="-22" xMax="992" yMax="1509">
      <component glyphName="caron" x="314" y="3" flags="0x1004"/>
      <component glyphName="c" x="0" y="0" flags="0x1204"/>
    </TTGlyph>
    <TTGlyph name="ccedilla" xMin="148" yMin="-492" xMax="992" yMax="1080">
      <component glyphName="cedilla" x="340" y="-6" flags="0x1004"/>
      <component glyphName="c" x="0" y="0" flags="0x1204"/>
    </TTGlyph>
    <TTGlyph name="ccircumflex" xMin="148" yMin="-22" xMax="992" yMax="1509">
      <component glyphName="circumflex" x="314" y="3" flags="0x1004"/>
      <component glyphName="c" x="0" y="0" flags="0x1204"/>
    </TTGlyph>
    <TTGlyph name="cdotaccent" xMin="148" yMin="-22" xMax="992" yMax="1449">
      <component glyphName="uni0307" x="360" y="-34" flags="0x1004"/>
      <component glyphName="c" x="0" y="0" flags="0x1204"/>
    </TTGlyph>
    <TTGlyph name="cedilla" xMin="120" yMin="-486" xMax="460" yMax="0">
      <contour>
        <pt x="213" y="-486" on="1"/>
        <pt x="165" y="-486" on="0"/>
        <pt x="120" y="-478" on="1"/>
        <pt x="120" y="-382" on="1"/>
        <pt x="156" y="-389" on="0"/>
        <pt x="260" y="-389" on="0"/>
        <pt x="331" y="-332" on="0"/>
        <pt x="331" y="-241" on="0"/>
        <pt x="242" y="-160" on="0"/>
        <pt x="171" y="-158" on="1"/>
        <pt x="171" y="0" on="1"/>
        <pt x="233" y="0" on="1"/>
        <pt x="239" y="-94" on="1"/>
        <pt x="344" y="-113" on="0"/>
        <pt x="460" y="-232" on="0"/>
        <pt x="460" y="-379" on="0"/>
        <pt x="330" y="-486" on="0"/>
      </contour>
    </TTGlyph>
    <TTGlyph name="cent" xMin="148" yMin="-205" xMax="992" yMax="1277">
      <contour>
        <pt x="643" y="-20" on="1"/>
        <pt x="643" y="-205" on="1"/>
        <pt x="540" y="-205" on="1"/>
        <pt x="540" y="-21" on="1"/>
        <pt x="250" y="-8" on="0"/>
        <pt x="172" y="204" on="1"/>
        <pt x="148" y="268" on="0"/>
        <pt x="148" y="344" on="1"/>
        <pt x="148" y="748" on="1"/>
        <pt x="148" y="899" on="0"/>
        <pt x="368" y="1072" on="0"/>
        <pt x="540" y="1079" on="1"/>
        <pt x="540" y="1277" on="1"/>
        <pt x="643" y="1277" on="1"/>
        <pt x="643" y="1078" on="1"/>
        <pt x="837" y="1066" on="0"/>
        <pt x="992" y="888" on="0"/>
        <pt x="992" y="724" on="1"/>
        <pt x="813" y="707" on="1"/>
        <pt x="813" y="849" on="0"/>
        <pt x="712" y="936" on="0"/>
        <pt x="454" y="936" on="0"/>
        <pt x="336" y="846" on="0"/>
        <pt x="336" y="743" on="1"/>
        <pt x="336" y="328" on="1"/>
        <pt x="336" y="218" on="0"/>
        <pt x="460" y="122" on="0"/>
        <pt x="719" y="122" on="0"/>
        <pt x="806" y="190" on="0"/>
        <pt x="816" y="310" on="1"/>
        <pt x="990" y="310" on="1"/>
        <pt x="974" y="126" on="0"/>
        <pt x="808" y="-10" on="0"/>
      </contour>
    </TTGlyph>
    <TTGlyph name="circumflex" xMin="-30" yMin="1240" xMax="542" yMax="1506">
      <contour>
        <pt x="-30" y="1240" on="1"/>
        <pt x="186" y="1506" on="1"/>
        <pt x="336" y="1506" on="1"/>
        <pt x="542" y="1240" on="1"/>
        <pt x="386" y="1240" on="1"/>
        <pt x="262" y="1414" on="1"/>
        <pt x="130" y="1240" on="1"/>
      </contour>
    </TTGlyph>
    <TTGlyph name="colon" xMin="256" yMin="99" xMax="512" yMax="1060">
      <component glyphName="period" x="70" y="818" flags="0x1004"/>
      <component glyphName="period" x="70" y="99" flags="0x1004"/>
    </TTGlyph>
    <TTGlyph name="comma" xMin="192" yMin="-338" xMax="449" yMax="233">
      <contour>
        <pt x="277" y="-338" on="1"/>
        <pt x="196" y="-294" on="1"/>
        <pt x="294" y="-176" on="0"/>
        <pt x="320" y="-92" on="1"/>
        <pt x="334" y="-46" on="0"/>
        <pt x="333" y="0" on="1"/>
        <pt x="192" y="0" on="1"/>
        <pt x="192" y="233" on="1"/>
        <pt x="449" y="233" on="1"/>
        <pt x="449" y="50" on="1"/>
        <pt x="449" y="-123" on="0"/>
        <pt x="329" y="-280" on="1"/>
        <pt x="303" y="-314" on="0"/>
      </contour>
    </TTGlyph>
    <TTGlyph name="copyright" xMin="156" yMin="-14" xMax="1628" yMax="1456">
      <contour>
        <pt x="694" y="287" on="0"/>
        <pt x="551" y="449" on="0"/>
        <pt x="551" y="590" on="1"/>
        <pt x="551" y="868" on="1"/>
        <pt x="551" y="1104" on="0"/>
        <pt x="726" y="1160" on="1"/>
        <pt x="798" y="1182" on="0"/>
        <pt x="900" y="1182" on="1"/>
        <pt x="1103" y="1182" on="0"/>
        <pt x="1228" y="1007" on="0"/>
        <pt x="1228" y="861" on="1"/>
        <pt x="1228" y="836" on="1"/>
        <pt x="1112" y="826" on="1"/>
        <pt x="1112" y="890" on="1"/>
        <pt x="1112" y="1003" on="0"/>
        <pt x="1017" y="1091" on="0"/>
        <pt x="784" y="1091" on="0"/>
        <pt x="671" y="1000" on="0"/>
        <pt x="671" y="890" on="1"/>
        <pt x="671" y="571" on="1"/>
        <pt x="671" y="462" on="0"/>
        <pt x="783" y="376" on="0"/>
        <pt x="1020" y="376" on="0"/>
        <pt x="1112" y="459" on="0"/>
        <pt x="1112" y="571" on="1"/>
        <pt x="1112" y="632" on="1"/>
        <pt x="1228" y="632" on="1"/>
        <pt x="1228" y="598" on="1"/>
        <pt x="1228" y="481" on="0"/>
        <pt x="1172" y="372" on="0"/>
        <pt x="1137" y="346" on="1"/>
        <pt x="1060" y="288" on="0"/>
      </contour>
      <contour>
        <pt x="426" y="249" on="0"/>
        <pt x="715" y="82" on="0"/>
        <pt x="1074" y="82" on="0"/>
        <pt x="1362" y="249" on="0"/>
        <pt x="1522" y="541" on="0"/>
        <pt x="1522" y="902" on="0"/>
        <pt x="1362" y="1194" on="0"/>
        <pt x="1074" y="1361" on="0"/>
        <pt x="715" y="1361" on="0"/>
        <pt x="426" y="1194" on="0"/>
        <pt x="265" y="902" on="0"/>
        <pt x="265" y="542" on="0"/>
      </contour>
      <contour>
        <pt x="1319" y="99" on="0"/>
        <pt x="1046" y="-14" on="0"/>
        <pt x="688" y="-14" on="0"/>
        <pt x="351" y="178" on="0"/>
        <pt x="156" y="516" on="0"/>
        <pt x="156" y="927" on="0"/>
        <pt x="351" y="1264" on="0"/>
        <pt x="688" y="1456" on="0"/>
        <pt x="1097" y="1456" on="0"/>
        <pt x="1435" y="1264" on="0"/>
        <pt x="1628" y="927" on="0"/>
        <pt x="1628" y="567" on="0"/>
        <pt x="1514" y="294" on="0"/>
      </contour>
    </TTGlyph>
    <TTGlyph name="currency" xMin="116" yMin="360" xMax="1033" yMax="1075">
      <contour>
        <pt x="817" y="486" on="1"/>
        <pt x="727" y="360" on="0"/>
        <pt x="417" y="360" on="0"/>
        <pt x="324" y="468" on="1"/>
        <pt x="177" y="360" on="1"/>
        <pt x="126" y="443" on="1"/>
        <pt x="274" y="549" on="1"/>
        <pt x="245" y="615" on="0"/>
        <pt x="245" y="784" on="0"/>
        <pt x="291" y="862" on="1"/>
        <pt x="116" y="979" on="1"/>
        <pt x="170" y="1061" on="1"/>
        <pt x="350" y="937" on="1"/>
        <pt x="436" y="1018" on="0"/>
        <pt x="694" y="1018" on="0"/>
        <pt x="780" y="935" on="1"/>
        <pt x="973" y="1075" on="1"/>
        <pt x="1023" y="993" on="1"/>
        <pt x="839" y="860" on="1"/>
        <pt x="883" y="777" on="0"/>
        <pt x="883" y="626" on="0"/>
        <pt x="862" y="571" on="1"/>
        <pt x="1033" y="457" on="1"/>
        <pt x="981" y="376" on="1"/>
      </contour>
      <contour>
        <pt x="469" y="444" on="0"/>
        <pt x="661" y="444" on="0"/>
        <pt x="790" y="588" on="0"/>
        <pt x="790" y="793" on="0"/>
        <pt x="661" y="936" on="0"/>
        <pt x="469" y="936" on="0"/>
        <pt x="340" y="793" on="0"/>
        <pt x="340" y="588" on="0"/>
      </contour>
    </TTGlyph>
    <TTGlyph name="d" xMin="148" yMin="-22" xMax="1014" yMax="1506">
      <contour>
        <pt x="591" y="1080" on="1"/>
        <pt x="719" y="1080" on="0"/>
        <pt x="826" y="1040" on="1"/>
        <pt x="826" y="1506" on="1"/>
        <pt x="1014" y="1506" on="1"/>
        <pt x="1014" y="0" on="1"/>
        <pt x="886" y="0" on="1"/>
        <pt x="855" y="70" on="1"/>
        <pt x="806" y="32" on="0"/>
        <pt x="646" y="-22" on="0"/>
        <pt x="568" y="-22" on="1"/>
        <pt x="351" y="-22" on="0"/>
        <pt x="148" y="171" on="0"/>
        <pt x="148" y="335" on="1"/>
        <pt x="148" y="735" on="1"/>
        <pt x="148" y="900" on="0"/>
        <pt x="366" y="1080" on="0"/>
      </contour>
      <contour>
        <pt x="336" y="226" on="0"/>
        <pt x="471" y="126" on="0"/>
        <pt x="562" y="126" on="1"/>
        <pt x="724" y="126" on="0"/>
        <pt x="826" y="189" on="1"/>
        <pt x="826" y="892" on="1"/>
        <pt x="735" y="936" on="0"/>
        <pt x="605" y="936" on="1"/>
        <pt x="336" y="936" on="0"/>
        <pt x="336" y="756" on="1"/>
        <pt x="336" y="321" on="1"/>
      </contour>
    </TTGlyph>
    <TTGlyph name="dagger" xMin="88" yMin="0" xMax="802" yMax="1446">
      <contour>
        <pt x="348" y="0" on="1"/>
        <pt x="348" y="931" on="1"/>
        <pt x="88" y="931" on="1"/>
        <pt x="88" y="1060" on="1"/>
        <pt x="348" y="1060" on="1"/>
        <pt x="348" y="1446" on="1"/>
        <pt x="536" y="1446" on="1"/>
        <pt x="536" y="1060" on="1"/>
        <pt x="802" y="1060" on="1"/>
        <pt x="802" y="931" on="1"/>
        <pt x="536" y="931" on="1"/>
        <pt x="536" y="0" on="1"/>
      </contour>
    </TTGlyph>
    <TTGlyph name="daggerdbl" xMin="112" yMin="0" xMax="826" yMax="1446">
      <contour>
        <pt x="372" y="0" on="1"/>
        <pt x="372" y="409" on="1"/>
        <pt x="112" y="409" on="1"/>
        <pt x="112" y="538" on="1"/>
        <pt x="372" y="538" on="1"/>
        <pt x="372" y="931" on="1"/>
        <pt x="112" y="931" on="1"/>
        <pt x="112" y="1060" on="1"/>
        <pt x="372" y="1060" on="1"/>
        <pt x="372" y="1446" on="1"/>
        <pt x="560" y="1446" on="1"/>
        <pt x="560" y="1060" on="1"/>
        <pt x="826" y="1060" on="1"/>
        <pt x="826" y="931" on="1"/>
        <pt x="560" y="931" on="1"/>
        <pt x="560" y="538" on="1"/>
        <pt x="826" y="538" on="1"/>
        <pt x="826" y="409" on="1"/>
        <pt x="560" y="409" on="1"/>
        <pt x="560" y="0" on="1"/>
      </contour>
    </TTGlyph>
    <TTGlyph name="dcaron" xMin="148" yMin="-22" xMax="1515" yMax="1506">
      <component glyphName="comma" x="1066" y="1273" flags="0x1004"/>
      <component glyphName="d" x="0" y="0" flags="0x1004"/>
    </TTGlyph>
    <TTGlyph name="dcroat" xMin="148" yMin="-22" xMax="1177" yMax="1506">
      <contour>
        <pt x="336" y="226" on="0"/>
        <pt x="471" y="126" on="0"/>
        <pt x="562" y="126" on="1"/>
        <pt x="724" y="126" on="0"/>
        <pt x="826" y="189" on="1"/>
        <pt x="826" y="892" on="1"/>
        <pt x="735" y="936" on="0"/>
        <pt x="605" y="936" on="1"/>
        <pt x="336" y="936" on="0"/>
        <pt x="336" y="756" on="1"/>
        <pt x="336" y="321" on="1"/>
      </contour>
      <contour>
        <pt x="591" y="1080" on="1"/>
        <pt x="719" y="1080" on="0"/>
        <pt x="826" y="1040" on="1"/>
        <pt x="826" y="1249" on="1"/>
        <pt x="462" y="1249" on="1"/>
        <pt x="462" y="1373" on="1"/>
        <pt x="826" y="1373" on="1"/>
        <pt x="826" y="1506" on="1"/>
        <pt x="1014" y="1506" on="1"/>
        <pt x="1014" y="1373" on="1"/>
        <pt x="1177" y="1373" on="1"/>
        <pt x="1177" y="1249" on="1"/>
        <pt x="1014" y="1249" on="1"/>
        <pt x="1014" y="0" on="1"/>
        <pt x="886" y="0" on="1"/>
        <pt x="855" y="70" on="1"/>
        <pt x="806" y="32" on="0"/>
        <pt x="646" y="-22" on="0"/>
        <pt x="568" y="-22" on="1"/>
        <pt x="351" y="-22" on="0"/>
        <pt x="148" y="171" on="0"/>
        <pt x="148" y="335" on="1"/>
        <pt x="148" y="735" on="1"/>
        <pt x="148" y="900" on="0"/>
        <pt x="366" y="1080" on="0"/>
      </contour>
    </TTGlyph>
    <TTGlyph name="degree" xMin="194" yMin="798" xMax="842" yMax="1446">
      <contour>
        <pt x="422" y="885" on="0"/>
        <pt x="616" y="885" on="0"/>
        <pt x="747" y="1024" on="0"/>
        <pt x="747" y="1222" on="0"/>
        <pt x="616" y="1361" on="0"/>
        <pt x="422" y="1361" on="0"/>
        <pt x="291" y="1222" on="0"/>
        <pt x="291" y="1024" on="0"/>
      </contour>
      <contour>
        <pt x="652" y="798" on="0"/>
        <pt x="384" y="798" on="0"/>
        <pt x="194" y="988" on="0"/>
        <pt x="194" y="1256" on="0"/>
        <pt x="384" y="1446" on="0"/>
        <pt x="652" y="1446" on="0"/>
        <pt x="842" y="1256" on="0"/>
        <pt x="842" y="988" on="0"/>
      </contour>
    </TTGlyph>
    <TTGlyph name="dieresis" xMin="158" yMin="1265" xMax="867" yMax="1446">
      <contour>
        <pt x="158" y="1265" on="1"/>
        <pt x="158" y="1446" on="1"/>
        <pt x="364" y="1446" on="1"/>
        <pt x="364" y="1265" on="1"/>
      </contour>
      <contour>
        <pt x="661" y="1265" on="1"/>
        <pt x="661" y="1446" on="1"/>
        <pt x="867" y="1446" on="1"/>
        <pt x="867" y="1265" on="1"/>
      </contour>
    </TTGlyph>
    <TTGlyph name="divide" xMin="100" yMin="90" xMax="925" yMax="996">
      <contour>
        <pt x="413" y="90" on="1"/>
        <pt x="413" y="299" on="1"/>
        <pt x="618" y="299" on="1"/>
        <pt x="618" y="90" on="1"/>
      </contour>
      <contour>
        <pt x="100" y="472" on="1"/>
        <pt x="100" y="609" on="1"/>
        <pt x="925" y="609" on="1"/>
        <pt x="925" y="472" on="1"/>
      </contour>
      <contour>
        <pt x="413" y="787" on="1"/>
        <pt x="413" y="996" on="1"/>
        <pt x="618" y="996" on="1"/>
        <pt x="618" y="787" on="1"/>
      </contour>
    </TTGlyph>
    <TTGlyph name="dollar" xMin="144" yMin="-242" xMax="1164" yMax="1638">
      <contour>
        <pt x="1164" y="406" on="1"/>
        <pt x="1164" y="-4" on="0"/>
        <pt x="730" y="-21" on="1"/>
        <pt x="730" y="-242" on="1"/>
        <pt x="620" y="-242" on="1"/>
        <pt x="620" y="-20" on="1"/>
        <pt x="350" y="-6" on="0"/>
        <pt x="144" y="113" on="1"/>
        <pt x="215" y="267" on="1"/>
        <pt x="305" y="214" on="0"/>
        <pt x="528" y="150" on="0"/>
        <pt x="620" y="143" on="1"/>
        <pt x="620" y="680" on="1"/>
        <pt x="453" y="736" on="1"/>
        <pt x="350" y="770" on="0"/>
        <pt x="230" y="857" on="0"/>
        <pt x="171" y="990" on="0"/>
        <pt x="171" y="1171" on="0"/>
        <pt x="195" y="1235" on="1"/>
        <pt x="278" y="1456" on="0"/>
        <pt x="620" y="1467" on="1"/>
        <pt x="620" y="1638" on="1"/>
        <pt x="730" y="1638" on="1"/>
        <pt x="730" y="1467" on="1"/>
        <pt x="998" y="1456" on="0"/>
        <pt x="1141" y="1367" on="1"/>
        <pt x="1092" y="1210" on="1"/>
        <pt x="930" y="1298" on="0"/>
        <pt x="730" y="1305" on="1"/>
        <pt x="730" y="834" on="1"/>
        <pt x="879" y="784" on="1"/>
        <pt x="982" y="748" on="0"/>
        <pt x="1042" y="704" on="1"/>
        <pt x="1164" y="614" on="0"/>
      </contour>
      <contour>
        <pt x="620" y="872" on="1"/>
        <pt x="620" y="1304" on="1"/>
        <pt x="516" y="1297" on="0"/>
        <pt x="455" y="1266" on="1"/>
        <pt x="374" y="1226" on="0"/>
        <pt x="368" y="1137" on="1"/>
        <pt x="366" y="1108" on="0"/>
        <pt x="366" y="1087" on="1"/>
        <pt x="366" y="1015" on="0"/>
        <pt x="427" y="937" on="0"/>
        <pt x="515" y="907" on="1"/>
      </contour>
      <contour>
        <pt x="730" y="644" on="1"/>
        <pt x="730" y="141" on="1"/>
        <pt x="790" y="144" on="0"/>
        <pt x="832" y="156" on="1"/>
        <pt x="940" y="187" on="0"/>
        <pt x="966" y="302" on="1"/>
        <pt x="978" y="355" on="0"/>
        <pt x="978" y="489" on="0"/>
        <pt x="958" y="523" on="1"/>
        <pt x="925" y="580" on="0"/>
        <pt x="802" y="620" on="1"/>
      </contour>
    </TTGlyph>
    <TTGlyph name="dotaccent" xMin="136" yMin="1275" xMax="376" yMax="1506">
      <contour>
        <pt x="136" y="1275" on="1"/>
        <pt x="136" y="1506" on="1"/>
        <pt x="376" y="1506" on="1"/>
        <pt x="376" y="1275" on="1"/>
      </contour>
    </TTGlyph>
    <TTGlyph name="dotlessi" xMin="206" yMin="0" xMax="394" yMax="1060">
      <contour>
        <pt x="206" y="0" on="1"/>
        <pt x="206" y="1060" on="1"/>
        <pt x="394" y="1060" on="1"/>
        <pt x="394" y="0" on="1"/>
      </contour>
    </TTGlyph>
    <TTGlyph name="e" xMin="148" yMin="-22" xMax="1006" yMax="1080">
      <contour>
        <pt x="589" y="-22" on="1"/>
        <pt x="356" y="-22" on="0"/>
        <pt x="148" y="172" on="0"/>
        <pt x="148" y="374" on="1"/>
        <pt x="148" y="743" on="1"/>
        <pt x="148" y="900" on="0"/>
        <pt x="362" y="1080" on="0"/>
        <pt x="795" y="1080" on="0"/>
        <pt x="1006" y="913" on="0"/>
        <pt x="1006" y="758" on="1"/>
        <pt x="1006" y="506" on="1"/>
        <pt x="336" y="506" on="1"/>
        <pt x="336" y="357" on="1"/>
        <pt x="336" y="225" on="0"/>
        <pt x="442" y="122" on="0"/>
        <pt x="718" y="122" on="0"/>
        <pt x="754" y="134" on="0"/>
        <pt x="792" y="150" on="0"/>
        <pt x="807" y="172" on="0"/>
        <pt x="832" y="217" on="0"/>
        <pt x="838" y="282" on="1"/>
        <pt x="1004" y="282" on="1"/>
        <pt x="994" y="187" on="0"/>
        <pt x="947" y="71" on="0"/>
        <pt x="846" y="2" on="0"/>
        <pt x="705" y="-22" on="0"/>
      </contour>
      <contour>
        <pt x="336" y="633" on="1"/>
        <pt x="824" y="633" on="1"/>
        <pt x="824" y="778" on="1"/>
        <pt x="824" y="868" on="0"/>
        <pt x="701" y="936" on="0"/>
        <pt x="463" y="936" on="0"/>
        <pt x="336" y="854" on="0"/>
        <pt x="336" y="760" on="1"/>
      </contour>
    </TTGlyph>
    <TTGlyph name="eacute" xMin="148" yMin="-22" xMax="1006" yMax="1584">
      <component glyphName="acute" x="391" y="78" flags="0x1004"/>
      <component glyphName="e" x="0" y="0" flags="0x1204"/>
    </TTGlyph>
    <TTGlyph name="ebreve" xMin="148" yMin="-22" xMax="1006" yMax="1455">
      <component glyphName="breve" x="321" y="-51" flags="0x1004"/>
      <component glyphName="e" x="0" y="0" flags="0x1204"/>
    </TTGlyph>
    <TTGlyph name="ecaron" xMin="148" yMin="-22" xMax="1006" yMax="1509">
      <component glyphName="caron" x="321" y="3" flags="0x1004"/>
      <component glyphName="e" x="0" y="0" flags="0x1204"/>
    </TTGlyph>
    <TTGlyph name="ecircumflex" xMin="148" yMin="-22" xMax="1006" yMax="1509">
      <component glyphName="circumflex" x="321" y="3" flags="0x1004"/>
      <component glyphName="e" x="0" y="0" flags="0x1204"/>
    </TTGlyph>
    <TTGlyph name="edieresis" xMin="148" yMin="-22" xMax="1006" yMax="1424">
      <component glyphName="dieresis" x="64" y="-22" flags="0x1004"/>
      <component glyphName="e" x="0" y="0" flags="0x1204"/>
    </TTGlyph>
    <TTGlyph name="edotaccent" xMin="148" yMin="-22" xMax="1006" yMax="1449">
      <component glyphName="uni0307" x="366" y="-34" flags="0x1004"/>
      <component glyphName="e" x="0" y="0" flags="0x1204"/>
    </TTGlyph>
    <TTGlyph name="egrave" xMin="148" yMin="-22" xMax="1006" yMax="1584">
      <component glyphName="grave" x="152" y="78" flags="0x1004"/>
      <component glyphName="e" x="0" y="0" flags="0x1204"/>
    </TTGlyph>
    <TTGlyph name="eight" xMin="132" yMin="-22" xMax="1118" yMax="1468">
      <contour>
        <pt x="1118" y="174" on="0"/>
        <pt x="853" y="-22" on="0"/>
        <pt x="393" y="-22" on="0"/>
        <pt x="132" y="174" on="0"/>
        <pt x="132" y="367" on="1"/>
        <pt x="132" y="637" on="0"/>
        <pt x="438" y="773" on="1"/>
        <pt x="313" y="831" on="0"/>
        <pt x="202" y="935" on="0"/>
        <pt x="160" y="1041" on="0"/>
        <pt x="160" y="1205" on="0"/>
        <pt x="196" y="1276" on="1"/>
        <pt x="232" y="1348" on="0"/>
        <pt x="298" y="1389" on="1"/>
        <pt x="424" y="1468" on="0"/>
        <pt x="825" y="1468" on="0"/>
        <pt x="1090" y="1302" on="0"/>
        <pt x="1090" y="1108" on="1"/>
        <pt x="1090" y="974" on="0"/>
        <pt x="936" y="830" on="0"/>
        <pt x="811" y="773" on="1"/>
        <pt x="1118" y="637" on="0"/>
        <pt x="1118" y="367" on="1"/>
      </contour>
      <contour>
        <pt x="323" y="247" on="0"/>
        <pt x="476" y="140" on="0"/>
        <pt x="774" y="140" on="0"/>
        <pt x="927" y="247" on="0"/>
        <pt x="927" y="485" on="0"/>
        <pt x="760" y="624" on="0"/>
        <pt x="625" y="689" on="1"/>
        <pt x="487" y="622" on="0"/>
        <pt x="368" y="522" on="0"/>
        <pt x="323" y="429" on="0"/>
        <pt x="323" y="372" on="1"/>
      </contour>
      <contour>
        <pt x="625" y="846" on="1"/>
        <pt x="782" y="924" on="0"/>
        <pt x="835" y="972" on="0"/>
        <pt x="895" y="1040" on="0"/>
        <pt x="895" y="1204" on="0"/>
        <pt x="769" y="1306" on="0"/>
        <pt x="481" y="1306" on="0"/>
        <pt x="355" y="1204" on="0"/>
        <pt x="355" y="1107" on="1"/>
        <pt x="356" y="982" on="0"/>
        <pt x="540" y="888" on="1"/>
        <pt x="570" y="873" on="0"/>
      </contour>
    </TTGlyph>
    <TTGlyph name="ellipsis" xMin="186" yMin="0" xMax="1698" yMax="242">
      <component glyphName="period" x="1256" y="0" flags="0x1004"/>
      <component glyphName="period" x="628" y="0" flags="0x1004"/>
      <component glyphName="period" x="0" y="0" flags="0x1004"/>
    </TTGlyph>
    <TTGlyph name="emacron" xMin="148" yMin="-22" xMax="1006" yMax="1395">
      <component glyphName="uni02C9" x="320" y="-111" flags="0x1004"/>
      <component glyphName="e" x="0" y="0" flags="0x1204"/>
    </TTGlyph>
    <TTGlyph name="emdash" xMin="2" yMin="402" xMax="1098" yMax="548">
      <contour>
        <pt x="2" y="402" on="1"/>
        <pt x="2" y="548" on="1"/>
        <pt x="1098" y="548" on="1"/>
        <pt x="1098" y="402" on="1"/>
      </contour>
    </TTGlyph>
    <TTGlyph name="endash" xMin="2" yMin="606" xMax="535" yMax="732">
      <contour>
        <pt x="2" y="606" on="1"/>
        <pt x="2" y="732" on="1"/>
        <pt x="535" y="732" on="1"/>
        <pt x="535" y="606" on="1"/>
      </contour>
    </TTGlyph>
    <TTGlyph name="eng" xMin="186" yMin="-316" xMax="1050" yMax="1080">
      <contour>
        <pt x="862" y="781" on="1"/>
        <pt x="862" y="936" on="0"/>
        <pt x="625" y="936" on="1"/>
        <pt x="508" y="936" on="0"/>
        <pt x="374" y="836" on="0"/>
        <pt x="374" y="755" on="1"/>
        <pt x="374" y="0" on="1"/>
        <pt x="186" y="0" on="1"/>
        <pt x="186" y="1060" on="1"/>
        <pt x="374" y="1060" on="1"/>
        <pt x="374" y="957" on="1"/>
        <pt x="480" y="1080" on="0"/>
        <pt x="688" y="1080" on="1"/>
        <pt x="958" y="1080" on="0"/>
        <pt x="1030" y="890" on="1"/>
        <pt x="1050" y="836" on="0"/>
        <pt x="1050" y="770" on="1"/>
        <pt x="1050" y="219" on="1"/>
        <pt x="1050" y="20" on="0"/>
        <pt x="1004" y="-152" on="0"/>
        <pt x="946" y="-232" on="0"/>
        <pt x="900" y="-262" on="1"/>
        <pt x="816" y="-316" on="0"/>
        <pt x="641" y="-316" on="1"/>
        <pt x="613" y="-175" on="1"/>
        <pt x="752" y="-176" on="0"/>
        <pt x="788" y="-144" on="1"/>
        <pt x="806" y="-128" on="0"/>
        <pt x="818" y="-118" on="1"/>
        <pt x="862" y="-84" on="0"/>
        <pt x="862" y="212" on="1"/>
      </contour>
    </TTGlyph>
    <TTGlyph name="eogonek" xMin="148" yMin="-495" xMax="1006" yMax="1080">
      <component glyphName="ogonek" x="365" y="-9" flags="0x1004"/>
      <component glyphName="e" x="0" y="0" flags="0x1204"/>
    </TTGlyph>
    <TTGlyph name="equal" xMin="224" yMin="467" xMax="1026" yMax="953">
      <contour>
        <pt x="224" y="467" on="1"/>
        <pt x="224" y="615" on="1"/>
        <pt x="1026" y="615" on="1"/>
        <pt x="1026" y="467" on="1"/>
      </contour>
      <contour>
        <pt x="224" y="805" on="1"/>
        <pt x="224" y="953" on="1"/>
        <pt x="1026" y="953" on="1"/>
        <pt x="1026" y="805" on="1"/>
      </contour>
    </TTGlyph>
    <TTGlyph name="eth" xMin="150" yMin="-20" xMax="1010" yMax="1515">
      <contour>
        <pt x="587" y="-20" on="1"/>
        <pt x="361" y="-20" on="0"/>
        <pt x="150" y="158" on="0"/>
        <pt x="150" y="314" on="1"/>
        <pt x="150" y="646" on="1"/>
        <pt x="150" y="796" on="0"/>
        <pt x="389" y="975" on="0"/>
        <pt x="587" y="975" on="1"/>
        <pt x="635" y="975" on="0"/>
        <pt x="761" y="939" on="0"/>
        <pt x="782" y="921" on="1"/>
        <pt x="744" y="1097" on="0"/>
        <pt x="606" y="1220" on="1"/>
        <pt x="391" y="1078" on="1"/>
        <pt x="323" y="1162" on="1"/>
        <pt x="514" y="1288" on="1"/>
        <pt x="410" y="1355" on="0"/>
        <pt x="243" y="1407" on="1"/>
        <pt x="317" y="1515" on="1"/>
        <pt x="505" y="1475" on="0"/>
        <pt x="646" y="1375" on="1"/>
        <pt x="794" y="1473" on="1"/>
        <pt x="863" y="1389" on="1"/>
        <pt x="733" y="1303" on="1"/>
        <pt x="1010" y="1041" on="0"/>
        <pt x="1010" y="536" on="1"/>
        <pt x="1010" y="365" on="1"/>
        <pt x="1010" y="210" on="0"/>
        <pt x="964" y="131" on="1"/>
        <pt x="876" y="-20" on="0"/>
      </contour>
      <contour>
        <pt x="587" y="833" on="1"/>
        <pt x="337" y="833" on="0"/>
        <pt x="337" y="652" on="1"/>
        <pt x="337" y="308" on="1"/>
        <pt x="337" y="207" on="0"/>
        <pt x="468" y="121" on="0"/>
        <pt x="731" y="121" on="0"/>
        <pt x="777" y="171" on="1"/>
        <pt x="823" y="220" on="0"/>
        <pt x="827" y="304" on="1"/>
        <pt x="828" y="324" on="0"/>
        <pt x="828" y="359" on="1"/>
        <pt x="828" y="593" on="1"/>
        <pt x="828" y="657" on="0"/>
        <pt x="805" y="783" on="1"/>
        <pt x="775" y="804" on="0"/>
        <pt x="637" y="833" on="0"/>
      </contour>
    </TTGlyph>
    <TTGlyph name="exclam" xMin="280" yMin="0" xMax="488" yMax="1446">
      <contour>
        <pt x="280" y="0" on="1"/>
        <pt x="280" y="206" on="1"/>
        <pt x="484" y="206" on="1"/>
        <pt x="484" y="0" on="1"/>
      </contour>
      <contour>
        <pt x="353" y="371" on="1"/>
        <pt x="286" y="1061" on="0"/>
        <pt x="286" y="1446" on="1"/>
        <pt x="488" y="1446" on="1"/>
        <pt x="488" y="1132" on="0"/>
        <pt x="409" y="371" on="1"/>
      </contour>
    </TTGlyph>
    <TTGlyph name="exclamdown" xMin="280" yMin="-180" xMax="488" yMax="1266">
      <component glyphName="exclam" x="768" y="1266" scalex="-1.0" scale01="-6.103515625e-05" scale10="0.0" scaley="-1.0" flags="0x1004"/>
    </TTGlyph>
    <TTGlyph name="f" xMin="110" yMin="0" xMax="744" yMax="1505">
      <contour>
        <pt x="287" y="0" on="1"/>
        <pt x="287" y="918" on="1"/>
        <pt x="110" y="918" on="1"/>
        <pt x="110" y="1060" on="1"/>
        <pt x="287" y="1060" on="1"/>
        <pt x="287" y="1221" on="1"/>
        <pt x="287" y="1368" on="0"/>
        <pt x="448" y="1505" on="0"/>
        <pt x="613" y="1505" on="1"/>
        <pt x="732" y="1505" on="1"/>
        <pt x="744" y="1372" on="1"/>
        <pt x="628" y="1372" on="1"/>
        <pt x="475" y="1372" on="0"/>
        <pt x="475" y="1239" on="1"/>
        <pt x="475" y="1060" on="1"/>
        <pt x="732" y="1060" on="1"/>
        <pt x="732" y="918" on="1"/>
        <pt x="475" y="918" on="1"/>
        <pt x="475" y="0" on="1"/>
      </contour>
    </TTGlyph>
    <TTGlyph name="five" xMin="173" yMin="-22" xMax="1117" yMax="1446">
      <contour>
        <pt x="406" y="819" on="1"/>
        <pt x="507" y="911" on="0"/>
        <pt x="669" y="911" on="1"/>
        <pt x="889" y="911" on="0"/>
        <pt x="1117" y="667" on="0"/>
        <pt x="1117" y="238" on="0"/>
        <pt x="850" y="-22" on="0"/>
        <pt x="632" y="-22" on="1"/>
        <pt x="528" y="-22" on="0"/>
        <pt x="342" y="21" on="0"/>
        <pt x="238" y="69" on="0"/>
        <pt x="173" y="107" on="1"/>
        <pt x="226" y="260" on="1"/>
        <pt x="288" y="219" on="0"/>
        <pt x="332" y="197" on="1"/>
        <pt x="446" y="140" on="0"/>
        <pt x="624" y="140" on="1"/>
        <pt x="843" y="140" on="0"/>
        <pt x="907" y="312" on="1"/>
        <pt x="928" y="368" on="0"/>
        <pt x="928" y="439" on="1"/>
        <pt x="928" y="591" on="0"/>
        <pt x="790" y="762" on="0"/>
        <pt x="645" y="762" on="1"/>
        <pt x="575" y="762" on="0"/>
        <pt x="466" y="713" on="0"/>
        <pt x="382" y="652" on="1"/>
        <pt x="236" y="712" on="1"/>
        <pt x="287" y="1446" on="1"/>
        <pt x="1024" y="1446" on="1"/>
        <pt x="1024" y="1281" on="1"/>
        <pt x="448" y="1281" on="1"/>
      </contour>
    </TTGlyph>
    <TTGlyph name="florin" xMin="141" yMin="-190" xMax="710" yMax="1464">
      <contour>
        <pt x="251" y="-190" on="1"/>
        <pt x="197" y="-190" on="0"/>
        <pt x="141" y="-183" on="1"/>
        <pt x="141" y="-59" on="1"/>
        <pt x="158" y="-61" on="0"/>
        <pt x="214" y="-61" on="1"/>
        <pt x="334" y="-61" on="0"/>
        <pt x="333" y="63" on="1"/>
        <pt x="333" y="727" on="1"/>
        <pt x="216" y="727" on="1"/>
        <pt x="216" y="858" on="1"/>
        <pt x="333" y="858" on="1"/>
        <pt x="333" y="1155" on="1"/>
        <pt x="333" y="1321" on="0"/>
        <pt x="453" y="1464" on="0"/>
        <pt x="606" y="1464" on="1"/>
        <pt x="653" y="1464" on="0"/>
        <pt x="710" y="1458" on="1"/>
        <pt x="710" y="1334" on="1"/>
        <pt x="698" y="1335" on="0"/>
        <pt x="664" y="1335" on="1"/>
        <pt x="579" y="1335" on="0"/>
        <pt x="521" y="1246" on="0"/>
        <pt x="521" y="1177" on="1"/>
        <pt x="521" y="858" on="1"/>
        <pt x="650" y="858" on="1"/>
        <pt x="650" y="727" on="1"/>
        <pt x="521" y="727" on="1"/>
        <pt x="521" y="91" on="1"/>
        <pt x="521" y="-55" on="0"/>
        <pt x="398" y="-190" on="0"/>
      </contour>
    </TTGlyph>
    <TTGlyph name="four" xMin="143" yMin="0" xMax="1162" yMax="1446">
      <contour>
        <pt x="783" y="0" on="1"/>
        <pt x="783" y="351" on="1"/>
        <pt x="143" y="351" on="1"/>
        <pt x="143" y="508" on="1"/>
        <pt x="672" y="1446" on="1"/>
        <pt x="881" y="1446" on="1"/>
        <pt x="367" y="506" on="1"/>
        <pt x="783" y="506" on="1"/>
        <pt x="783" y="837" on="1"/>
        <pt x="950" y="837" on="1"/>
        <pt x="950" y="506" on="1"/>
        <pt x="1162" y="506" on="1"/>
        <pt x="1162" y="351" on="1"/>
        <pt x="950" y="351" on="1"/>
        <pt x="950" y="0" on="1"/>
      </contour>
    </TTGlyph>
    <TTGlyph name="fraction" xMin="16" yMin="0" xMax="752" yMax="1506">
      <contour>
        <pt x="16" y="0" on="1"/>
        <pt x="569" y="1506" on="1"/>
        <pt x="752" y="1506" on="1"/>
        <pt x="203" y="0" on="1"/>
      </contour>
    </TTGlyph>
    <TTGlyph name="g" xMin="148" yMin="-408" xMax="1010" yMax="1080">
      <contour>
        <pt x="295" y="-227" on="1"/>
        <pt x="399" y="-265" on="0"/>
        <pt x="701" y="-265" on="0"/>
        <pt x="822" y="-151" on="0"/>
        <pt x="822" y="-31" on="1"/>
        <pt x="822" y="116" on="1"/>
        <pt x="781" y="78" on="0"/>
        <pt x="618" y="40" on="0"/>
        <pt x="550" y="40" on="1"/>
        <pt x="148" y="40" on="0"/>
        <pt x="148" y="379" on="1"/>
        <pt x="148" y="728" on="1"/>
        <pt x="148" y="893" on="0"/>
        <pt x="349" y="1080" on="0"/>
        <pt x="550" y="1080" on="1"/>
        <pt x="630" y="1080" on="0"/>
        <pt x="799" y="1013" on="0"/>
        <pt x="822" y="975" on="1"/>
        <pt x="822" y="1060" on="1"/>
        <pt x="1010" y="1060" on="1"/>
        <pt x="1010" y="25" on="1"/>
        <pt x="1010" y="-166" on="0"/>
        <pt x="809" y="-408" on="0"/>
        <pt x="361" y="-408" on="0"/>
        <pt x="253" y="-368" on="1"/>
      </contour>
      <contour>
        <pt x="822" y="790" on="1"/>
        <pt x="822" y="936" on="0"/>
        <pt x="336" y="936" on="0"/>
        <pt x="336" y="748" on="1"/>
        <pt x="336" y="350" on="1"/>
        <pt x="336" y="184" on="0"/>
        <pt x="579" y="184" on="1"/>
        <pt x="722" y="184" on="0"/>
        <pt x="822" y="264" on="1"/>
      </contour>
    </TTGlyph>
    <TTGlyph name="gbreve" xMin="148" yMin="-408" xMax="1010" yMax="1455">
      <component glyphName="breve" x="323" y="-51" flags="0x1004"/>
      <component glyphName="g" x="0" y="0" flags="0x1204"/>
    </TTGlyph>
    <TTGlyph name="gcircumflex" xMin="148" yMin="-408" xMax="1010" yMax="1509">
      <component glyphName="circumflex" x="323" y="3" flags="0x1004"/>
      <component glyphName="g" x="0" y="0" flags="0x1204"/>
    </TTGlyph>
    <TTGlyph name="gcommaaccent" xMin="148" yMin="-408" xMax="1010" yMax="1811">
      <component glyphName="g" x="0" y="0" flags="0x1004"/>
      <component glyphName="comma" x="973" y="1473" scale="-1.0" flags="0x1004"/>
    </TTGlyph>
    <TTGlyph name="gdotaccent" xMin="148" yMin="-408" xMax="1010" yMax="1449">
      <component glyphName="uni0307" x="368" y="-34" flags="0x1004"/>
      <component glyphName="g" x="0" y="0" flags="0x1204"/>
    </TTGlyph>
    <TTGlyph name="germandbls" xMin="190" yMin="0" xMax="1166" yMax="1483">
      <contour>
        <pt x="190" y="0" on="1"/>
        <pt x="190" y="1103" on="1"/>
        <pt x="190" y="1350" on="0"/>
        <pt x="379" y="1435" on="1"/>
        <pt x="486" y="1483" on="0"/>
        <pt x="857" y="1483" on="0"/>
        <pt x="1057" y="1300" on="0"/>
        <pt x="1057" y="1135" on="1"/>
        <pt x="1057" y="1019" on="0"/>
        <pt x="984" y="901" on="0"/>
        <pt x="902" y="878" on="1"/>
        <pt x="995" y="839" on="0"/>
        <pt x="1025" y="820" on="1"/>
        <pt x="1166" y="730" on="0"/>
        <pt x="1166" y="216" on="0"/>
        <pt x="848" y="0" on="0"/>
        <pt x="536" y="0" on="1"/>
        <pt x="518" y="148" on="1"/>
        <pt x="711" y="162" on="0"/>
        <pt x="785" y="183" on="1"/>
        <pt x="991" y="242" on="0"/>
        <pt x="991" y="471" on="1"/>
        <pt x="991" y="614" on="0"/>
        <pt x="889" y="737" on="0"/>
        <pt x="722" y="770" on="0"/>
        <pt x="600" y="770" on="1"/>
        <pt x="600" y="912" on="1"/>
        <pt x="759" y="912" on="0"/>
        <pt x="869" y="1017" on="0"/>
        <pt x="869" y="1100" on="1"/>
        <pt x="869" y="1248" on="0"/>
        <pt x="752" y="1332" on="0"/>
        <pt x="582" y="1332" on="0"/>
        <pt x="496" y="1317" on="0"/>
        <pt x="457" y="1297" on="1"/>
        <pt x="378" y="1256" on="0"/>
        <pt x="378" y="1131" on="1"/>
        <pt x="378" y="0" on="1"/>
      </contour>
    </TTGlyph>
    <TTGlyph name="grave" xMin="115" yMin="1165" xMax="478" yMax="1506">
      <contour>
        <pt x="372" y="1165" on="1"/>
        <pt x="115" y="1506" on="1"/>
        <pt x="340" y="1506" on="1"/>
        <pt x="478" y="1165" on="1"/>
      </contour>
    </TTGlyph>
    <TTGlyph name="greater" xMin="208" yMin="0" xMax="1094" yMax="1144">
      <contour>
        <pt x="208" y="0" on="1"/>
        <pt x="208" y="203" on="1"/>
        <pt x="939" y="571" on="1"/>
        <pt x="208" y="935" on="1"/>
        <pt x="208" y="1144" on="1"/>
        <pt x="1094" y="673" on="1"/>
        <pt x="1094" y="472" on="1"/>
      </contour>
    </TTGlyph>
    <TTGlyph name="greaterequal" xMin="172" yMin="-242" xMax="1094" yMax="1144">
      <component glyphName="greater" x="0" y="0" flags="0x1004"/>
      <component glyphName="underscore" x="158" y="-138" flags="0x1004"/>
    </TTGlyph>
    <TTGlyph name="guillemotleft" xMin="96" yMin="80" xMax="928" yMax="980">
      <contour>
        <pt x="376" y="80" on="1"/>
        <pt x="96" y="530" on="1"/>
        <pt x="369" y="980" on="1"/>
        <pt x="516" y="910" on="1"/>
        <pt x="309" y="530" on="1"/>
        <pt x="516" y="150" on="1"/>
      </contour>
      <contour>
        <pt x="790" y="80" on="1"/>
        <pt x="510" y="530" on="1"/>
        <pt x="783" y="980" on="1"/>
        <pt x="928" y="910" on="1"/>
        <pt x="723" y="530" on="1"/>
        <pt x="928" y="150" on="1"/>
      </contour>
    </TTGlyph>
    <TTGlyph name="guillemotright" xMin="126" yMin="80" xMax="958" yMax="980">
      <contour>
        <pt x="271" y="80" on="1"/>
        <pt x="126" y="150" on="1"/>
        <pt x="331" y="530" on="1"/>
        <pt x="126" y="910" on="1"/>
        <pt x="264" y="980" on="1"/>
        <pt x="544" y="530" on="1"/>
      </contour>
      <contour>
        <pt x="685" y="80" on="1"/>
        <pt x="538" y="150" on="1"/>
        <pt x="745" y="530" on="1"/>
        <pt x="538" y="910" on="1"/>
        <pt x="678" y="980" on="1"/>
        <pt x="958" y="530" on="1"/>
      </contour>
    </TTGlyph>
    <TTGlyph name="guilsinglleft" xMin="174" yMin="80" xMax="594" yMax="980">
      <contour>
        <pt x="454" y="80" on="1"/>
        <pt x="174" y="530" on="1"/>
        <pt x="447" y="980" on="1"/>
        <pt x="594" y="910" on="1"/>
        <pt x="387" y="530" on="1"/>
        <pt x="594" y="150" on="1"/>
      </contour>
    </TTGlyph>
    <TTGlyph name="guilsinglright" xMin="180" yMin="80" xMax="600" yMax="980">
      <contour>
        <pt x="327" y="80" on="1"/>
        <pt x="180" y="150" on="1"/>
        <pt x="387" y="530" on="1"/>
        <pt x="180" y="910" on="1"/>
        <pt x="320" y="980" on="1"/>
        <pt x="600" y="530" on="1"/>
      </contour>
    </TTGlyph>
    <TTGlyph name="h" xMin="186" yMin="0" xMax="1050" yMax="1505">
      <contour>
        <pt x="862" y="783" on="1"/>
        <pt x="862" y="936" on="0"/>
        <pt x="626" y="936" on="1"/>
        <pt x="508" y="936" on="0"/>
        <pt x="374" y="838" on="0"/>
        <pt x="374" y="758" on="1"/>
        <pt x="374" y="0" on="1"/>
        <pt x="186" y="0" on="1"/>
        <pt x="186" y="1505" on="1"/>
        <pt x="374" y="1505" on="1"/>
        <pt x="374" y="960" on="1"/>
        <pt x="477" y="1080" on="0"/>
        <pt x="690" y="1080" on="1"/>
        <pt x="960" y="1080" on="0"/>
        <pt x="1030" y="892" on="1"/>
        <pt x="1050" y="838" on="0"/>
        <pt x="1050" y="773" on="1"/>
        <pt x="1050" y="0" on="1"/>
        <pt x="862" y="0" on="1"/>
      </contour>
    </TTGlyph>
    <TTGlyph name="hbar" xMin="29" yMin="0" xMax="1050" yMax="1505">
      <contour>
        <pt x="862" y="783" on="1"/>
        <pt x="862" y="936" on="0"/>
        <pt x="626" y="936" on="1"/>
        <pt x="508" y="936" on="0"/>
        <pt x="374" y="838" on="0"/>
        <pt x="374" y="758" on="1"/>
        <pt x="374" y="0" on="1"/>
        <pt x="186" y="0" on="1"/>
        <pt x="186" y="1249" on="1"/>
        <pt x="29" y="1249" on="1"/>
        <pt x="29" y="1373" on="1"/>
        <pt x="186" y="1373" on="1"/>
        <pt x="186" y="1505" on="1"/>
        <pt x="374" y="1505" on="1"/>
        <pt x="374" y="1373" on="1"/>
        <pt x="844" y="1373" on="1"/>
        <pt x="844" y="1249" on="1"/>
        <pt x="374" y="1249" on="1"/>
        <pt x="374" y="960" on="1"/>
        <pt x="477" y="1080" on="0"/>
        <pt x="690" y="1080" on="1"/>
        <pt x="960" y="1080" on="0"/>
        <pt x="1030" y="892" on="1"/>
        <pt x="1050" y="838" on="0"/>
        <pt x="1050" y="773" on="1"/>
        <pt x="1050" y="0" on="1"/>
        <pt x="862" y="0" on="1"/>
      </contour>
    </TTGlyph>
    <TTGlyph name="hcircumflex" xMin="186" yMin="0" xMax="1050" yMax="1934">
      <component glyphName="circumflex" x="362" y="428" flags="0x1004"/>
      <component glyphName="h" x="0" y="0" flags="0x1204"/>
    </TTGlyph>
    <TTGlyph name="hungarumlaut" xMin="154" yMin="1031" xMax="870" yMax="1506">
      <contour>
        <pt x="154" y="1031" on="1"/>
        <pt x="260" y="1506" on="1"/>
        <pt x="471" y="1506" on="1"/>
        <pt x="252" y="1031" on="1"/>
      </contour>
      <contour>
        <pt x="451" y="1031" on="1"/>
        <pt x="651" y="1506" on="1"/>
        <pt x="870" y="1506" on="1"/>
        <pt x="574" y="1031" on="1"/>
      </contour>
    </TTGlyph>
    <TTGlyph name="hyphen" xMin="162" yMin="494" xMax="862" yMax="642">
      <contour>
        <pt x="162" y="494" on="1"/>
        <pt x="162" y="642" on="1"/>
        <pt x="862" y="642" on="1"/>
        <pt x="862" y="494" on="1"/>
      </contour>
    </TTGlyph>
    <TTGlyph name="i" xMin="206" yMin="0" xMax="394" yMax="1446">
      <contour>
        <pt x="206" y="0" on="1"/>
        <pt x="206" y="1060" on="1"/>
        <pt x="394" y="1060" on="1"/>
        <pt x="394" y="0" on="1"/>
      </contour>
      <contour>
        <pt x="206" y="1251" on="1"/>
        <pt x="206" y="1446" on="1"/>
        <pt x="394" y="1446" on="1"/>
        <pt x="394" y="1251" on="1"/>
      </contour>
    </TTGlyph>
    <TTGlyph name="iacute" xMin="206" yMin="0" xMax="592" yMax="1584">
      <component glyphName="acute" x="114" y="78" flags="0x1004"/>
      <component glyphName="dotlessi" x="0" y="0" flags="0x1204"/>
    </TTGlyph>
    <TTGlyph name="ibreve" xMin="74" yMin="0" xMax="526" yMax="1455">
      <component glyphName="breve" x="44" y="-51" flags="0x1004"/>
      <component glyphName="dotlessi" x="0" y="0" flags="0x1204"/>
    </TTGlyph>
    <TTGlyph name="icircumflex" xMin="14" yMin="0" xMax="586" yMax="1509">
      <component glyphName="circumflex" x="44" y="3" flags="0x1004"/>
      <component glyphName="dotlessi" x="0" y="0" flags="0x1204"/>
    </TTGlyph>
    <TTGlyph name="idieresis" xMin="-54" yMin="0" xMax="655" yMax="1424">
      <component glyphName="dieresis" x="-212" y="-22" flags="0x1004"/>
      <component glyphName="dotlessi" x="0" y="0" flags="0x1204"/>
    </TTGlyph>
    <TTGlyph name="igrave" xMin="-10" yMin="0" xMax="394" yMax="1584">
      <component glyphName="grave" x="-125" y="78" flags="0x1004"/>
      <component glyphName="dotlessi" x="0" y="0" flags="0x1204"/>
    </TTGlyph>
    <TTGlyph name="ij" xMin="206" yMin="-353" xMax="1016" yMax="1446">
      <component glyphName="j" x="596" y="0" flags="0x1004"/>
      <component glyphName="i" x="0" y="0" flags="0x1004"/>
    </TTGlyph>
    <TTGlyph name="imacron" xMin="100" yMin="0" xMax="501" yMax="1395">
      <component glyphName="uni02C9" x="44" y="-111" flags="0x1004"/>
      <component glyphName="dotlessi" x="0" y="0" flags="0x1204"/>
    </TTGlyph>
    <TTGlyph name="infinity" xMin="64" yMin="485" xMax="1586" yMax="1158">
      <contour>
        <pt x="376" y="616" on="1"/>
        <pt x="409" y="616" on="0"/>
        <pt x="579" y="722" on="0"/>
        <pt x="648" y="776" on="1"/>
        <pt x="717" y="829" on="1"/>
        <pt x="610" y="908" on="0"/>
        <pt x="409" y="1027" on="0"/>
        <pt x="376" y="1027" on="1"/>
        <pt x="302" y="1027" on="0"/>
        <pt x="220" y="905" on="0"/>
        <pt x="220" y="737" on="0"/>
        <pt x="302" y="616" on="0"/>
      </contour>
      <contour>
        <pt x="177" y="1101" on="0"/>
        <pt x="296" y="1158" on="0"/>
        <pt x="358" y="1158" on="1"/>
        <pt x="470" y="1158" on="0"/>
        <pt x="716" y="1014" on="0"/>
        <pt x="789" y="956" on="1"/>
        <pt x="818" y="933" on="1"/>
        <pt x="850" y="957" on="1"/>
        <pt x="1012" y="1080" on="0"/>
        <pt x="1164" y="1134" on="1"/>
        <pt x="1232" y="1158" on="0"/>
        <pt x="1281" y="1158" on="1"/>
        <pt x="1378" y="1158" on="0"/>
        <pt x="1520" y="1058" on="0"/>
        <pt x="1586" y="907" on="0"/>
        <pt x="1586" y="733" on="0"/>
        <pt x="1520" y="584" on="0"/>
        <pt x="1378" y="485" on="0"/>
        <pt x="1281" y="485" on="1"/>
        <pt x="1156" y="485" on="0"/>
        <pt x="930" y="647" on="1"/>
        <pt x="878" y="684" on="0"/>
        <pt x="848" y="710" on="1"/>
        <pt x="818" y="736" on="1"/>
        <pt x="642" y="576" on="0"/>
        <pt x="485" y="512" on="1"/>
        <pt x="419" y="485" on="0"/>
        <pt x="369" y="485" on="1"/>
        <pt x="272" y="485" on="0"/>
        <pt x="201" y="535" on="1"/>
        <pt x="64" y="631" on="0"/>
        <pt x="64" y="822" on="1"/>
        <pt x="64" y="954" on="0"/>
        <pt x="140" y="1053" on="1"/>
      </contour>
      <contour>
        <pt x="1261" y="1027" on="1"/>
        <pt x="1228" y="1027" on="0"/>
        <pt x="1057" y="926" on="0"/>
        <pt x="988" y="876" on="1"/>
        <pt x="919" y="826" on="1"/>
        <pt x="1010" y="753" on="0"/>
        <pt x="1228" y="616" on="0"/>
        <pt x="1261" y="616" on="1"/>
        <pt x="1335" y="616" on="0"/>
        <pt x="1417" y="737" on="0"/>
        <pt x="1417" y="905" on="0"/>
        <pt x="1335" y="1027" on="0"/>
      </contour>
    </TTGlyph>
    <TTGlyph name="integral" xMin="141" yMin="-380" xMax="710" yMax="1468">
      <contour>
        <pt x="251" y="-380" on="1"/>
        <pt x="197" y="-380" on="0"/>
        <pt x="141" y="-373" on="1"/>
        <pt x="141" y="-249" on="1"/>
        <pt x="158" y="-251" on="0"/>
        <pt x="214" y="-251" on="1"/>
        <pt x="334" y="-251" on="0"/>
        <pt x="333" y="-127" on="1"/>
        <pt x="333" y="1159" on="1"/>
        <pt x="333" y="1325" on="0"/>
        <pt x="453" y="1468" on="0"/>
        <pt x="606" y="1468" on="1"/>
        <pt x="653" y="1468" on="0"/>
        <pt x="710" y="1462" on="1"/>
        <pt x="710" y="1338" on="1"/>
        <pt x="698" y="1339" on="0"/>
        <pt x="664" y="1339" on="1"/>
        <pt x="579" y="1339" on="0"/>
        <pt x="521" y="1250" on="0"/>
        <pt x="521" y="1181" on="1"/>
        <pt x="521" y="-99" on="1"/>
        <pt x="521" y="-245" on="0"/>
        <pt x="398" y="-380" on="0"/>
      </contour>
    </TTGlyph>
    <TTGlyph name="iogonek" xMin="123" yMin="-470" xMax="416" yMax="1446">
      <component glyphName="ogonek" x="13" y="16" flags="0x1004"/>
      <component glyphName="i" x="0" y="0" flags="0x1204"/>
    </TTGlyph>
    <TTGlyph name="itilde" xMin="3" yMin="0" xMax="596" yMax="1486">
      <component glyphName="tilde" x="44" y="-20" flags="0x1004"/>
      <component glyphName="dotlessi" x="0" y="0" flags="0x1204"/>
    </TTGlyph>
    <TTGlyph name="j" xMin="13" yMin="-353" xMax="420" yMax="1446">
      <contour>
        <pt x="32" y="-353" on="1"/>
        <pt x="13" y="-197" on="1"/>
        <pt x="42" y="-197" on="1"/>
        <pt x="144" y="-197" on="0"/>
        <pt x="212" y="-144" on="0"/>
        <pt x="232" y="-67" on="0"/>
        <pt x="232" y="-4" on="1"/>
        <pt x="232" y="1060" on="1"/>
        <pt x="420" y="1060" on="1"/>
        <pt x="420" y="7" on="1"/>
        <pt x="420" y="-254" on="0"/>
        <pt x="300" y="-316" on="1"/>
        <pt x="229" y="-353" on="0"/>
        <pt x="98" y="-353" on="1"/>
      </contour>
      <contour>
        <pt x="232" y="1251" on="1"/>
        <pt x="232" y="1446" on="1"/>
        <pt x="420" y="1446" on="1"/>
        <pt x="420" y="1251" on="1"/>
      </contour>
    </TTGlyph>
    <TTGlyph name="jcircumflex" xMin="10" yMin="-353" xMax="582" yMax="1509">
      <component glyphName="circumflex" x="40" y="3" flags="0x1004"/>
      <component glyphName="uni0237" x="0" y="0" flags="0x1204"/>
    </TTGlyph>
    <TTGlyph name="k" xMin="186" yMin="0" xMax="1130" yMax="1506">
      <contour>
        <pt x="186" y="0" on="1"/>
        <pt x="186" y="1506" on="1"/>
        <pt x="374" y="1506" on="1"/>
        <pt x="374" y="524" on="1"/>
        <pt x="881" y="1060" on="1"/>
        <pt x="1087" y="1060" on="1"/>
        <pt x="656" y="594" on="1"/>
        <pt x="1130" y="0" on="1"/>
        <pt x="913" y="0" on="1"/>
        <pt x="533" y="492" on="1"/>
        <pt x="374" y="334" on="1"/>
        <pt x="374" y="0" on="1"/>
      </contour>
    </TTGlyph>
    <TTGlyph name="kcommaaccent" xMin="186" yMin="-734" xMax="1130" yMax="1506">
      <component glyphName="uni0326" x="274" y="-70" flags="0x1004"/>
      <component glyphName="k" x="0" y="0" flags="0x1204"/>
    </TTGlyph>
    <TTGlyph name="kgreenlandic" xMin="186" yMin="0" xMax="1122" yMax="1060">
      <contour>
        <pt x="374" y="510" on="1"/>
        <pt x="871" y="1060" on="1"/>
        <pt x="1079" y="1060" on="1"/>
        <pt x="665" y="583" on="1"/>
        <pt x="1122" y="0" on="1"/>
        <pt x="905" y="0" on="1"/>
        <pt x="521" y="498" on="1"/>
        <pt x="374" y="354" on="1"/>
        <pt x="374" y="0" on="1"/>
        <pt x="186" y="0" on="1"/>
        <pt x="186" y="1060" on="1"/>
        <pt x="374" y="1060" on="1"/>
      </contour>
    </TTGlyph>
    <TTGlyph name="l" xMin="190" yMin="-8" xMax="606" yMax="1505">
      <contour>
        <pt x="530" y="-8" on="1"/>
        <pt x="437" y="-8" on="0"/>
        <pt x="319" y="20" on="0"/>
        <pt x="274" y="59" on="1"/>
        <pt x="190" y="132" on="0"/>
        <pt x="190" y="358" on="1"/>
        <pt x="190" y="1505" on="1"/>
        <pt x="378" y="1505" on="1"/>
        <pt x="378" y="356" on="1"/>
        <pt x="378" y="228" on="0"/>
        <pt x="454" y="150" on="0"/>
        <pt x="573" y="150" on="1"/>
        <pt x="606" y="150" on="1"/>
        <pt x="584" y="-8" on="1"/>
      </contour>
    </TTGlyph>
    <TTGlyph name="lacute" xMin="190" yMin="-8" xMax="690" yMax="2009">
      <component glyphName="acute" x="212" y="503" flags="0x1004"/>
      <component glyphName="l" x="0" y="0" flags="0x1204"/>
    </TTGlyph>
    <TTGlyph name="lcaron" xMin="190" yMin="-8" xMax="953" yMax="1505">
      <component glyphName="comma" x="504" y="1272" flags="0x1004"/>
      <component glyphName="l" x="0" y="0" flags="0x1004"/>
    </TTGlyph>
    <TTGlyph name="lcommaaccent" xMin="190" yMin="-742" xMax="606" yMax="1505">
      <component glyphName="uni0326" x="14" y="-78" flags="0x1004"/>
      <component glyphName="l" x="0" y="0" flags="0x1204"/>
    </TTGlyph>
    <TTGlyph name="ldot" xMin="190" yMin="-8" xMax="1009" yMax="1505">
      <component glyphName="periodcentered" x="696" y="0" flags="0x1004"/>
      <component glyphName="l" x="0" y="0" flags="0x1004"/>
    </TTGlyph>
    <TTGlyph name="less" xMin="156" yMin="0" xMax="1042" yMax="1144">
      <contour>
        <pt x="1042" y="0" on="1"/>
        <pt x="156" y="471" on="1"/>
        <pt x="156" y="672" on="1"/>
        <pt x="1042" y="1144" on="1"/>
        <pt x="1042" y="941" on="1"/>
        <pt x="311" y="573" on="1"/>
        <pt x="1042" y="209" on="1"/>
      </contour>
    </TTGlyph>
    <TTGlyph name="lessequal" xMin="142" yMin="-252" xMax="1043" yMax="1144">
      <component glyphName="less" x="0" y="0" flags="0x1004"/>
      <component glyphName="underscore" x="128" y="-148" flags="0x1004"/>
    </TTGlyph>
    <TTGlyph name="logicalnot" xMin="98" yMin="333" xMax="721" yMax="692">
      <contour>
        <pt x="589" y="333" on="1"/>
        <pt x="589" y="556" on="1"/>
        <pt x="98" y="556" on="1"/>
        <pt x="98" y="692" on="1"/>
        <pt x="721" y="692" on="1"/>
        <pt x="721" y="333" on="1"/>
      </contour>
    </TTGlyph>
    <TTGlyph name="lozenge" xMin="116" yMin="0" xMax="988" yMax="1446">
      <contour>
        <pt x="480" y="0" on="1"/>
        <pt x="116" y="725" on="1"/>
        <pt x="480" y="1446" on="1"/>
        <pt x="650" y="1446" on="1"/>
        <pt x="988" y="725" on="1"/>
        <pt x="650" y="0" on="1"/>
      </contour>
      <contour>
        <pt x="567" y="160" on="1"/>
        <pt x="814" y="725" on="1"/>
        <pt x="567" y="1276" on="1"/>
        <pt x="295" y="725" on="1"/>
      </contour>
    </TTGlyph>
    <TTGlyph name="lslash" xMin="52" yMin="-8" xMax="606" yMax="1505">
      <contour>
        <pt x="530" y="-8" on="1"/>
        <pt x="437" y="-8" on="0"/>
        <pt x="319" y="20" on="0"/>
        <pt x="274" y="59" on="1"/>
        <pt x="190" y="132" on="0"/>
        <pt x="190" y="358" on="1"/>
        <pt x="190" y="684" on="1"/>
        <pt x="52" y="616" on="1"/>
        <pt x="52" y="740" on="1"/>
        <pt x="190" y="808" on="1"/>
        <pt x="190" y="1505" on="1"/>
        <pt x="378" y="1505" on="1"/>
        <pt x="378" y="900" on="1"/>
        <pt x="604" y="1011" on="1"/>
        <pt x="604" y="887" on="1"/>
        <pt x="378" y="776" on="1"/>
        <pt x="378" y="356" on="1"/>
        <pt x="378" y="228" on="0"/>
        <pt x="454" y="150" on="0"/>
        <pt x="573" y="150" on="1"/>
        <pt x="606" y="150" on="1"/>
        <pt x="584" y="-8" on="1"/>
      </contour>
    </TTGlyph>
    <TTGlyph name="m" xMin="186" yMin="0" xMax="1684" yMax="1080">
      <contour>
        <pt x="844" y="781" on="1"/>
        <pt x="844" y="936" on="0"/>
        <pt x="615" y="936" on="1"/>
        <pt x="499" y="936" on="0"/>
        <pt x="374" y="837" on="0"/>
        <pt x="374" y="755" on="1"/>
        <pt x="374" y="0" on="1"/>
        <pt x="186" y="0" on="1"/>
        <pt x="186" y="1060" on="1"/>
        <pt x="374" y="1060" on="1"/>
        <pt x="374" y="957" on="1"/>
        <pt x="480" y="1080" on="0"/>
        <pt x="905" y="1080" on="0"/>
        <pt x="989" y="941" on="1"/>
        <pt x="1014" y="965" on="1"/>
        <pt x="1129" y="1080" on="0"/>
        <pt x="1336" y="1080" on="1"/>
        <pt x="1603" y="1080" on="0"/>
        <pt x="1666" y="890" on="1"/>
        <pt x="1684" y="836" on="0"/>
        <pt x="1684" y="770" on="1"/>
        <pt x="1684" y="0" on="1"/>
        <pt x="1496" y="0" on="1"/>
        <pt x="1496" y="781" on="1"/>
        <pt x="1496" y="936" on="0"/>
        <pt x="1288" y="936" on="1"/>
        <pt x="1157" y="936" on="0"/>
        <pt x="1032" y="837" on="0"/>
        <pt x="1032" y="755" on="1"/>
        <pt x="1032" y="0" on="1"/>
        <pt x="844" y="0" on="1"/>
      </contour>
    </TTGlyph>
    <TTGlyph name="macron" xMin="32" yMin="1359" xMax="481" yMax="1506">
      <contour>
        <pt x="32" y="1359" on="1"/>
        <pt x="32" y="1506" on="1"/>
        <pt x="481" y="1506" on="1"/>
        <pt x="481" y="1359" on="1"/>
      </contour>
    </TTGlyph>
    <TTGlyph name="minus" xMin="142" yMin="439" xMax="769" yMax="609">
      <contour>
        <pt x="142" y="439" on="1"/>
        <pt x="142" y="609" on="1"/>
        <pt x="769" y="609" on="1"/>
        <pt x="769" y="439" on="1"/>
      </contour>
    </TTGlyph>
    <TTGlyph name="multiply" xMin="129" yMin="216" xMax="844" yMax="937">
      <contour>
        <pt x="239" y="216" on="1"/>
        <pt x="129" y="344" on="1"/>
        <pt x="366" y="576" on="1"/>
        <pt x="129" y="806" on="1"/>
        <pt x="239" y="937" on="1"/>
        <pt x="487" y="694" on="1"/>
        <pt x="735" y="937" on="1"/>
        <pt x="844" y="806" on="1"/>
        <pt x="608" y="576" on="1"/>
        <pt x="844" y="344" on="1"/>
        <pt x="735" y="216" on="1"/>
        <pt x="487" y="458" on="1"/>
      </contour>
    </TTGlyph>
    <TTGlyph name="n" xMin="186" yMin="0" xMax="1050" yMax="1080">
      <contour>
        <pt x="862" y="781" on="1"/>
        <pt x="862" y="936" on="0"/>
        <pt x="625" y="936" on="1"/>
        <pt x="508" y="936" on="0"/>
        <pt x="374" y="836" on="0"/>
        <pt x="374" y="755" on="1"/>
        <pt x="374" y="0" on="1"/>
        <pt x="186" y="0" on="1"/>
        <pt x="186" y="1060" on="1"/>
        <pt x="374" y="1060" on="1"/>
        <pt x="374" y="957" on="1"/>
        <pt x="480" y="1080" on="0"/>
        <pt x="688" y="1080" on="1"/>
        <pt x="958" y="1080" on="0"/>
        <pt x="1030" y="890" on="1"/>
        <pt x="1050" y="836" on="0"/>
        <pt x="1050" y="770" on="1"/>
        <pt x="1050" y="0" on="1"/>
        <pt x="862" y="0" on="1"/>
      </contour>
    </TTGlyph>
    <TTGlyph name="nacute" xMin="186" yMin="0" xMax="1050" yMax="1584">
      <component glyphName="acute" x="432" y="78" flags="0x1004"/>
      <component glyphName="n" x="0" y="0" flags="0x1204"/>
    </TTGlyph>
    <TTGlyph name="napostrophe" xMin="186" yMin="0" xMax="1050" yMax="1826">
      <component glyphName="n" x="0" y="0" flags="0x1004"/>
      <component glyphName="uni0326" x="-46" y="1919" flags="0x1004"/>
    </TTGlyph>
    <TTGlyph name="ncaron" xMin="186" yMin="0" xMax="1050" yMax="1509">
      <component glyphName="caron" x="362" y="3" flags="0x1004"/>
      <component glyphName="n" x="0" y="0" flags="0x1204"/>
    </TTGlyph>
    <TTGlyph name="ncommaaccent" xMin="186" yMin="-734" xMax="1050" yMax="1080">
      <component glyphName="uni0326" x="234" y="-70" flags="0x1004"/>
      <component glyphName="n" x="0" y="0" flags="0x1204"/>
    </TTGlyph>
    <TTGlyph name="nine" xMin="150" yMin="0" xMax="1106" yMax="1468">
      <contour>
        <pt x="451" y="0" on="1"/>
        <pt x="808" y="605" on="1"/>
        <pt x="724" y="568" on="0"/>
        <pt x="630" y="568" on="1"/>
        <pt x="398" y="568" on="0"/>
        <pt x="151" y="785" on="0"/>
        <pt x="151" y="1024" on="1"/>
        <pt x="150" y="1358" on="0"/>
        <pt x="444" y="1443" on="1"/>
        <pt x="530" y="1468" on="0"/>
        <pt x="637" y="1468" on="1"/>
        <pt x="855" y="1468" on="0"/>
        <pt x="1106" y="1250" on="0"/>
        <pt x="1106" y="802" on="0"/>
        <pt x="965" y="549" on="1"/>
        <pt x="651" y="0" on="1"/>
      </contour>
      <contour>
        <pt x="777" y="731" on="0"/>
        <pt x="919" y="862" on="0"/>
        <pt x="919" y="1183" on="0"/>
        <pt x="780" y="1306" on="0"/>
        <pt x="487" y="1306" on="0"/>
        <pt x="338" y="1183" on="0"/>
        <pt x="338" y="846" on="0"/>
        <pt x="492" y="731" on="0"/>
      </contour>
    </TTGlyph>
    <TTGlyph name="notequal" xMin="224" yMin="0" xMax="1026" yMax="1506">
      <component glyphName="fraction" x="242" y="0" flags="0x1004"/>
      <component glyphName="equal" x="0" y="0" flags="0x1004"/>
    </TTGlyph>
    <TTGlyph name="ntilde" xMin="186" yMin="0" xMax="1050" yMax="1486">
      <component glyphName="tilde" x="362" y="-20" flags="0x1004"/>
      <component glyphName="n" x="0" y="0" flags="0x1204"/>
    </TTGlyph>
    <TTGlyph name="numbersign" xMin="86" yMin="0" xMax="1198" yMax="1446">
      <contour>
        <pt x="180" y="0" on="1"/>
        <pt x="267" y="475" on="1"/>
        <pt x="86" y="475" on="1"/>
        <pt x="86" y="594" on="1"/>
        <pt x="289" y="594" on="1"/>
        <pt x="346" y="910" on="1"/>
        <pt x="110" y="910" on="1"/>
        <pt x="110" y="1029" on="1"/>
        <pt x="368" y="1029" on="1"/>
        <pt x="444" y="1446" on="1"/>
        <pt x="614" y="1446" on="1"/>
        <pt x="540" y="1029" on="1"/>
        <pt x="841" y="1029" on="1"/>
        <pt x="917" y="1446" on="1"/>
        <pt x="1087" y="1446" on="1"/>
        <pt x="1013" y="1029" on="1"/>
        <pt x="1198" y="1029" on="1"/>
        <pt x="1198" y="910" on="1"/>
        <pt x="992" y="910" on="1"/>
        <pt x="936" y="594" on="1"/>
        <pt x="1174" y="594" on="1"/>
        <pt x="1174" y="475" on="1"/>
        <pt x="915" y="475" on="1"/>
        <pt x="831" y="0" on="1"/>
        <pt x="653" y="0" on="1"/>
        <pt x="740" y="475" on="1"/>
        <pt x="442" y="475" on="1"/>
        <pt x="358" y="0" on="1"/>
      </contour>
      <contour>
        <pt x="463" y="594" on="1"/>
        <pt x="762" y="594" on="1"/>
        <pt x="819" y="910" on="1"/>
        <pt x="519" y="910" on="1"/>
      </contour>
    </TTGlyph>
    <TTGlyph name="o" xMin="148" yMin="-22" xMax="1026" yMax="1080">
      <contour>
        <pt x="336" y="122" on="0"/>
        <pt x="838" y="122" on="0"/>
        <pt x="838" y="299" on="1"/>
        <pt x="838" y="758" on="1"/>
        <pt x="838" y="936" on="0"/>
        <pt x="336" y="936" on="0"/>
        <pt x="336" y="758" on="1"/>
        <pt x="336" y="299" on="1"/>
      </contour>
      <contour>
        <pt x="1026" y="159" on="0"/>
        <pt x="813" y="-22" on="0"/>
        <pt x="359" y="-22" on="0"/>
        <pt x="148" y="158" on="0"/>
        <pt x="148" y="315" on="1"/>
        <pt x="148" y="742" on="1"/>
        <pt x="148" y="899" on="0"/>
        <pt x="359" y="1080" on="0"/>
        <pt x="813" y="1080" on="0"/>
        <pt x="1026" y="898" on="0"/>
        <pt x="1026" y="742" on="1"/>
        <pt x="1026" y="315" on="1"/>
      </contour>
    </TTGlyph>
    <TTGlyph name="oacute" xMin="148" yMin="-22" xMax="1026" yMax="1584">
      <component glyphName="acute" x="401" y="78" flags="0x1004"/>
      <component glyphName="o" x="0" y="0" flags="0x1204"/>
    </TTGlyph>
    <TTGlyph name="obreve" xMin="148" yMin="-22" xMax="1026" yMax="1455">
      <component glyphName="breve" x="331" y="-51" flags="0x1004"/>
      <component glyphName="o" x="0" y="0" flags="0x1204"/>
    </TTGlyph>
    <TTGlyph name="ocircumflex" xMin="148" yMin="-22" xMax="1026" yMax="1509">
      <component glyphName="circumflex" x="331" y="3" flags="0x1004"/>
      <component glyphName="o" x="0" y="0" flags="0x1204"/>
    </TTGlyph>
    <TTGlyph name="odieresis" xMin="148" yMin="-22" xMax="1026" yMax="1424">
      <component glyphName="dieresis" x="74" y="-22" flags="0x1004"/>
      <component glyphName="o" x="0" y="0" flags="0x1204"/>
    </TTGlyph>
    <TTGlyph name="oe" xMin="150" yMin="-20" xMax="1604" yMax="1080">
      <contour>
        <pt x="569" y="-20" on="1"/>
        <pt x="150" y="-20" on="0"/>
        <pt x="150" y="317" on="1"/>
        <pt x="150" y="747" on="1"/>
        <pt x="150" y="899" on="0"/>
        <pt x="374" y="1080" on="0"/>
        <pt x="785" y="1080" on="0"/>
        <pt x="883" y="950" on="1"/>
        <pt x="975" y="1080" on="0"/>
        <pt x="1401" y="1080" on="0"/>
        <pt x="1604" y="912" on="0"/>
        <pt x="1604" y="758" on="1"/>
        <pt x="1604" y="506" on="1"/>
        <pt x="979" y="506" on="1"/>
        <pt x="979" y="328" on="1"/>
        <pt x="979" y="222" on="0"/>
        <pt x="1087" y="121" on="0"/>
        <pt x="1265" y="121" on="0"/>
        <pt x="1304" y="128" on="1"/>
        <pt x="1342" y="136" on="0"/>
        <pt x="1372" y="158" on="1"/>
        <pt x="1423" y="196" on="0"/>
        <pt x="1433" y="331" on="1"/>
        <pt x="1603" y="331" on="1"/>
        <pt x="1587" y="135" on="0"/>
        <pt x="1413" y="-20" on="0"/>
        <pt x="987" y="-20" on="0"/>
        <pt x="883" y="122" on="1"/>
        <pt x="785" y="-20" on="0"/>
      </contour>
      <contour>
        <pt x="569" y="121" on="1"/>
        <pt x="791" y="121" on="0"/>
        <pt x="791" y="301" on="1"/>
        <pt x="791" y="763" on="1"/>
        <pt x="791" y="855" on="0"/>
        <pt x="680" y="938" on="0"/>
        <pt x="458" y="938" on="0"/>
        <pt x="338" y="857" on="0"/>
        <pt x="338" y="763" on="1"/>
        <pt x="338" y="301" on="1"/>
        <pt x="338" y="206" on="0"/>
        <pt x="455" y="121" on="0"/>
      </contour>
      <contour>
        <pt x="979" y="633" on="1"/>
        <pt x="1422" y="633" on="1"/>
        <pt x="1422" y="778" on="1"/>
        <pt x="1422" y="869" on="0"/>
        <pt x="1314" y="938" on="0"/>
        <pt x="1083" y="938" on="0"/>
        <pt x="979" y="857" on="0"/>
        <pt x="979" y="760" on="1"/>
      </contour>
    </TTGlyph>
    <TTGlyph name="ogonek" xMin="110" yMin="-486" xMax="403" yMax="0">
      <contour>
        <pt x="403" y="-486" on="1"/>
        <pt x="269" y="-486" on="0"/>
        <pt x="110" y="-380" on="0"/>
        <pt x="110" y="-291" on="1"/>
        <pt x="110" y="-154" on="0"/>
        <pt x="292" y="0" on="1"/>
        <pt x="354" y="0" on="1"/>
        <pt x="303" y="-49" on="0"/>
        <pt x="234" y="-192" on="0"/>
        <pt x="234" y="-255" on="1"/>
        <pt x="234" y="-389" on="0"/>
        <pt x="403" y="-389" on="1"/>
      </contour>
    </TTGlyph>
    <TTGlyph name="ograve" xMin="148" yMin="-22" xMax="1026" yMax="1584">
      <component glyphName="grave" x="162" y="78" flags="0x1004"/>
      <component glyphName="o" x="0" y="0" flags="0x1204"/>
    </TTGlyph>
    <TTGlyph name="ohungarumlaut" xMin="148" yMin="-22" xMax="1093" yMax="1718">
      <component glyphName="hungarumlaut" x="223" y="212" flags="0x1004"/>
      <component glyphName="o" x="0" y="0" flags="0x1204"/>
    </TTGlyph>
    <TTGlyph name="omacron" xMin="148" yMin="-22" xMax="1026" yMax="1395">
      <component glyphName="uni02C9" x="330" y="-111" flags="0x1004"/>
      <component glyphName="o" x="0" y="0" flags="0x1204"/>
    </TTGlyph>
    <TTGlyph name="one" xMin="206" yMin="0" xMax="1162" yMax="1446">
      <contour>
        <pt x="206" y="0" on="1"/>
        <pt x="206" y="155" on="1"/>
        <pt x="607" y="155" on="1"/>
        <pt x="607" y="1277" on="1"/>
        <pt x="233" y="1237" on="1"/>
        <pt x="215" y="1396" on="1"/>
        <pt x="644" y="1446" on="1"/>
        <pt x="808" y="1446" on="1"/>
        <pt x="808" y="155" on="1"/>
        <pt x="1162" y="155" on="1"/>
        <pt x="1162" y="0" on="1"/>
      </contour>
    </TTGlyph>
    <TTGlyph name="onehalf" xMin="164" yMin="0" xMax="1883" yMax="1505">
      <contour>
        <pt x="1371" y="2" on="1"/>
        <pt x="1360" y="94" on="1"/>
        <pt x="1643" y="413" on="1"/>
        <pt x="1746" y="524" on="0"/>
        <pt x="1756" y="570" on="1"/>
        <pt x="1762" y="594" on="0"/>
        <pt x="1762" y="672" on="0"/>
        <pt x="1747" y="703" on="1"/>
        <pt x="1717" y="765" on="0"/>
        <pt x="1520" y="765" on="0"/>
        <pt x="1449" y="703" on="0"/>
        <pt x="1449" y="605" on="1"/>
        <pt x="1332" y="605" on="1"/>
        <pt x="1332" y="738" on="0"/>
        <pt x="1482" y="867" on="0"/>
        <pt x="1744" y="867" on="0"/>
        <pt x="1879" y="731" on="0"/>
        <pt x="1879" y="625" on="1"/>
        <pt x="1879" y="564" on="0"/>
        <pt x="1851" y="502" on="0"/>
        <pt x="1840" y="474" on="0"/>
        <pt x="1798" y="422" on="0"/>
        <pt x="1787" y="407" on="0"/>
        <pt x="1730" y="345" on="0"/>
        <pt x="1725" y="339" on="1"/>
        <pt x="1512" y="101" on="1"/>
        <pt x="1883" y="101" on="1"/>
        <pt x="1883" y="2" on="1"/>
      </contour>
      <contour>
        <pt x="164" y="654" on="1"/>
        <pt x="164" y="755" on="1"/>
        <pt x="438" y="755" on="1"/>
        <pt x="438" y="1394" on="1"/>
        <pt x="182" y="1368" on="1"/>
        <pt x="170" y="1472" on="1"/>
        <pt x="462" y="1505" on="1"/>
        <pt x="569" y="1505" on="1"/>
        <pt x="569" y="755" on="1"/>
        <pt x="800" y="755" on="1"/>
        <pt x="800" y="654" on="1"/>
      </contour>
      <contour>
        <pt x="687" y="0" on="1"/>
        <pt x="1371" y="1446" on="1"/>
        <pt x="1497" y="1446" on="1"/>
        <pt x="819" y="0" on="1"/>
      </contour>
    </TTGlyph>
    <TTGlyph name="onequarter" xMin="164" yMin="0" xMax="1912" yMax="1505">
      <contour>
        <pt x="164" y="654" on="1"/>
        <pt x="164" y="755" on="1"/>
        <pt x="438" y="755" on="1"/>
        <pt x="438" y="1394" on="1"/>
        <pt x="182" y="1368" on="1"/>
        <pt x="170" y="1472" on="1"/>
        <pt x="462" y="1505" on="1"/>
        <pt x="569" y="1505" on="1"/>
        <pt x="569" y="755" on="1"/>
        <pt x="800" y="755" on="1"/>
        <pt x="800" y="654" on="1"/>
      </contour>
      <contour>
        <pt x="687" y="0" on="1"/>
        <pt x="1371" y="1446" on="1"/>
        <pt x="1497" y="1446" on="1"/>
        <pt x="819" y="0" on="1"/>
      </contour>
      <contour>
        <pt x="1655" y="0" on="1"/>
        <pt x="1655" y="207" on="1"/>
        <pt x="1221" y="207" on="1"/>
        <pt x="1221" y="299" on="1"/>
        <pt x="1580" y="892" on="1"/>
        <pt x="1721" y="892" on="1"/>
        <pt x="1373" y="298" on="1"/>
        <pt x="1655" y="298" on="1"/>
        <pt x="1655" y="533" on="1"/>
        <pt x="1768" y="533" on="1"/>
        <pt x="1768" y="298" on="1"/>
        <pt x="1912" y="298" on="1"/>
        <pt x="1912" y="207" on="1"/>
        <pt x="1768" y="207" on="1"/>
        <pt x="1768" y="0" on="1"/>
      </contour>
    </TTGlyph>
    <TTGlyph name="ordfeminine" xMin="186" yMin="502" xMax="950" yMax="1446">
      <component glyphName="a" x="80" y="521" scalex="0.805786132812" scaley="0.856079101562" flags="0x1004"/>
    </TTGlyph>
    <TTGlyph name="ordmasculine" xMin="156" yMin="496" xMax="867" yMax="1444">
      <component glyphName="o" x="36" y="515" scalex="0.809814453125" scaley="0.8603515625" flags="0x1004"/>
    </TTGlyph>
    <TTGlyph name="oslash" xMin="148" yMin="-226" xMax="1026" yMax="1251">
      <contour>
        <pt x="1026" y="159" on="0"/>
        <pt x="813" y="-22" on="0"/>
        <pt x="586" y="-22" on="1"/>
        <pt x="507" y="-22" on="0"/>
        <pt x="443" y="-11" on="1"/>
        <pt x="363" y="-226" on="1"/>
        <pt x="271" y="-195" on="1"/>
        <pt x="349" y="13" on="1"/>
        <pt x="294" y="34" on="0"/>
        <pt x="254" y="68" on="1"/>
        <pt x="148" y="158" on="0"/>
        <pt x="148" y="315" on="1"/>
        <pt x="148" y="742" on="1"/>
        <pt x="148" y="899" on="0"/>
        <pt x="359" y="1080" on="0"/>
        <pt x="586" y="1080" on="1"/>
        <pt x="673" y="1080" on="0"/>
        <pt x="742" y="1067" on="1"/>
        <pt x="811" y="1251" on="1"/>
        <pt x="901" y="1220" on="1"/>
        <pt x="834" y="1040" on="1"/>
        <pt x="884" y="1020" on="0"/>
        <pt x="920" y="989" on="1"/>
        <pt x="1026" y="898" on="0"/>
        <pt x="1026" y="742" on="1"/>
        <pt x="1026" y="315" on="1"/>
      </contour>
      <contour>
        <pt x="587" y="122" on="1"/>
        <pt x="838" y="122" on="0"/>
        <pt x="838" y="299" on="1"/>
        <pt x="838" y="758" on="1"/>
        <pt x="838" y="845" on="0"/>
        <pt x="778" y="889" on="1"/>
        <pt x="495" y="129" on="1"/>
        <pt x="536" y="122" on="0"/>
      </contour>
      <contour>
        <pt x="690" y="926" on="1"/>
        <pt x="645" y="936" on="0"/>
        <pt x="587" y="936" on="1"/>
        <pt x="336" y="936" on="0"/>
        <pt x="336" y="758" on="1"/>
        <pt x="336" y="299" on="1"/>
        <pt x="336" y="207" on="0"/>
        <pt x="404" y="162" on="1"/>
      </contour>
    </TTGlyph>
    <TTGlyph name="otilde" xMin="148" yMin="-22" xMax="1026" yMax="1486">
      <component glyphName="tilde" x="332" y="-20" flags="0x1004"/>
      <component glyphName="o" x="0" y="0" flags="0x1204"/>
    </TTGlyph>
    <TTGlyph name="p" xMin="186" yMin="-408" xMax="1050" yMax="1080">
      <contour>
        <pt x="186" y="-408" on="1"/>
        <pt x="186" y="1060" on="1"/>
        <pt x="334" y="1060" on="1"/>
        <pt x="356" y="980" on="1"/>
        <pt x="402" y="1021" on="0"/>
        <pt x="562" y="1080" on="0"/>
        <pt x="648" y="1080" on="1"/>
        <pt x="845" y="1080" on="0"/>
        <pt x="1050" y="888" on="0"/>
        <pt x="1050" y="729" on="1"/>
        <pt x="1050" y="344" on="1"/>
        <pt x="1050" y="180" on="0"/>
        <pt x="826" y="-22" on="0"/>
        <pt x="624" y="-22" on="1"/>
        <pt x="484" y="-22" on="0"/>
        <pt x="374" y="34" on="1"/>
        <pt x="374" y="-408" on="1"/>
      </contour>
      <contour>
        <pt x="374" y="179" on="1"/>
        <pt x="475" y="122" on="0"/>
        <pt x="725" y="122" on="0"/>
        <pt x="862" y="228" on="0"/>
        <pt x="862" y="324" on="1"/>
        <pt x="862" y="744" on="1"/>
        <pt x="862" y="836" on="0"/>
        <pt x="727" y="936" on="0"/>
        <pt x="532" y="936" on="0"/>
        <pt x="395" y="856" on="0"/>
        <pt x="374" y="824" on="1"/>
      </contour>
    </TTGlyph>
    <TTGlyph name="paragraph" xMin="168" yMin="0" xMax="961" yMax="1446">
      <contour>
        <pt x="485" y="0" on="1"/>
        <pt x="485" y="870" on="1"/>
        <pt x="350" y="873" on="0"/>
        <pt x="168" y="1026" on="0"/>
        <pt x="168" y="1156" on="1"/>
        <pt x="168" y="1376" on="0"/>
        <pt x="384" y="1430" on="1"/>
        <pt x="446" y="1446" on="0"/>
        <pt x="521" y="1446" on="1"/>
        <pt x="961" y="1446" on="1"/>
        <pt x="961" y="0" on="1"/>
        <pt x="825" y="0" on="1"/>
        <pt x="825" y="1338" on="1"/>
        <pt x="621" y="1338" on="1"/>
        <pt x="621" y="0" on="1"/>
      </contour>
    </TTGlyph>
    <TTGlyph name="parenleft" xMin="172" yMin="-150" xMax="644" yMax="1567">
      <contour>
        <pt x="644" y="-150" on="1"/>
        <pt x="507" y="-150" on="0"/>
        <pt x="395" y="-111" on="1"/>
        <pt x="326" y="-87" on="0"/>
        <pt x="254" y="-4" on="1"/>
        <pt x="218" y="37" on="0"/>
        <pt x="174" y="218" on="0"/>
        <pt x="172" y="374" on="0"/>
        <pt x="172" y="440" on="1"/>
        <pt x="172" y="959" on="1"/>
        <pt x="172" y="1161" on="0"/>
        <pt x="192" y="1258" on="0"/>
        <pt x="214" y="1351" on="0"/>
        <pt x="250" y="1406" on="0"/>
        <pt x="300" y="1475" on="0"/>
        <pt x="370" y="1514" on="0"/>
        <pt x="497" y="1567" on="0"/>
        <pt x="644" y="1567" on="1"/>
        <pt x="644" y="1416" on="1"/>
        <pt x="468" y="1416" on="0"/>
        <pt x="417" y="1330" on="1"/>
        <pt x="397" y="1296" on="0"/>
        <pt x="364" y="1214" on="0"/>
        <pt x="364" y="996" on="1"/>
        <pt x="364" y="409" on="1"/>
        <pt x="364" y="194" on="0"/>
        <pt x="380" y="154" on="1"/>
        <pt x="420" y="57" on="0"/>
        <pt x="467" y="35" on="1"/>
        <pt x="542" y="0" on="0"/>
        <pt x="644" y="0" on="1"/>
      </contour>
    </TTGlyph>
    <TTGlyph name="parenright" xMin="124" yMin="-150" xMax="596" yMax="1567">
      <contour>
        <pt x="124" y="-150" on="1"/>
        <pt x="124" y="1" on="1"/>
        <pt x="300" y="0" on="0"/>
        <pt x="351" y="86" on="1"/>
        <pt x="371" y="120" on="0"/>
        <pt x="404" y="203" on="0"/>
        <pt x="404" y="421" on="1"/>
        <pt x="404" y="1008" on="1"/>
        <pt x="404" y="1223" on="0"/>
        <pt x="388" y="1263" on="1"/>
        <pt x="348" y="1360" on="0"/>
        <pt x="301" y="1382" on="1"/>
        <pt x="226" y="1417" on="0"/>
        <pt x="124" y="1417" on="1"/>
        <pt x="124" y="1567" on="1"/>
        <pt x="261" y="1567" on="0"/>
        <pt x="373" y="1528" on="1"/>
        <pt x="442" y="1504" on="0"/>
        <pt x="514" y="1421" on="1"/>
        <pt x="550" y="1380" on="0"/>
        <pt x="594" y="1199" on="0"/>
        <pt x="596" y="1043" on="0"/>
        <pt x="596" y="977" on="1"/>
        <pt x="596" y="458" on="1"/>
        <pt x="596" y="256" on="0"/>
        <pt x="576" y="159" on="0"/>
        <pt x="554" y="66" on="0"/>
        <pt x="518" y="11" on="0"/>
        <pt x="468" y="-58" on="0"/>
        <pt x="398" y="-97" on="0"/>
        <pt x="271" y="-150" on="0"/>
      </contour>
    </TTGlyph>
    <TTGlyph name="percent" xMin="172" yMin="-19" xMax="1876" yMax="1481">
      <contour>
        <pt x="470" y="794" on="1"/>
        <pt x="584" y="794" on="0"/>
        <pt x="612" y="893" on="1"/>
        <pt x="628" y="947" on="0"/>
        <pt x="627" y="1040" on="1"/>
        <pt x="627" y="1133" on="1"/>
        <pt x="627" y="1281" on="0"/>
        <pt x="550" y="1365" on="0"/>
        <pt x="489" y="1365" on="1"/>
        <pt x="428" y="1366" on="0"/>
        <pt x="399" y="1354" on="1"/>
        <pt x="344" y="1332" on="0"/>
        <pt x="315" y="1223" on="0"/>
        <pt x="315" y="1135" on="1"/>
        <pt x="315" y="1040" on="1"/>
        <pt x="315" y="890" on="0"/>
        <pt x="392" y="794" on="0"/>
      </contour>
      <contour>
        <pt x="772" y="873" on="0"/>
        <pt x="634" y="678" on="0"/>
        <pt x="307" y="678" on="0"/>
        <pt x="172" y="873" on="0"/>
        <pt x="172" y="1057" on="1"/>
        <pt x="172" y="1110" on="1"/>
        <pt x="172" y="1296" on="0"/>
        <pt x="305" y="1481" on="0"/>
        <pt x="639" y="1481" on="0"/>
        <pt x="770" y="1291" on="0"/>
        <pt x="772" y="1111" on="1"/>
        <pt x="772" y="1057" on="1"/>
      </contour>
      <contour>
        <pt x="1574" y="97" on="1"/>
        <pt x="1688" y="97" on="0"/>
        <pt x="1716" y="196" on="1"/>
        <pt x="1732" y="250" on="0"/>
        <pt x="1731" y="343" on="1"/>
        <pt x="1731" y="436" on="1"/>
        <pt x="1731" y="584" on="0"/>
        <pt x="1654" y="668" on="0"/>
        <pt x="1532" y="668" on="0"/>
        <pt x="1503" y="656" on="1"/>
        <pt x="1448" y="634" on="0"/>
        <pt x="1419" y="526" on="0"/>
        <pt x="1419" y="438" on="1"/>
        <pt x="1419" y="343" on="1"/>
        <pt x="1419" y="193" on="0"/>
        <pt x="1496" y="97" on="0"/>
      </contour>
      <contour>
        <pt x="1876" y="176" on="0"/>
        <pt x="1738" y="-19" on="0"/>
        <pt x="1411" y="-19" on="0"/>
        <pt x="1276" y="176" on="0"/>
        <pt x="1276" y="360" on="1"/>
        <pt x="1276" y="413" on="1"/>
        <pt x="1276" y="599" on="0"/>
        <pt x="1409" y="784" on="0"/>
        <pt x="1743" y="784" on="0"/>
        <pt x="1874" y="594" on="0"/>
        <pt x="1876" y="414" on="1"/>
        <pt x="1876" y="360" on="1"/>
      </contour>
      <contour>
        <pt x="668" y="0" on="1"/>
        <pt x="1211" y="1446" on="1"/>
        <pt x="1360" y="1446" on="1"/>
        <pt x="822" y="0" on="1"/>
      </contour>
    </TTGlyph>
    <TTGlyph name="period" xMin="186" yMin="0" xMax="442" yMax="242">
      <contour>
        <pt x="186" y="0" on="1"/>
        <pt x="186" y="242" on="1"/>
        <pt x="442" y="242" on="1"/>
        <pt x="442" y="0" on="1"/>
      </contour>
    </TTGlyph>
    <TTGlyph name="periodcentered" xMin="108" yMin="1277" xMax="313" yMax="1483">
      <contour>
        <pt x="108" y="1277" on="1"/>
        <pt x="108" y="1483" on="1"/>
        <pt x="313" y="1483" on="1"/>
        <pt x="313" y="1277" on="1"/>
      </contour>
    </TTGlyph>
    <TTGlyph name="perthousand" xMin="209" yMin="-19" xMax="2692" yMax="1461">
      <contour>
        <pt x="507" y="774" on="1"/>
        <pt x="620" y="774" on="0"/>
        <pt x="648" y="873" on="1"/>
        <pt x="664" y="927" on="0"/>
        <pt x="664" y="1020" on="1"/>
        <pt x="664" y="1113" on="1"/>
        <pt x="664" y="1261" on="0"/>
        <pt x="587" y="1345" on="0"/>
        <pt x="526" y="1345" on="1"/>
        <pt x="465" y="1346" on="0"/>
        <pt x="436" y="1334" on="1"/>
        <pt x="381" y="1312" on="0"/>
        <pt x="352" y="1203" on="0"/>
        <pt x="352" y="1115" on="1"/>
        <pt x="352" y="1020" on="1"/>
        <pt x="352" y="870" on="0"/>
        <pt x="429" y="774" on="0"/>
      </contour>
      <contour>
        <pt x="809" y="853" on="0"/>
        <pt x="671" y="658" on="0"/>
        <pt x="344" y="658" on="0"/>
        <pt x="209" y="853" on="0"/>
        <pt x="209" y="1037" on="1"/>
        <pt x="209" y="1090" on="1"/>
        <pt x="209" y="1276" on="0"/>
        <pt x="342" y="1461" on="0"/>
        <pt x="676" y="1461" on="0"/>
        <pt x="807" y="1271" on="0"/>
        <pt x="809" y="1091" on="1"/>
        <pt x="809" y="1037" on="1"/>
      </contour>
      <contour>
        <pt x="1611" y="97" on="1"/>
        <pt x="1724" y="97" on="0"/>
        <pt x="1752" y="196" on="1"/>
        <pt x="1768" y="250" on="0"/>
        <pt x="1768" y="343" on="1"/>
        <pt x="1768" y="436" on="1"/>
        <pt x="1768" y="584" on="0"/>
        <pt x="1691" y="668" on="0"/>
        <pt x="1569" y="668" on="0"/>
        <pt x="1540" y="656" on="1"/>
        <pt x="1485" y="634" on="0"/>
        <pt x="1456" y="526" on="0"/>
        <pt x="1456" y="438" on="1"/>
        <pt x="1456" y="343" on="1"/>
        <pt x="1456" y="193" on="0"/>
        <pt x="1533" y="97" on="0"/>
      </contour>
      <contour>
        <pt x="1913" y="176" on="0"/>
        <pt x="1775" y="-19" on="0"/>
        <pt x="1448" y="-19" on="0"/>
        <pt x="1313" y="176" on="0"/>
        <pt x="1313" y="360" on="1"/>
        <pt x="1313" y="413" on="1"/>
        <pt x="1313" y="599" on="0"/>
        <pt x="1446" y="784" on="0"/>
        <pt x="1780" y="784" on="0"/>
        <pt x="1911" y="594" on="0"/>
        <pt x="1913" y="414" on="1"/>
        <pt x="1913" y="360" on="1"/>
      </contour>
      <contour>
        <pt x="2390" y="97" on="1"/>
        <pt x="2504" y="97" on="0"/>
        <pt x="2532" y="196" on="1"/>
        <pt x="2548" y="250" on="0"/>
        <pt x="2547" y="343" on="1"/>
        <pt x="2547" y="436" on="1"/>
        <pt x="2547" y="584" on="0"/>
        <pt x="2470" y="668" on="0"/>
        <pt x="2348" y="668" on="0"/>
        <pt x="2319" y="656" on="1"/>
        <pt x="2264" y="634" on="0"/>
        <pt x="2235" y="526" on="0"/>
        <pt x="2235" y="438" on="1"/>
        <pt x="2235" y="343" on="1"/>
        <pt x="2235" y="193" on="0"/>
        <pt x="2312" y="97" on="0"/>
      </contour>
      <contour>
        <pt x="2692" y="176" on="0"/>
        <pt x="2554" y="-19" on="0"/>
        <pt x="2227" y="-19" on="0"/>
        <pt x="2092" y="176" on="0"/>
        <pt x="2092" y="360" on="1"/>
        <pt x="2092" y="413" on="1"/>
        <pt x="2092" y="599" on="0"/>
        <pt x="2225" y="784" on="0"/>
        <pt x="2559" y="784" on="0"/>
        <pt x="2690" y="594" on="0"/>
        <pt x="2692" y="414" on="1"/>
        <pt x="2692" y="360" on="1"/>
      </contour>
      <contour>
        <pt x="705" y="0" on="1"/>
        <pt x="1248" y="1446" on="1"/>
        <pt x="1397" y="1446" on="1"/>
        <pt x="859" y="0" on="1"/>
      </contour>
    </TTGlyph>
    <TTGlyph name="plus" xMin="162" yMin="156" xMax="862" yMax="968">
      <contour>
        <pt x="437" y="156" on="1"/>
        <pt x="437" y="494" on="1"/>
        <pt x="162" y="494" on="1"/>
        <pt x="162" y="642" on="1"/>
        <pt x="437" y="642" on="1"/>
        <pt x="437" y="968" on="1"/>
        <pt x="588" y="968" on="1"/>
        <pt x="588" y="642" on="1"/>
        <pt x="862" y="642" on="1"/>
        <pt x="862" y="494" on="1"/>
        <pt x="588" y="494" on="1"/>
        <pt x="588" y="156" on="1"/>
      </contour>
    </TTGlyph>
    <TTGlyph name="plusminus" xMin="207" yMin="0" xMax="834" yMax="992">
      <contour>
        <pt x="460" y="334" on="1"/>
        <pt x="460" y="611" on="1"/>
        <pt x="207" y="611" on="1"/>
        <pt x="207" y="726" on="1"/>
        <pt x="460" y="726" on="1"/>
        <pt x="460" y="992" on="1"/>
        <pt x="581" y="992" on="1"/>
        <pt x="581" y="726" on="1"/>
        <pt x="834" y="726" on="1"/>
        <pt x="834" y="611" on="1"/>
        <pt x="581" y="611" on="1"/>
        <pt x="581" y="334" on="1"/>
      </contour>
      <contour>
        <pt x="207" y="0" on="1"/>
        <pt x="207" y="120" on="1"/>
        <pt x="834" y="120" on="1"/>
        <pt x="834" y="0" on="1"/>
      </contour>
    </TTGlyph>
    <TTGlyph name="product" xMin="160" yMin="-14" xMax="1632" yMax="1456">
      <contour>
        <pt x="660" y="319" on="1"/>
        <pt x="660" y="1153" on="1"/>
        <pt x="982" y="1153" on="1"/>
        <pt x="1239" y="1153" on="0"/>
        <pt x="1245" y="908" on="1"/>
        <pt x="1245" y="894" on="1"/>
        <pt x="1245" y="781" on="0"/>
        <pt x="1122" y="652" on="0"/>
        <pt x="969" y="652" on="1"/>
        <pt x="791" y="652" on="1"/>
        <pt x="791" y="319" on="1"/>
      </contour>
      <contour>
        <pt x="791" y="742" on="1"/>
        <pt x="977" y="742" on="1"/>
        <pt x="1111" y="742" on="0"/>
        <pt x="1113" y="877" on="1"/>
        <pt x="1113" y="901" on="1"/>
        <pt x="1113" y="1062" on="0"/>
        <pt x="986" y="1062" on="1"/>
        <pt x="791" y="1062" on="1"/>
      </contour>
      <contour>
        <pt x="430" y="249" on="0"/>
        <pt x="719" y="82" on="0"/>
        <pt x="1078" y="82" on="0"/>
        <pt x="1366" y="249" on="0"/>
        <pt x="1526" y="541" on="0"/>
        <pt x="1526" y="902" on="0"/>
        <pt x="1366" y="1194" on="0"/>
        <pt x="1078" y="1361" on="0"/>
        <pt x="719" y="1361" on="0"/>
        <pt x="430" y="1194" on="0"/>
        <pt x="269" y="902" on="0"/>
        <pt x="269" y="542" on="0"/>
      </contour>
      <contour>
        <pt x="1323" y="99" on="0"/>
        <pt x="1050" y="-14" on="0"/>
        <pt x="692" y="-14" on="0"/>
        <pt x="355" y="178" on="0"/>
        <pt x="160" y="516" on="0"/>
        <pt x="160" y="927" on="0"/>
        <pt x="355" y="1264" on="0"/>
        <pt x="692" y="1456" on="0"/>
        <pt x="1101" y="1456" on="0"/>
        <pt x="1439" y="1264" on="0"/>
        <pt x="1632" y="927" on="0"/>
        <pt x="1632" y="567" on="0"/>
        <pt x="1518" y="294" on="0"/>
      </contour>
    </TTGlyph>
    <TTGlyph name="q" xMin="148" yMin="-408" xMax="1014" yMax="1080">
      <contour>
        <pt x="826" y="-408" on="1"/>
        <pt x="826" y="47" on="1"/>
        <pt x="781" y="13" on="0"/>
        <pt x="637" y="-22" on="0"/>
        <pt x="573" y="-22" on="1"/>
        <pt x="372" y="-22" on="0"/>
        <pt x="148" y="159" on="0"/>
        <pt x="148" y="314" on="1"/>
        <pt x="148" y="728" on="1"/>
        <pt x="148" y="892" on="0"/>
        <pt x="358" y="1080" on="0"/>
        <pt x="560" y="1080" on="1"/>
        <pt x="639" y="1080" on="0"/>
        <pt x="803" y="1013" on="0"/>
        <pt x="826" y="975" on="1"/>
        <pt x="826" y="1060" on="1"/>
        <pt x="1014" y="1060" on="1"/>
        <pt x="1014" y="-408" on="1"/>
      </contour>
      <contour>
        <pt x="585" y="122" on="1"/>
        <pt x="678" y="122" on="0"/>
        <pt x="815" y="179" on="0"/>
        <pt x="826" y="201" on="1"/>
        <pt x="826" y="810" on="1"/>
        <pt x="826" y="860" on="0"/>
        <pt x="704" y="936" on="0"/>
        <pt x="472" y="936" on="0"/>
        <pt x="336" y="842" on="0"/>
        <pt x="336" y="748" on="1"/>
        <pt x="336" y="284" on="1"/>
        <pt x="336" y="122" on="0"/>
      </contour>
    </TTGlyph>
    <TTGlyph name="question" xMin="179" yMin="0" xMax="1096" yMax="1468">
      <contour>
        <pt x="466" y="431" on="1"/>
        <pt x="740" y="795" on="1"/>
        <pt x="856" y="951" on="0"/>
        <pt x="874" y="1024" on="1"/>
        <pt x="883" y="1061" on="0"/>
        <pt x="883" y="1103" on="1"/>
        <pt x="883" y="1201" on="0"/>
        <pt x="783" y="1306" on="0"/>
        <pt x="503" y="1306" on="0"/>
        <pt x="376" y="1198" on="0"/>
        <pt x="376" y="1092" on="1"/>
        <pt x="376" y="1039" on="1"/>
        <pt x="179" y="1039" on="1"/>
        <pt x="179" y="1071" on="1"/>
        <pt x="179" y="1294" on="0"/>
        <pt x="396" y="1468" on="0"/>
        <pt x="937" y="1468" on="0"/>
        <pt x="1041" y="1308" on="1"/>
        <pt x="1096" y="1224" on="0"/>
        <pt x="1096" y="1048" on="0"/>
        <pt x="1062" y="933" on="0"/>
        <pt x="960" y="783" on="0"/>
        <pt x="834" y="650" on="1"/>
        <pt x="626" y="431" on="1"/>
      </contour>
      <contour>
        <pt x="440" y="0" on="1"/>
        <pt x="440" y="206" on="1"/>
        <pt x="644" y="206" on="1"/>
        <pt x="644" y="0" on="1"/>
      </contour>
    </TTGlyph>
    <TTGlyph name="questiondown" xMin="147" yMin="-202" xMax="1064" yMax="1266">
      <component glyphName="question" x="1243" y="1266" scale="-1.0" flags="0x1004"/>
    </TTGlyph>
    <TTGlyph name="quotedbl" xMin="176" yMin="930" xMax="714" yMax="1506">
      <contour>
        <pt x="220" y="930" on="1"/>
        <pt x="176" y="1506" on="1"/>
        <pt x="381" y="1506" on="1"/>
        <pt x="332" y="930" on="1"/>
      </contour>
      <contour>
        <pt x="553" y="930" on="1"/>
        <pt x="509" y="1506" on="1"/>
        <pt x="714" y="1506" on="1"/>
        <pt x="665" y="930" on="1"/>
      </contour>
    </TTGlyph>
    <TTGlyph name="quotedblbase" xMin="256" yMin="-338" xMax="925" yMax="233">
      <component glyphName="comma" x="476" y="0" flags="0x1004"/>
      <component glyphName="comma" x="64" y="0" flags="0x1004"/>
    </TTGlyph>
    <TTGlyph name="quotedblleft" xMin="256" yMin="897" xMax="925" yMax="1468">
      <component glyphName="comma" x="705" y="1130" scale="-1.0" flags="0x1004"/>
      <component glyphName="comma" x="1117" y="1130" scale="-1.0" flags="0x1004"/>
    </TTGlyph>
    <TTGlyph name="quotedblright" xMin="256" yMin="897" xMax="925" yMax="1468">
      <component glyphName="comma" x="64" y="1235" flags="0x1004"/>
      <component glyphName="comma" x="476" y="1235" flags="0x1004"/>
    </TTGlyph>
    <TTGlyph name="quoteleft" xMin="256" yMin="897" xMax="513" yMax="1468">
      <component glyphName="comma" x="705" y="1130" scale="-1.0" flags="0x1004"/>
    </TTGlyph>
    <TTGlyph name="quoteright" xMin="256" yMin="897" xMax="513" yMax="1468">
      <component glyphName="comma" x="64" y="1235" flags="0x1004"/>
    </TTGlyph>
    <TTGlyph name="quotesinglbase" xMin="256" yMin="-338" xMax="513" yMax="233">
      <component glyphName="comma" x="64" y="0" flags="0x1004"/>
    </TTGlyph>
    <TTGlyph name="quotesingle" xMin="179" yMin="930" xMax="384" yMax="1506">
      <contour>
        <pt x="223" y="930" on="1"/>
        <pt x="179" y="1506" on="1"/>
        <pt x="384" y="1506" on="1"/>
        <pt x="335" y="930" on="1"/>
      </contour>
    </TTGlyph>
    <TTGlyph name="r" xMin="186" yMin="0" xMax="742" yMax="1076">
      <contour>
        <pt x="186" y="0" on="1"/>
        <pt x="186" y="1060" on="1"/>
        <pt x="374" y="1060" on="1"/>
        <pt x="374" y="910" on="1"/>
        <pt x="410" y="1008" on="0"/>
        <pt x="569" y="1052" on="1"/>
        <pt x="652" y="1076" on="0"/>
        <pt x="742" y="1075" on="1"/>
        <pt x="736" y="914" on="1"/>
        <pt x="600" y="914" on="0"/>
        <pt x="374" y="806" on="0"/>
        <pt x="374" y="742" on="1"/>
        <pt x="374" y="0" on="1"/>
      </contour>
    </TTGlyph>
    <TTGlyph name="racute" xMin="186" yMin="0" xMax="756" yMax="1584">
      <component glyphName="acute" x="278" y="78" flags="0x1004"/>
      <component glyphName="r" x="0" y="0" flags="0x1204"/>
    </TTGlyph>
    <TTGlyph name="rcaron" xMin="178" yMin="0" xMax="750" yMax="1509">
      <component glyphName="caron" x="208" y="3" flags="0x1004"/>
      <component glyphName="r" x="0" y="0" flags="0x1204"/>
    </TTGlyph>
    <TTGlyph name="rcommaaccent" xMin="186" yMin="-734" xMax="742" yMax="1076">
      <component glyphName="uni0326" x="80" y="-70" flags="0x1004"/>
      <component glyphName="r" x="0" y="0" flags="0x1204"/>
    </TTGlyph>
    <TTGlyph name="registered" xMin="156" yMin="-14" xMax="1628" yMax="1456">
      <contour>
        <pt x="596" y="319" on="1"/>
        <pt x="596" y="1153" on="1"/>
        <pt x="999" y="1153" on="1"/>
        <pt x="1256" y="1153" on="0"/>
        <pt x="1262" y="908" on="1"/>
        <pt x="1262" y="894" on="1"/>
        <pt x="1262" y="707" on="0"/>
        <pt x="1110" y="666" on="1"/>
        <pt x="1294" y="319" on="1"/>
        <pt x="1166" y="319" on="1"/>
        <pt x="986" y="652" on="1"/>
        <pt x="727" y="652" on="1"/>
        <pt x="727" y="319" on="1"/>
      </contour>
      <contour>
        <pt x="727" y="742" on="1"/>
        <pt x="994" y="742" on="1"/>
        <pt x="1128" y="742" on="0"/>
        <pt x="1130" y="877" on="1"/>
        <pt x="1130" y="901" on="1"/>
        <pt x="1130" y="1062" on="0"/>
        <pt x="1003" y="1062" on="1"/>
        <pt x="727" y="1062" on="1"/>
      </contour>
      <contour>
        <pt x="426" y="249" on="0"/>
        <pt x="715" y="82" on="0"/>
        <pt x="1074" y="82" on="0"/>
        <pt x="1362" y="249" on="0"/>
        <pt x="1522" y="541" on="0"/>
        <pt x="1522" y="902" on="0"/>
        <pt x="1362" y="1194" on="0"/>
        <pt x="1074" y="1361" on="0"/>
        <pt x="715" y="1361" on="0"/>
        <pt x="426" y="1194" on="0"/>
        <pt x="265" y="902" on="0"/>
        <pt x="265" y="542" on="0"/>
      </contour>
      <contour>
        <pt x="1319" y="99" on="0"/>
        <pt x="1046" y="-14" on="0"/>
        <pt x="688" y="-14" on="0"/>
        <pt x="351" y="178" on="0"/>
        <pt x="156" y="516" on="0"/>
        <pt x="156" y="927" on="0"/>
        <pt x="351" y="1264" on="0"/>
        <pt x="688" y="1456" on="0"/>
        <pt x="1097" y="1456" on="0"/>
        <pt x="1435" y="1264" on="0"/>
        <pt x="1628" y="927" on="0"/>
        <pt x="1628" y="567" on="0"/>
        <pt x="1514" y="294" on="0"/>
      </contour>
    </TTGlyph>
    <TTGlyph name="ring" xMin="62" yMin="1150" xMax="450" yMax="1506">
      <contour>
        <pt x="147" y="1215" on="0"/>
        <pt x="365" y="1215" on="0"/>
        <pt x="365" y="1441" on="0"/>
        <pt x="256" y="1441" on="1"/>
        <pt x="208" y="1441" on="0"/>
        <pt x="147" y="1389" on="0"/>
        <pt x="147" y="1329" on="1"/>
      </contour>
      <contour>
        <pt x="338" y="1150" on="0"/>
        <pt x="174" y="1150" on="0"/>
        <pt x="62" y="1241" on="0"/>
        <pt x="62" y="1415" on="0"/>
        <pt x="174" y="1506" on="0"/>
        <pt x="338" y="1506" on="0"/>
        <pt x="450" y="1415" on="0"/>
        <pt x="450" y="1241" on="0"/>
      </contour>
    </TTGlyph>
    <TTGlyph name="s" xMin="142" yMin="-22" xMax="876" yMax="1080">
      <contour>
        <pt x="503" y="122" on="1"/>
        <pt x="716" y="122" on="0"/>
        <pt x="716" y="281" on="1"/>
        <pt x="716" y="350" on="0"/>
        <pt x="678" y="417" on="0"/>
        <pt x="608" y="443" on="1"/>
        <pt x="356" y="536" on="1"/>
        <pt x="240" y="577" on="0"/>
        <pt x="149" y="690" on="0"/>
        <pt x="149" y="860" on="0"/>
        <pt x="183" y="963" on="0"/>
        <pt x="222" y="1002" on="1"/>
        <pt x="300" y="1080" on="0"/>
        <pt x="704" y="1080" on="0"/>
        <pt x="850" y="1022" on="1"/>
        <pt x="807" y="878" on="1"/>
        <pt x="756" y="899" on="0"/>
        <pt x="590" y="936" on="0"/>
        <pt x="528" y="936" on="1"/>
        <pt x="385" y="936" on="0"/>
        <pt x="347" y="890" on="1"/>
        <pt x="324" y="861" on="0"/>
        <pt x="324" y="749" on="0"/>
        <pt x="361" y="702" on="0"/>
        <pt x="415" y="683" on="1"/>
        <pt x="664" y="585" on="1"/>
        <pt x="794" y="534" on="0"/>
        <pt x="876" y="411" on="0"/>
        <pt x="876" y="147" on="0"/>
        <pt x="706" y="-22" on="0"/>
        <pt x="528" y="-22" on="1"/>
        <pt x="398" y="-22" on="0"/>
        <pt x="196" y="34" on="0"/>
        <pt x="142" y="64" on="1"/>
        <pt x="188" y="202" on="1"/>
        <pt x="331" y="122" on="0"/>
      </contour>
    </TTGlyph>
    <TTGlyph name="sacute" xMin="142" yMin="-22" xMax="876" yMax="1584">
      <component glyphName="acute" x="323" y="78" flags="0x1004"/>
      <component glyphName="s" x="0" y="0" flags="0x1204"/>
    </TTGlyph>
    <TTGlyph name="scaron" xMin="142" yMin="-22" xMax="876" yMax="1509">
      <component glyphName="caron" x="253" y="3" flags="0x1004"/>
      <component glyphName="s" x="0" y="0" flags="0x1204"/>
    </TTGlyph>
    <TTGlyph name="scedilla" xMin="142" yMin="-492" xMax="876" yMax="1080">
      <component glyphName="cedilla" x="278" y="-6" flags="0x1004"/>
      <component glyphName="s" x="0" y="0" flags="0x1204"/>
    </TTGlyph>
    <TTGlyph name="scircumflex" xMin="142" yMin="-22" xMax="876" yMax="1509">
      <component glyphName="circumflex" x="253" y="3" flags="0x1004"/>
      <component glyphName="s" x="0" y="0" flags="0x1204"/>
    </TTGlyph>
    <TTGlyph name="scommaaccent" xMin="142" yMin="-756" xMax="876" yMax="1080">
      <component glyphName="uni0326" x="124" y="-92" flags="0x1004"/>
      <component glyphName="s" x="0" y="0" flags="0x1204"/>
    </TTGlyph>
    <TTGlyph name="section" xMin="144" yMin="-22" xMax="900" yMax="1468">
      <contour>
        <pt x="829" y="1266" on="1"/>
        <pt x="683" y="1324" on="0"/>
        <pt x="508" y="1324" on="1"/>
        <pt x="411" y="1324" on="0"/>
        <pt x="332" y="1260" on="0"/>
        <pt x="332" y="1137" on="0"/>
        <pt x="370" y="1092" on="0"/>
        <pt x="425" y="1071" on="1"/>
        <pt x="682" y="973" on="1"/>
        <pt x="816" y="922" on="0"/>
        <pt x="900" y="799" on="0"/>
        <pt x="900" y="563" on="0"/>
        <pt x="846" y="487" on="1"/>
        <pt x="900" y="428" on="0"/>
        <pt x="900" y="147" on="0"/>
        <pt x="725" y="-22" on="0"/>
        <pt x="542" y="-22" on="1"/>
        <pt x="408" y="-22" on="0"/>
        <pt x="200" y="34" on="0"/>
        <pt x="144" y="64" on="1"/>
        <pt x="191" y="202" on="1"/>
        <pt x="340" y="122" on="0"/>
        <pt x="516" y="122" on="1"/>
        <pt x="736" y="122" on="0"/>
        <pt x="736" y="281" on="1"/>
        <pt x="736" y="349" on="0"/>
        <pt x="696" y="417" on="0"/>
        <pt x="624" y="443" on="1"/>
        <pt x="365" y="536" on="1"/>
        <pt x="245" y="579" on="0"/>
        <pt x="151" y="692" on="0"/>
        <pt x="151" y="928" on="0"/>
        <pt x="223" y="997" on="1"/>
        <pt x="151" y="1058" on="0"/>
        <pt x="151" y="1178" on="1"/>
        <pt x="151" y="1396" on="0"/>
        <pt x="337" y="1448" on="1"/>
        <pt x="407" y="1468" on="0"/>
        <pt x="506" y="1468" on="1"/>
        <pt x="722" y="1468" on="0"/>
        <pt x="874" y="1410" on="1"/>
      </contour>
      <contour>
        <pt x="365" y="924" on="1"/>
        <pt x="357" y="924" on="0"/>
        <pt x="332" y="838" on="0"/>
        <pt x="332" y="757" on="0"/>
        <pt x="371" y="704" on="0"/>
        <pt x="425" y="683" on="1"/>
        <pt x="716" y="571" on="1"/>
        <pt x="736" y="615" on="0"/>
        <pt x="736" y="737" on="0"/>
        <pt x="696" y="805" on="0"/>
        <pt x="624" y="831" on="1"/>
      </contour>
    </TTGlyph>
    <TTGlyph name="semicolon" xMin="248" yMin="-128" xMax="521" yMax="1060">
      <component glyphName="comma" x="72" y="210" flags="0x1004"/>
      <component glyphName="period" x="62" y="818" flags="0x1004"/>
    </TTGlyph>
    <TTGlyph name="seven" xMin="189" yMin="0" xMax="1070" yMax="1446">
      <contour>
        <pt x="369" y="0" on="1"/>
        <pt x="869" y="1291" on="1"/>
        <pt x="189" y="1291" on="1"/>
        <pt x="189" y="1446" on="1"/>
        <pt x="1070" y="1446" on="1"/>
        <pt x="1070" y="1289" on="1"/>
        <pt x="580" y="0" on="1"/>
      </contour>
    </TTGlyph>
    <TTGlyph name="six" xMin="178" yMin="-22" xMax="1132" yMax="1446">
      <contour>
        <pt x="833" y="1446" on="1"/>
        <pt x="476" y="841" on="1"/>
        <pt x="560" y="878" on="0"/>
        <pt x="654" y="878" on="1"/>
        <pt x="886" y="878" on="0"/>
        <pt x="1132" y="661" on="0"/>
        <pt x="1132" y="422" on="1"/>
        <pt x="1132" y="88" on="0"/>
        <pt x="840" y="3" on="1"/>
        <pt x="754" y="-22" on="0"/>
        <pt x="647" y="-22" on="1"/>
        <pt x="429" y="-22" on="0"/>
        <pt x="178" y="196" on="0"/>
        <pt x="178" y="644" on="0"/>
        <pt x="319" y="897" on="1"/>
        <pt x="633" y="1446" on="1"/>
      </contour>
      <contour>
        <pt x="507" y="715" on="0"/>
        <pt x="365" y="584" on="0"/>
        <pt x="365" y="263" on="0"/>
        <pt x="504" y="140" on="0"/>
        <pt x="797" y="140" on="0"/>
        <pt x="945" y="263" on="0"/>
        <pt x="945" y="600" on="0"/>
        <pt x="791" y="715" on="0"/>
      </contour>
    </TTGlyph>
    <TTGlyph name="slash" xMin="64" yMin="0" xMax="704" yMax="1506">
      <contour>
        <pt x="521" y="1506" on="1"/>
        <pt x="704" y="1506" on="1"/>
        <pt x="251" y="0" on="1"/>
        <pt x="64" y="0" on="1"/>
      </contour>
    </TTGlyph>
    <TTGlyph name="sterling" xMin="166" yMin="0" xMax="1077" yMax="1484">
      <contour>
        <pt x="261" y="0" on="1"/>
        <pt x="323" y="668" on="1"/>
        <pt x="166" y="668" on="1"/>
        <pt x="166" y="809" on="1"/>
        <pt x="336" y="809" on="1"/>
        <pt x="367" y="1125" on="1"/>
        <pt x="381" y="1279" on="0"/>
        <pt x="580" y="1484" on="0"/>
        <pt x="899" y="1484" on="0"/>
        <pt x="1077" y="1398" on="1"/>
        <pt x="1023" y="1259" on="1"/>
        <pt x="883" y="1327" on="0"/>
        <pt x="770" y="1327" on="1"/>
        <pt x="582" y="1327" on="0"/>
        <pt x="559" y="1104" on="1"/>
        <pt x="529" y="809" on="1"/>
        <pt x="1012" y="809" on="1"/>
        <pt x="1012" y="668" on="1"/>
        <pt x="514" y="668" on="1"/>
        <pt x="462" y="162" on="1"/>
        <pt x="1036" y="162" on="1"/>
        <pt x="1036" y="0" on="1"/>
      </contour>
    </TTGlyph>
    <TTGlyph name="t" xMin="80" yMin="-8" xMax="724" yMax="1388">
      <contour>
        <pt x="676" y="-8" on="1"/>
        <pt x="454" y="-8" on="0"/>
        <pt x="257" y="132" on="0"/>
        <pt x="257" y="303" on="1"/>
        <pt x="257" y="918" on="1"/>
        <pt x="80" y="918" on="1"/>
        <pt x="80" y="1060" on="1"/>
        <pt x="264" y="1060" on="1"/>
        <pt x="287" y="1388" on="1"/>
        <pt x="445" y="1388" on="1"/>
        <pt x="445" y="1060" on="1"/>
        <pt x="711" y="1060" on="1"/>
        <pt x="711" y="918" on="1"/>
        <pt x="445" y="918" on="1"/>
        <pt x="445" y="315" on="1"/>
        <pt x="445" y="215" on="0"/>
        <pt x="560" y="150" on="0"/>
        <pt x="703" y="150" on="1"/>
        <pt x="724" y="150" on="1"/>
        <pt x="704" y="-8" on="1"/>
      </contour>
    </TTGlyph>
    <TTGlyph name="tbar" xMin="58" yMin="-8" xMax="774" yMax="1388">
      <contour>
        <pt x="676" y="-8" on="1"/>
        <pt x="454" y="-8" on="0"/>
        <pt x="257" y="132" on="0"/>
        <pt x="257" y="303" on="1"/>
        <pt x="257" y="560" on="1"/>
        <pt x="58" y="560" on="1"/>
        <pt x="58" y="689" on="1"/>
        <pt x="257" y="689" on="1"/>
        <pt x="257" y="918" on="1"/>
        <pt x="80" y="918" on="1"/>
        <pt x="80" y="1060" on="1"/>
        <pt x="264" y="1060" on="1"/>
        <pt x="287" y="1388" on="1"/>
        <pt x="445" y="1388" on="1"/>
        <pt x="445" y="1060" on="1"/>
        <pt x="711" y="1060" on="1"/>
        <pt x="711" y="918" on="1"/>
        <pt x="445" y="918" on="1"/>
        <pt x="445" y="689" on="1"/>
        <pt x="774" y="689" on="1"/>
        <pt x="774" y="560" on="1"/>
        <pt x="445" y="560" on="1"/>
        <pt x="445" y="315" on="1"/>
        <pt x="445" y="215" on="0"/>
        <pt x="560" y="150" on="0"/>
        <pt x="703" y="150" on="1"/>
        <pt x="724" y="150" on="1"/>
        <pt x="704" y="-8" on="1"/>
      </contour>
    </TTGlyph>
    <TTGlyph name="tcaron" xMin="80" yMin="-8" xMax="1225" yMax="1388">
      <component glyphName="comma" x="776" y="1155" flags="0x1004"/>
      <component glyphName="t" x="0" y="0" flags="0x1004"/>
    </TTGlyph>
    <TTGlyph name="tcommaaccent" xMin="80" yMin="-478" xMax="806" yMax="1388">
      <component glyphName="cedilla" x="346" y="8" flags="0x1004"/>
      <component glyphName="t" x="0" y="0" flags="0x1204"/>
    </TTGlyph>
    <TTGlyph name="thorn" xMin="177" yMin="-408" xMax="1044" yMax="1506">
      <contour>
        <pt x="177" y="-408" on="1"/>
        <pt x="179" y="1506" on="1"/>
        <pt x="365" y="1506" on="1"/>
        <pt x="365" y="994" on="1"/>
        <pt x="412" y="1029" on="0"/>
        <pt x="560" y="1076" on="0"/>
        <pt x="639" y="1076" on="1"/>
        <pt x="836" y="1076" on="0"/>
        <pt x="1044" y="887" on="0"/>
        <pt x="1044" y="729" on="1"/>
        <pt x="1044" y="344" on="1"/>
        <pt x="1044" y="180" on="0"/>
        <pt x="817" y="-24" on="0"/>
        <pt x="615" y="-24" on="1"/>
        <pt x="479" y="-24" on="0"/>
        <pt x="365" y="34" on="1"/>
        <pt x="365" y="-408" on="1"/>
      </contour>
      <contour>
        <pt x="365" y="179" on="1"/>
        <pt x="475" y="117" on="0"/>
        <pt x="716" y="117" on="0"/>
        <pt x="856" y="228" on="0"/>
        <pt x="856" y="324" on="1"/>
        <pt x="856" y="742" on="1"/>
        <pt x="856" y="834" on="0"/>
        <pt x="718" y="934" on="0"/>
        <pt x="523" y="934" on="0"/>
        <pt x="386" y="855" on="0"/>
        <pt x="365" y="824" on="1"/>
      </contour>
    </TTGlyph>
    <TTGlyph name="three" xMin="208" yMin="-22" xMax="1126" yMax="1468">
      <contour>
        <pt x="909" y="1088" on="1"/>
        <pt x="909" y="1306" on="0"/>
        <pt x="682" y="1306" on="1"/>
        <pt x="564" y="1306" on="0"/>
        <pt x="518" y="1284" on="1"/>
        <pt x="472" y="1262" on="0"/>
        <pt x="452" y="1231" on="1"/>
        <pt x="410" y="1165" on="0"/>
        <pt x="410" y="1025" on="1"/>
        <pt x="218" y="1025" on="1"/>
        <pt x="218" y="1208" on="0"/>
        <pt x="342" y="1401" on="0"/>
        <pt x="541" y="1468" on="0"/>
        <pt x="675" y="1468" on="1"/>
        <pt x="870" y="1468" on="0"/>
        <pt x="1097" y="1281" on="0"/>
        <pt x="1097" y="1091" on="1"/>
        <pt x="1097" y="945" on="0"/>
        <pt x="988" y="788" on="0"/>
        <pt x="865" y="768" on="1"/>
        <pt x="996" y="741" on="0"/>
        <pt x="1126" y="573" on="0"/>
        <pt x="1126" y="193" on="0"/>
        <pt x="894" y="-22" on="0"/>
        <pt x="679" y="-22" on="1"/>
        <pt x="516" y="-22" on="0"/>
        <pt x="325" y="64" on="0"/>
        <pt x="225" y="258" on="0"/>
        <pt x="208" y="431" on="1"/>
        <pt x="400" y="431" on="1"/>
        <pt x="412" y="253" on="0"/>
        <pt x="477" y="195" on="1"/>
        <pt x="513" y="163" on="0"/>
        <pt x="611" y="140" on="0"/>
        <pt x="690" y="140" on="1"/>
        <pt x="817" y="140" on="0"/>
        <pt x="935" y="270" on="0"/>
        <pt x="935" y="574" on="0"/>
        <pt x="824" y="673" on="0"/>
        <pt x="663" y="691" on="0"/>
        <pt x="587" y="691" on="1"/>
        <pt x="587" y="840" on="1"/>
        <pt x="747" y="840" on="0"/>
        <pt x="859" y="892" on="0"/>
        <pt x="909" y="967" on="0"/>
      </contour>
    </TTGlyph>
    <TTGlyph name="threequarters" xMin="199" yMin="0" xMax="1912" yMax="1516">
      <contour>
        <pt x="1655" y="0" on="1"/>
        <pt x="1655" y="207" on="1"/>
        <pt x="1221" y="207" on="1"/>
        <pt x="1221" y="299" on="1"/>
        <pt x="1580" y="892" on="1"/>
        <pt x="1721" y="892" on="1"/>
        <pt x="1373" y="298" on="1"/>
        <pt x="1655" y="298" on="1"/>
        <pt x="1655" y="533" on="1"/>
        <pt x="1768" y="533" on="1"/>
        <pt x="1768" y="298" on="1"/>
        <pt x="1912" y="298" on="1"/>
        <pt x="1912" y="207" on="1"/>
        <pt x="1768" y="207" on="1"/>
        <pt x="1768" y="0" on="1"/>
      </contour>
      <contour>
        <pt x="687" y="0" on="1"/>
        <pt x="1371" y="1446" on="1"/>
        <pt x="1497" y="1446" on="1"/>
        <pt x="819" y="0" on="1"/>
      </contour>
      <contour>
        <pt x="695" y="1295" on="1"/>
        <pt x="695" y="1421" on="0"/>
        <pt x="533" y="1421" on="1"/>
        <pt x="405" y="1421" on="0"/>
        <pt x="347" y="1340" on="0"/>
        <pt x="347" y="1253" on="1"/>
        <pt x="212" y="1253" on="1"/>
        <pt x="215" y="1438" on="0"/>
        <pt x="343" y="1488" on="1"/>
        <pt x="413" y="1516" on="0"/>
        <pt x="669" y="1515" on="0"/>
        <pt x="827" y="1407" on="0"/>
        <pt x="827" y="1213" on="0"/>
        <pt x="751" y="1122" on="0"/>
        <pt x="664" y="1110" on="1"/>
        <pt x="756" y="1094" on="0"/>
        <pt x="847" y="997" on="0"/>
        <pt x="847" y="776" on="0"/>
        <pt x="690" y="653" on="0"/>
        <pt x="367" y="653" on="0"/>
        <pt x="212" y="775" on="0"/>
        <pt x="199" y="932" on="1"/>
        <pt x="334" y="932" on="1"/>
        <pt x="340" y="819" on="0"/>
        <pt x="435" y="746" on="0"/>
        <pt x="636" y="746" on="0"/>
        <pt x="713" y="821" on="0"/>
        <pt x="713" y="893" on="1"/>
        <pt x="714" y="965" on="0"/>
        <pt x="696" y="999" on="1"/>
        <pt x="662" y="1066" on="0"/>
        <pt x="469" y="1066" on="1"/>
        <pt x="469" y="1151" on="1"/>
        <pt x="581" y="1151" on="0"/>
        <pt x="648" y="1177" on="0"/>
        <pt x="663" y="1187" on="1"/>
        <pt x="695" y="1208" on="0"/>
      </contour>
    </TTGlyph>
    <TTGlyph name="tilde" xMin="-41" yMin="1263" xMax="552" yMax="1506">
      <contour>
        <pt x="455" y="1277" on="1"/>
        <pt x="455" y="1370" on="0"/>
        <pt x="381" y="1370" on="1"/>
        <pt x="345" y="1370" on="0"/>
        <pt x="235" y="1263" on="0"/>
        <pt x="52" y="1263" on="0"/>
        <pt x="-41" y="1371" on="0"/>
        <pt x="-41" y="1492" on="1"/>
        <pt x="56" y="1492" on="1"/>
        <pt x="56" y="1399" on="0"/>
        <pt x="130" y="1399" on="1"/>
        <pt x="166" y="1399" on="0"/>
        <pt x="276" y="1506" on="0"/>
        <pt x="459" y="1506" on="0"/>
        <pt x="552" y="1398" on="0"/>
        <pt x="552" y="1277" on="1"/>
      </contour>
    </TTGlyph>
    <TTGlyph name="trademark" xMin="133" yMin="766" xMax="1609" yMax="1446">
      <contour>
        <pt x="845" y="766" on="1"/>
        <pt x="845" y="1446" on="1"/>
        <pt x="1043" y="1446" on="1"/>
        <pt x="1227" y="1033" on="1"/>
        <pt x="1413" y="1446" on="1"/>
        <pt x="1609" y="1446" on="1"/>
        <pt x="1609" y="766" on="1"/>
        <pt x="1482" y="766" on="1"/>
        <pt x="1482" y="1329" on="1"/>
        <pt x="1310" y="931" on="1"/>
        <pt x="1149" y="931" on="1"/>
        <pt x="970" y="1329" on="1"/>
        <pt x="970" y="766" on="1"/>
      </contour>
      <contour>
        <pt x="345" y="766" on="1"/>
        <pt x="345" y="1332" on="1"/>
        <pt x="133" y="1332" on="1"/>
        <pt x="133" y="1446" on="1"/>
        <pt x="692" y="1446" on="1"/>
        <pt x="692" y="1332" on="1"/>
        <pt x="480" y="1332" on="1"/>
        <pt x="480" y="766" on="1"/>
      </contour>
    </TTGlyph>
    <TTGlyph name="two" xMin="164" yMin="0" xMax="1095" yMax="1468">
      <contour>
        <pt x="231" y="0" on="1"/>
        <pt x="212" y="158" on="1"/>
        <pt x="700" y="689" on="1"/>
        <pt x="833" y="833" on="0"/>
        <pt x="870" y="900" on="0"/>
        <pt x="905" y="980" on="0"/>
        <pt x="905" y="1057" on="1"/>
        <pt x="905" y="1194" on="0"/>
        <pt x="789" y="1306" on="0"/>
        <pt x="654" y="1306" on="1"/>
        <pt x="570" y="1306" on="0"/>
        <pt x="468" y="1284" on="0"/>
        <pt x="431" y="1253" on="1"/>
        <pt x="365" y="1198" on="0"/>
        <pt x="365" y="1024" on="1"/>
        <pt x="164" y="1024" on="1"/>
        <pt x="164" y="1468" on="0"/>
        <pt x="639" y="1468" on="1"/>
        <pt x="867" y="1468" on="0"/>
        <pt x="1095" y="1237" on="0"/>
        <pt x="1095" y="907" on="0"/>
        <pt x="976" y="721" on="0"/>
        <pt x="850" y="590" on="0"/>
        <pt x="842" y="581" on="1"/>
        <pt x="441" y="156" on="1"/>
        <pt x="1087" y="156" on="1"/>
        <pt x="1087" y="0" on="1"/>
      </contour>
    </TTGlyph>
    <TTGlyph name="u" xMin="176" yMin="-22" xMax="1038" yMax="1060">
      <contour>
        <pt x="541" y="-22" on="1"/>
        <pt x="270" y="-22" on="0"/>
        <pt x="197" y="170" on="1"/>
        <pt x="176" y="225" on="0"/>
        <pt x="176" y="290" on="1"/>
        <pt x="176" y="1060" on="1"/>
        <pt x="364" y="1060" on="1"/>
        <pt x="364" y="289" on="1"/>
        <pt x="364" y="211" on="0"/>
        <pt x="479" y="122" on="0"/>
        <pt x="707" y="122" on="0"/>
        <pt x="850" y="235" on="0"/>
        <pt x="850" y="309" on="1"/>
        <pt x="850" y="1060" on="1"/>
        <pt x="1038" y="1060" on="1"/>
        <pt x="1038" y="0" on="1"/>
        <pt x="870" y="0" on="1"/>
        <pt x="850" y="133" on="1"/>
        <pt x="762" y="-22" on="0"/>
      </contour>
    </TTGlyph>
    <TTGlyph name="uacute" xMin="176" yMin="-22" xMax="1038" yMax="1584">
      <component glyphName="acute" x="421" y="78" flags="0x1004"/>
      <component glyphName="u" x="0" y="0" flags="0x1204"/>
    </TTGlyph>
    <TTGlyph name="ubreve" xMin="176" yMin="-22" xMax="1038" yMax="1455">
      <component glyphName="breve" x="351" y="-51" flags="0x1004"/>
      <component glyphName="u" x="0" y="0" flags="0x1204"/>
    </TTGlyph>
    <TTGlyph name="ucircumflex" xMin="176" yMin="-22" xMax="1038" yMax="1509">
      <component glyphName="circumflex" x="351" y="3" flags="0x1004"/>
      <component glyphName="u" x="0" y="0" flags="0x1204"/>
    </TTGlyph>
    <TTGlyph name="udieresis" xMin="176" yMin="-22" xMax="1038" yMax="1424">
      <component glyphName="dieresis" x="94" y="-22" flags="0x1004"/>
      <component glyphName="u" x="0" y="0" flags="0x1204"/>
    </TTGlyph>
    <TTGlyph name="ugrave" xMin="176" yMin="-22" xMax="1038" yMax="1584">
      <component glyphName="grave" x="182" y="78" flags="0x1004"/>
      <component glyphName="u" x="0" y="0" flags="0x1204"/>
    </TTGlyph>
    <TTGlyph name="uhungarumlaut" xMin="176" yMin="-22" xMax="1113" yMax="1718">
      <component glyphName="hungarumlaut" x="243" y="212" flags="0x1004"/>
      <component glyphName="u" x="0" y="0" flags="0x1204"/>
    </TTGlyph>
    <TTGlyph name="umacron" xMin="176" yMin="-22" xMax="1038" yMax="1395">
      <component glyphName="uni02C9" x="350" y="-111" flags="0x1004"/>
      <component glyphName="u" x="0" y="0" flags="0x1204"/>
    </TTGlyph>
    <TTGlyph name="underscore" xMin="14" yMin="-104" xMax="915" yMax="46">
      <contour>
        <pt x="14" y="-104" on="1"/>
        <pt x="14" y="46" on="1"/>
        <pt x="915" y="46" on="1"/>
        <pt x="915" y="-104" on="1"/>
      </contour>
    </TTGlyph>
    <TTGlyph name="uni00A0" xMin="0" yMin="0" xMax="0" yMax="0">
      <component glyphName="space" x="0" y="0" flags="0x1004"/>
    </TTGlyph>
    <TTGlyph name="uni00AD" xMin="162" yMin="494" xMax="862" yMax="642">
      <contour>
        <pt x="162" y="494" on="1"/>
        <pt x="162" y="642" on="1"/>
        <pt x="862" y="642" on="1"/>
        <pt x="862" y="494" on="1"/>
      </contour>
    </TTGlyph>
    <TTGlyph name="uni00B2" xMin="190" yMin="449" xMax="820" yMax="1484">
      <contour>
        <pt x="655" y="1334" on="1"/>
        <pt x="610" y="1387" on="0"/>
        <pt x="516" y="1387" on="1"/>
        <pt x="310" y="1387" on="0"/>
        <pt x="311" y="1174" on="1"/>
        <pt x="190" y="1174" on="1"/>
        <pt x="190" y="1331" on="0"/>
        <pt x="373" y="1484" on="0"/>
        <pt x="653" y="1484" on="0"/>
        <pt x="820" y="1322" on="0"/>
        <pt x="820" y="1089" on="0"/>
        <pt x="750" y="946" on="0"/>
        <pt x="670" y="865" on="1"/>
        <pt x="350" y="549" on="1"/>
        <pt x="815" y="549" on="1"/>
        <pt x="815" y="449" on="1"/>
        <pt x="230" y="449" on="1"/>
        <pt x="219" y="559" on="1"/>
        <pt x="578" y="948" on="1"/>
        <pt x="660" y="1036" on="0"/>
        <pt x="699" y="1132" on="0"/>
        <pt x="699" y="1280" on="0"/>
      </contour>
    </TTGlyph>
    <TTGlyph name="uni00B3" xMin="200" yMin="418" xMax="948" yMax="1484">
      <contour>
        <pt x="590" y="418" on="1"/>
        <pt x="304" y="418" on="0"/>
        <pt x="232" y="592" on="1"/>
        <pt x="204" y="660" on="0"/>
        <pt x="200" y="761" on="1"/>
        <pt x="338" y="761" on="1"/>
        <pt x="342" y="572" on="0"/>
        <pt x="470" y="538" on="1"/>
        <pt x="520" y="524" on="0"/>
        <pt x="693" y="525" on="0"/>
        <pt x="813" y="620" on="0"/>
        <pt x="813" y="705" on="1"/>
        <pt x="814" y="790" on="0"/>
        <pt x="788" y="834" on="1"/>
        <pt x="737" y="921" on="0"/>
        <pt x="499" y="921" on="1"/>
        <pt x="499" y="1020" on="1"/>
        <pt x="678" y="1020" on="0"/>
        <pt x="777" y="1089" on="0"/>
        <pt x="794" y="1154" on="0"/>
        <pt x="794" y="1282" on="0"/>
        <pt x="696" y="1378" on="0"/>
        <pt x="590" y="1378" on="1"/>
        <pt x="404" y="1378" on="0"/>
        <pt x="365" y="1268" on="1"/>
        <pt x="349" y="1222" on="0"/>
        <pt x="349" y="1153" on="1"/>
        <pt x="213" y="1153" on="1"/>
        <pt x="217" y="1436" on="0"/>
        <pt x="474" y="1476" on="1"/>
        <pt x="526" y="1484" on="0"/>
        <pt x="682" y="1484" on="0"/>
        <pt x="831" y="1425" on="0"/>
        <pt x="927" y="1296" on="0"/>
        <pt x="927" y="1200" on="1"/>
        <pt x="927" y="1008" on="0"/>
        <pt x="735" y="972" on="1"/>
        <pt x="898" y="942" on="0"/>
        <pt x="934" y="828" on="1"/>
        <pt x="948" y="782" on="0"/>
        <pt x="948" y="719" on="1"/>
        <pt x="948" y="569" on="0"/>
        <pt x="749" y="418" on="0"/>
      </contour>
    </TTGlyph>
    <TTGlyph name="uni00B9" xMin="207" yMin="654" xMax="843" yMax="1505">
      <contour>
        <pt x="207" y="654" on="1"/>
        <pt x="207" y="755" on="1"/>
        <pt x="481" y="755" on="1"/>
        <pt x="481" y="1394" on="1"/>
        <pt x="225" y="1368" on="1"/>
        <pt x="213" y="1472" on="1"/>
        <pt x="505" y="1505" on="1"/>
        <pt x="612" y="1505" on="1"/>
        <pt x="612" y="755" on="1"/>
        <pt x="843" y="755" on="1"/>
        <pt x="843" y="654" on="1"/>
      </contour>
    </TTGlyph>
    <TTGlyph name="uni01C4" xMin="218" yMin="0" xMax="2618" yMax="1897">
      <component glyphName="Zcaron" x="1522" y="0" flags="0x1004"/>
      <component glyphName="D" x="0" y="0" flags="0x1004"/>
    </TTGlyph>
    <TTGlyph name="uni01C5" xMin="218" yMin="0" xMax="2376" yMax="1509">
      <component glyphName="zcaron" x="1522" y="0" flags="0x1004"/>
      <component glyphName="D" x="0" y="0" flags="0x1004"/>
    </TTGlyph>
    <TTGlyph name="uni01C6" xMin="148" yMin="-22" xMax="2054" yMax="1509">
      <component glyphName="zcaron" x="1200" y="0" flags="0x1004"/>
      <component glyphName="d" x="0" y="0" flags="0x1004"/>
    </TTGlyph>
    <TTGlyph name="uni01C7" xMin="218" yMin="-17" xMax="2133" yMax="1446">
      <component glyphName="J" x="1145" y="0" flags="0x1004"/>
      <component glyphName="L" x="0" y="0" flags="0x1004"/>
    </TTGlyph>
    <TTGlyph name="uni01C8" xMin="218" yMin="-353" xMax="1565" yMax="1446">
      <component glyphName="j" x="1145" y="0" flags="0x1004"/>
      <component glyphName="L" x="0" y="0" flags="0x1004"/>
    </TTGlyph>
    <TTGlyph name="uni01C9" xMin="190" yMin="-353" xMax="1116" yMax="1505">
      <component glyphName="j" x="696" y="0" flags="0x1004"/>
      <component glyphName="l" x="0" y="0" flags="0x1004"/>
    </TTGlyph>
    <TTGlyph name="uni01CA" xMin="218" yMin="-17" xMax="2582" yMax="1446">
      <component glyphName="J" x="1594" y="0" flags="0x1004"/>
      <component glyphName="N" x="0" y="0" flags="0x1004"/>
    </TTGlyph>
    <TTGlyph name="uni01CB" xMin="218" yMin="-353" xMax="2014" yMax="1446">
      <component glyphName="j" x="1594" y="0" flags="0x1004"/>
      <component glyphName="N" x="0" y="0" flags="0x1004"/>
    </TTGlyph>
    <TTGlyph name="uni01CC" xMin="186" yMin="-353" xMax="1646" yMax="1446">
      <component glyphName="j" x="1226" y="0" flags="0x1004"/>
      <component glyphName="n" x="0" y="0" flags="0x1004"/>
    </TTGlyph>
    <TTGlyph name="uni01F1" xMin="218" yMin="0" xMax="2618" yMax="1446">
      <component glyphName="Z" x="1522" y="0" flags="0x1004"/>
      <component glyphName="D" x="0" y="0" flags="0x1004"/>
    </TTGlyph>
    <TTGlyph name="uni01F2" xMin="218" yMin="0" xMax="2376" yMax="1446">
      <component glyphName="z" x="1522" y="0" flags="0x1004"/>
      <component glyphName="D" x="0" y="0" flags="0x1004"/>
    </TTGlyph>
    <TTGlyph name="uni01F3" xMin="148" yMin="-22" xMax="2054" yMax="1506">
      <component glyphName="z" x="1200" y="0" flags="0x1004"/>
      <component glyphName="d" x="0" y="0" flags="0x1004"/>
    </TTGlyph>
    <TTGlyph name="uni01F4" xMin="186" yMin="-22" xMax="1360" yMax="1972">
      <component glyphName="acute" x="587" y="466" flags="0x1004"/>
      <component glyphName="G" x="0" y="0" flags="0x1204"/>
    </TTGlyph>
</ttFont>
